<svg width="206" height="120" viewBox="0 0 206 120" fill="none" xmlns="http://www.w3.org/2000/svg">
<g clip-path="url(#clip0_763_2585)">
<mask id="mask0_763_2585" style="mask-type:luminance" maskUnits="userSpaceOnUse" x="0" y="0" width="206" height="120">
<path d="M205.846 0H0V119.861H205.846V0Z" fill="white"/>
</mask>
<g mask="url(#mask0_763_2585)">
<path d="M194.985 72.4931C187.71 91.4738 174.033 108.103 155.035 115.411C152.564 116.36 150.041 117.165 147.478 117.822C133.924 121.304 119.096 120.093 106.602 113.748C101.299 111.053 96.4635 107.492 91.1414 104.835C85.8193 102.179 79.7418 100.44 73.9491 101.751C68.9616 102.88 64.7536 106.116 60.5167 108.998C50.5288 115.793 38.5194 121.171 26.6924 118.837C21.2503 117.764 15.8914 114.793 13.364 109.827C7.77784 98.848 18.3131 85.7947 16.1795 73.6528C14.8142 65.8818 8.57815 60.0625 4.70145 53.2044C-1.93313 41.4738 -1.14883 25.8915 6.6302 14.8996C14.4092 3.90769 28.77 -1.92296 41.9367 0.570591C57.9925 3.61253 70.1317 17.3044 85.7441 22.1496C95.5079 25.177 106.109 24.2738 115.434 20.2867C130.501 13.8432 151.2 3.96091 168.155 5.57059C177.172 6.42704 186.015 10.4593 191.966 17.3447C199.489 26.0367 201.744 38.377 200.489 49.8383C199.628 57.5968 197.778 65.2112 194.985 72.4931Z" fill="url(#paint0_linear_763_2585)"/>
<path d="M199.824 87.5064C199.49 87.5059 199.157 87.4654 198.832 87.3854C197.804 87.1309 196.913 86.4911 196.338 85.5962C195.764 84.7014 195.549 83.6191 195.74 82.5706C195.929 81.522 196.51 80.5861 197.361 79.9538C198.213 79.3217 199.272 79.0409 200.322 79.169C201.372 79.297 202.334 79.8241 203.011 80.6427C203.69 81.4612 204.031 82.5096 203.968 83.5737C203.904 84.6377 203.44 85.6372 202.67 86.368C201.9 87.099 200.882 87.5061 199.824 87.5064ZM199.824 81.0258C199.274 81.0279 198.744 81.2327 198.333 81.6016C197.921 81.9704 197.659 82.478 197.593 83.0287C197.529 83.5791 197.665 84.1348 197.979 84.5909C198.291 85.047 198.758 85.372 199.293 85.5048C199.602 85.5798 199.924 85.5879 200.237 85.5285C200.55 85.4693 200.846 85.344 201.107 85.1608C201.367 84.9777 201.588 84.7409 201.752 84.4661C201.915 84.1912 202.02 83.8846 202.057 83.5664C202.096 83.248 202.065 82.9253 201.971 82.6193C201.876 82.3133 201.718 82.0311 201.507 81.7911C201.295 81.5511 201.038 81.3588 200.746 81.2269C200.457 81.0949 200.143 81.0264 199.824 81.0258Z" fill="#E7F6FF"/>
<path d="M196.036 91.9431C196.272 90.9623 195.675 89.9742 194.7 89.7365C193.727 89.4986 192.747 90.101 192.51 91.0818C192.275 92.0626 192.872 93.0505 193.845 93.2884C194.82 93.5262 195.8 92.9239 196.036 91.9431Z" fill="#E7F6FF"/>
<path d="M8.83478 87.1076C7.73539 87.0834 6.68985 86.6233 5.92514 85.827C5.16041 85.0307 4.73823 83.9626 4.75025 82.8547C4.76225 81.7467 5.2075 80.6881 5.98931 79.9089C6.7711 79.1296 7.82637 78.6926 8.92602 78.6926C10.0257 78.6926 11.0809 79.1296 11.8627 79.9089C12.6445 80.6881 13.0898 81.7467 13.1018 82.8547C13.1138 83.9626 12.6916 85.0307 11.9269 85.827C11.1622 86.6233 10.1166 87.0834 9.01725 87.1076H8.83478ZM8.83478 80.6286H8.74034C8.14658 80.6417 7.58185 80.89 7.16876 81.32C6.75568 81.75 6.5276 82.3268 6.53403 82.9254C6.54045 83.5238 6.78088 84.0954 7.20311 84.5163C7.62532 84.9371 8.19525 85.1733 8.78916 85.1733C9.38307 85.1733 9.95301 84.9371 10.3752 84.5163C10.7975 84.0954 11.0379 83.5238 11.0443 82.9254C11.0507 82.3268 10.8227 81.75 10.4096 81.32C9.99648 80.89 9.43175 80.6417 8.83798 80.6286H8.83478Z" fill="#E7F6FF"/>
<path d="M5.85654 94.1693C6.85719 94.1257 7.63338 93.2732 7.59021 92.2648C7.54704 91.2566 6.70087 90.4743 5.70022 90.5178C4.6996 90.5614 3.92341 91.414 3.96656 92.4224C4.00973 93.4306 4.8559 94.2128 5.85654 94.1693Z" fill="#E7F6FF"/>
<path d="M113.497 19.0735C112.501 19.0743 111.537 18.7157 110.78 18.0625C110.023 17.4093 109.523 16.5046 109.371 15.5122C109.219 14.5198 109.424 13.5053 109.95 12.6524C110.476 11.7994 111.288 11.1643 112.238 10.862C113.188 10.5597 114.214 10.6102 115.131 11.0044C116.047 11.3985 116.794 12.1103 117.234 13.0109C117.675 13.9114 117.781 14.9413 117.534 15.914C117.287 16.8867 116.702 17.738 115.885 18.3138C115.185 18.8074 114.352 19.0725 113.497 19.0735ZM113.484 12.596C112.901 12.5954 112.341 12.8216 111.919 13.2274C111.497 13.6332 111.247 14.1873 111.221 14.7742C111.195 15.3612 111.394 15.9357 111.778 16.378C112.162 16.8203 112.7 17.0962 113.281 17.1483C113.862 17.2004 114.44 17.0248 114.896 16.6577C115.351 16.2907 115.648 15.7609 115.725 15.1785C115.803 14.5961 115.654 14.0062 115.31 13.5317C114.966 13.0572 114.454 12.7347 113.88 12.6315C113.749 12.6081 113.617 12.5962 113.484 12.596Z" fill="#E7F6FF"/>
<path d="M104.982 18.8441C105.802 18.2645 106 17.125 105.425 16.2986C104.85 15.4723 103.719 15.2722 102.899 15.8516C102.079 16.4311 101.881 17.5707 102.456 18.3971C103.031 19.2234 104.162 19.4236 104.982 18.8441Z" fill="#E7F6FF"/>
<path d="M205.84 40.7511C205.84 38.9777 205.141 37.2767 203.897 36.0227C202.652 34.7685 200.965 34.064 199.204 34.064C199.057 34.064 198.911 34.064 198.767 34.0785C198.777 33.9333 198.781 33.7866 198.781 33.6382C198.781 32.6878 198.58 31.7483 198.191 30.8825C197.802 30.0166 197.235 29.2441 196.526 28.6167C195.817 27.9893 194.985 27.5212 194.082 27.2438C193.181 26.9662 192.23 26.8857 191.295 27.0075C190.359 27.1295 189.461 27.4507 188.657 27.9501C187.856 28.4496 187.167 29.1157 186.641 29.904C186.114 30.6924 185.76 31.5848 185.602 32.5217C185.445 33.4588 185.487 34.419 185.727 35.3382C184.925 34.7522 184.003 34.3545 183.028 34.1743C182.053 33.9941 181.051 34.0362 180.096 34.2974C179.139 34.5583 178.253 35.0319 177.501 35.6832C176.75 36.3345 176.155 37.1469 175.755 38.0607C175.356 38.9748 175.166 39.967 175.198 40.9649C175.23 41.9628 175.483 42.9408 175.939 43.8274C176.393 44.7138 177.04 45.4862 177.831 46.0878C178.622 46.6896 179.535 47.1053 180.507 47.3043C180.904 48.3636 181.56 49.3043 182.417 50.038C183.271 50.7716 184.299 51.2743 185.399 51.499C186.5 51.7237 187.641 51.663 188.712 51.3227C189.783 50.9822 190.751 50.3732 191.526 49.5527C192.318 50.1553 193.234 50.5711 194.207 50.7695C195.18 50.968 196.184 50.9441 197.146 50.6996C198.109 50.4551 199.004 49.9961 199.767 49.3567C200.531 48.7172 201.141 47.9133 201.555 47.0043C202.815 46.5232 203.899 45.6674 204.665 44.5504C205.43 43.4335 205.84 42.1085 205.84 40.7511Z" fill="white"/>
<path d="M30.6439 24.6769C30.6447 23.7984 30.4738 22.9282 30.1409 22.1163C29.8078 21.3044 29.3193 20.5665 28.703 19.9448C28.0869 19.3232 27.3553 18.83 26.5499 18.4936C25.7446 18.1569 24.8812 17.9836 24.0094 17.9834C23.8621 17.9834 23.7164 17.9834 23.5724 17.9979C23.582 17.8527 23.5868 17.706 23.5868 17.5576C23.5866 16.6073 23.3854 15.6677 22.9965 14.8018C22.6077 13.936 22.0401 13.1636 21.3317 12.5361C20.6232 11.9087 19.7901 11.4406 18.888 11.1632C17.9859 10.8857 17.0355 10.8052 16.1 10.927C15.1647 11.0488 14.2658 11.3701 13.4633 11.8696C12.6609 12.369 11.9733 13.0351 11.4464 13.8234C10.9195 14.6117 10.5655 15.5041 10.4078 16.4411C10.2501 17.3782 10.2925 18.3384 10.5321 19.2576C9.73009 18.6715 8.80799 18.2737 7.8335 18.0937C6.85901 17.9136 5.85686 17.9557 4.90058 18.2166C3.94432 18.4777 3.0582 18.9513 2.30727 19.6026C1.55634 20.2539 0.959641 21.0663 0.56097 21.9802C0.162302 22.8942 -0.0282239 23.8865 0.00337679 24.8844C0.0349774 25.8821 0.287903 26.8602 0.74359 27.7466C1.19928 28.6332 1.84616 29.4057 2.63677 30.0073C3.42739 30.6089 4.34166 31.0247 5.3125 31.2237C5.70926 32.2821 6.36603 33.2218 7.22132 33.9547C8.07662 34.6878 9.10249 35.19 10.2029 35.4147C11.3033 35.6394 12.4423 35.5789 13.5133 35.2392C14.5842 34.8995 15.5521 34.2915 16.3264 33.4721C17.1185 34.0747 18.0347 34.4905 19.0074 34.6889C19.9801 34.8874 20.9847 34.8636 21.947 34.6189C22.9093 34.3744 23.805 33.9155 24.568 33.276C25.331 32.6365 25.942 31.8327 26.3559 30.9237C27.6149 30.4436 28.6993 29.5889 29.4652 28.4732C30.2311 27.3576 30.6422 26.0336 30.6439 24.6769Z" fill="white"/>
<path d="M152.729 119.827H57.252V117.73H152.729C153.005 117.73 153.27 117.841 153.465 118.037C153.66 118.234 153.769 118.501 153.769 118.779C153.769 119.057 153.66 119.324 153.465 119.52C153.27 119.717 153.005 119.827 152.729 119.827Z" fill="#426572"/>
<path d="M52.9814 119.827H47.1439C46.868 119.827 46.6034 119.717 46.4083 119.52C46.2132 119.324 46.1035 119.057 46.1035 118.779C46.1035 118.501 46.2132 118.234 46.4083 118.037C46.6034 117.841 46.868 117.73 47.1439 117.73H52.9814C53.2573 117.73 53.5219 117.841 53.717 118.037C53.9121 118.234 54.0218 118.501 54.0218 118.779C54.0218 119.057 53.9121 119.324 53.717 119.52C53.5219 119.717 53.2573 119.827 52.9814 119.827Z" fill="#426572"/>
<path d="M43.3554 119.827H41.4955C41.2195 119.827 40.955 119.717 40.7598 119.52C40.5647 119.324 40.4551 119.057 40.4551 118.779C40.4551 118.501 40.5647 118.234 40.7598 118.037C40.955 117.841 41.2195 117.73 41.4955 117.73H43.3554C43.6313 117.73 43.8959 117.841 44.091 118.037C44.2862 118.234 44.3958 118.501 44.3958 118.779C44.3958 119.057 44.2862 119.324 44.091 119.52C43.8959 119.717 43.6313 119.827 43.3554 119.827Z" fill="#426572"/>
<path d="M186.207 119.827H156.861V117.73H186.207C186.482 117.73 186.748 117.841 186.943 118.037C187.139 118.234 187.248 118.501 187.248 118.779C187.248 119.057 187.139 119.324 186.943 119.52C186.748 119.717 186.482 119.827 186.207 119.827Z" fill="#426572"/>
<path d="M36.1736 119.827H6.82617V117.73H36.1736C36.4495 117.73 36.7141 117.841 36.9092 118.037C37.1043 118.234 37.214 118.501 37.214 118.779C37.214 119.057 37.1043 119.324 36.9092 119.52C36.7141 119.717 36.4495 119.827 36.1736 119.827Z" fill="#426572"/>
<path d="M113.964 28.1962V118.893H16.4609V28.1962C16.4627 27.7053 16.657 27.235 17.0015 26.8877C17.3461 26.5406 17.8128 26.3448 18.3001 26.343H112.124C112.234 26.343 112.345 26.3533 112.453 26.3737C112.877 26.4522 113.259 26.6775 113.535 27.0103C113.811 27.343 113.963 27.7625 113.964 28.1962Z" fill="white"/>
<path d="M17.9937 35.3027H114.269V28.7866L112.429 26.343H28.1128H18.301L16.7676 28.7866V35.3027H17.9937Z" fill="#E2F2FF"/>
<path d="M115.231 119.861H15.8086V28.1965C15.8094 27.4486 16.1047 26.7316 16.6296 26.2027C17.1542 25.6739 17.8659 25.3763 18.6081 25.3755H112.43C113.172 25.3763 113.884 25.6739 114.409 26.2027C114.933 26.7316 115.229 27.4486 115.23 28.1965L115.231 119.861ZM17.7293 117.925H113.31V28.1965C113.31 27.9618 113.217 27.7368 113.053 27.5708C112.888 27.4048 112.665 27.3115 112.432 27.311H18.6081C18.3752 27.3115 18.1519 27.4048 17.9872 27.5708C17.8225 27.7368 17.7298 27.9618 17.7293 28.1965V117.925Z" fill="#426572"/>
<path d="M22.3667 32.406C23.0439 32.406 23.5928 31.8528 23.5928 31.1705C23.5928 30.4881 23.0439 29.9351 22.3667 29.9351C21.6896 29.9351 21.1406 30.4881 21.1406 31.1705C21.1406 31.8528 21.6896 32.406 22.3667 32.406Z" fill="#CADCE8"/>
<path d="M26.0444 32.406C26.7217 32.406 27.2705 31.8528 27.2705 31.1705C27.2705 30.4881 26.7217 29.9351 26.0444 29.9351C25.3674 29.9351 24.8184 30.4881 24.8184 31.1705C24.8184 31.8528 25.3674 32.406 26.0444 32.406Z" fill="#CADCE8"/>
<path d="M29.7261 32.406C30.4033 32.406 30.9522 31.8528 30.9522 31.1705C30.9522 30.4881 30.4033 29.9351 29.7261 29.9351C29.049 29.9351 28.5 30.4881 28.5 31.1705C28.5 31.8528 29.049 32.406 29.7261 32.406Z" fill="#CADCE8"/>
<path d="M109.477 29.9338H34.9056C34.331 29.9338 33.8652 30.4032 33.8652 30.9822V31.3564C33.8652 31.9355 34.331 32.4048 34.9056 32.4048H109.477C110.052 32.4048 110.517 31.9355 110.517 31.3564V30.9822C110.517 30.4032 110.052 29.9338 109.477 29.9338Z" fill="#CADCE8"/>
<path d="M178.811 10.5849V118.893H81.3125V10.5849C81.3143 10.0939 81.5084 9.62354 81.853 9.27637C82.1975 8.92919 82.6644 8.7334 83.1516 8.73169H176.974C177.084 8.73172 177.195 8.74198 177.303 8.76233C177.726 8.84161 178.108 9.06708 178.384 9.39983C178.659 9.73258 178.81 10.1517 178.811 10.5849Z" fill="white"/>
<path d="M82.8413 17.6914H179.117V11.1752L177.276 8.73169H92.9604H84.682L81.6152 11.1752V17.6914H82.8413Z" fill="#E2F2FF"/>
<path d="M180.071 119.861H80.6562V10.5849C80.6571 9.83698 80.9524 9.11995 81.4771 8.59111C82.0019 8.06225 82.7135 7.76477 83.4557 7.76392H177.278C178.019 7.76648 178.73 8.06471 179.253 8.59338C179.776 9.12205 180.069 9.83809 180.071 10.5849V119.861ZM82.569 117.925H178.15V10.5849C178.15 10.3502 178.057 10.1252 177.892 9.95922C177.728 9.79325 177.505 9.69984 177.271 9.6994H83.4557C83.2229 9.69984 82.9996 9.79325 82.8349 9.95922C82.6702 10.1252 82.5775 10.3502 82.577 10.5849L82.569 117.925Z" fill="#426572"/>
<path d="M87.2144 14.7952C87.8914 14.7952 88.4404 14.242 88.4404 13.5597C88.4404 12.8774 87.8914 12.3242 87.2144 12.3242C86.5371 12.3242 85.9883 12.8774 85.9883 13.5597C85.9883 14.242 86.5371 14.7952 87.2144 14.7952Z" fill="#CADCE8"/>
<path d="M90.8921 14.7952C91.5693 14.7952 92.1182 14.242 92.1182 13.5597C92.1182 12.8774 91.5693 12.3242 90.8921 12.3242C90.215 12.3242 89.666 12.8774 89.666 13.5597C89.666 14.242 90.215 14.7952 90.8921 14.7952Z" fill="#CADCE8"/>
<path d="M94.5737 14.7952C95.2508 14.7952 95.7998 14.242 95.7998 13.5597C95.7998 12.8774 95.2508 12.3242 94.5737 12.3242C93.8965 12.3242 93.3477 12.8774 93.3477 13.5597C93.3477 14.242 93.8965 14.7952 94.5737 14.7952Z" fill="#CADCE8"/>
<path d="M174.325 12.3242H99.7533C99.1787 12.3242 98.7129 12.7936 98.7129 13.3726V13.7468C98.7129 14.3258 99.1787 14.7952 99.7533 14.7952H174.325C174.899 14.7952 175.365 14.3258 175.365 13.7468V13.3726C175.365 12.7936 174.899 12.3242 174.325 12.3242Z" fill="#CADCE8"/>
<path d="M113.409 29.2949H93.3613V52.3127H113.409V29.2949Z" fill="#E8837E"/>
<path d="M162.836 29.2949H115.301V52.3127H162.836V29.2949Z" fill="#E8837E"/>
<path d="M162.836 54.8606H140.393V77.8783H162.836V54.8606Z" fill="#DDE4ED"/>
<path d="M138.5 54.8606H93.6133V77.8783H138.5V54.8606Z" fill="#DDE4ED"/>
<path d="M162.962 80.427H93.6133V103.445H162.962V80.427Z" fill="#DDE4ED"/>
<path d="M41.8225 85.4915H26.2148V87.1044H41.8225V85.4915Z" fill="#DDE4ED"/>
<path d="M41.8225 89.8171H26.2148V91.43H41.8225V89.8171Z" fill="#DDE4ED"/>
<path d="M41.8225 94.1418H26.2148V95.7547H41.8225V94.1418Z" fill="#DDE4ED"/>
<path d="M41.8225 98.4675H26.2148V100.08H41.8225V98.4675Z" fill="#DDE4ED"/>
<path d="M41.8225 102.793H26.2148V104.406H41.8225V102.793Z" fill="#DDE4ED"/>
<path d="M41.8225 107.119H26.2148V108.732H41.8225V107.119Z" fill="#DDE4ED"/>
<path d="M34.3032 73.9107L37.3892 68.5786L42.1702 72.6204V76.3125H28.9043L32.144 71.8044L34.3032 73.9107Z" fill="#DDE4ED"/>
<path d="M48.2758 71.3932H43.6484V65.719L44.5736 64.8254L48.2758 68.6335V71.3932Z" fill="#DDE4ED"/>
<path d="M31.0934 70.929C31.5935 70.9287 32.0821 70.7789 32.4977 70.4987C32.9132 70.2184 33.2368 69.8203 33.4278 69.3545C33.6186 68.8889 33.6682 68.3766 33.5701 67.8826C33.472 67.3885 33.2307 66.9348 32.8767 66.579C32.5226 66.2232 32.0719 65.9813 31.5813 65.8837C31.0909 65.7861 30.5825 65.8372 30.1209 66.0308C29.6593 66.2243 29.265 66.5516 28.988 66.971C28.7109 67.3903 28.5635 67.8832 28.5645 68.3871C28.5678 69.0613 28.8356 69.7068 29.3092 70.1829C29.783 70.6592 30.4244 70.9272 31.0934 70.929Z" fill="#DDE4ED"/>
<path opacity="0.2" d="M143.244 50.9771V117.658H45.7423V50.9771C45.7364 50.4785 45.9264 49.9977 46.271 49.64C46.6156 49.2821 47.0867 49.0763 47.5814 49.0674H141.403C141.899 49.0758 142.37 49.2816 142.715 49.6393C143.06 49.9972 143.25 50.4782 143.244 50.9771Z" fill="#606060"/>
<path d="M139.719 54.1496V118.893H42.2168V54.1496C42.2186 53.6586 42.4127 53.1883 42.7573 52.8411C43.1018 52.494 43.5687 52.2982 44.0559 52.2964H137.878C137.989 52.2964 138.099 52.3067 138.208 52.327C138.631 52.4057 139.014 52.6309 139.29 52.9636C139.565 53.2965 139.717 53.7161 139.719 54.1496Z" fill="white"/>
<path d="M43.7495 61.2544H140.024V54.7382L138.185 52.2947H53.867H43.2901L42.5234 54.7382V61.2544H43.7495Z" fill="#E2F2FF"/>
<path d="M48.1206 58.0498C48.7977 58.0498 49.3467 57.4966 49.3467 56.8143C49.3467 56.1319 48.7977 55.5789 48.1206 55.5789C47.4434 55.5789 46.8945 56.1319 46.8945 56.8143C46.8945 57.4966 47.4434 58.0498 48.1206 58.0498Z" fill="#CADCE8"/>
<path d="M51.8003 58.0498C52.4774 58.0498 53.0264 57.4966 53.0264 56.8143C53.0264 56.1319 52.4774 55.5789 51.8003 55.5789C51.1231 55.5789 50.5742 56.1319 50.5742 56.8143C50.5742 57.4966 51.1231 58.0498 51.8003 58.0498Z" fill="#CADCE8"/>
<path d="M55.48 58.0498C56.157 58.0498 56.7061 57.4966 56.7061 56.8143C56.7061 56.1319 56.157 55.5789 55.48 55.5789C54.8028 55.5789 54.2539 56.1319 54.2539 56.8143C54.2539 57.4966 54.8028 58.0498 55.48 58.0498Z" fill="#CADCE8"/>
<path d="M135.231 55.5789H60.6595C60.0849 55.5789 59.6191 56.0482 59.6191 56.6272V57.0014C59.6191 57.5805 60.0849 58.0498 60.6595 58.0498H135.231C135.806 58.0498 136.271 57.5805 136.271 57.0014V56.6272C136.271 56.0482 135.806 55.5789 135.231 55.5789Z" fill="#CADCE8"/>
<path d="M70.1355 102.519C72.4993 102.519 74.4156 100.588 74.4156 98.206C74.4156 95.824 72.4993 93.8931 70.1355 93.8931C67.7717 93.8931 65.8555 95.824 65.8555 98.206C65.8555 100.588 67.7717 102.519 70.1355 102.519Z" fill="#DDE4ED"/>
<path d="M91.1609 102.519C93.5247 102.519 95.441 100.588 95.441 98.206C95.441 95.824 93.5247 93.8931 91.1609 93.8931C88.7971 93.8931 86.8809 95.824 86.8809 98.206C86.8809 100.588 88.7971 102.519 91.1609 102.519Z" fill="#DDE4ED"/>
<path d="M112.184 102.519C114.548 102.519 116.464 100.588 116.464 98.206C116.464 95.824 114.548 93.8931 112.184 93.8931C109.821 93.8931 107.904 95.824 107.904 98.206C107.904 100.588 109.821 102.519 112.184 102.519Z" fill="#DDE4ED"/>
<path d="M125.497 69.4592H56.825C55.7643 69.4592 54.9043 70.3258 54.9043 71.3947V87.2979C54.9043 88.367 55.7643 89.2334 56.825 89.2334H125.497C126.557 89.2334 127.417 88.367 127.417 87.2979V71.3947C127.417 70.3258 126.557 69.4592 125.497 69.4592Z" fill="#A8EF9E"/>
<path d="M90.1431 107.73H55.4961V109.666H90.1431V107.73Z" fill="#E8EDF7"/>
<path d="M111.146 111.591H55.3438V113.527H111.146V111.591Z" fill="#E8EDF7"/>
<path d="M128.162 107.73H95.0488V109.666H128.162V107.73Z" fill="#E8EDF7"/>
<path opacity="0.3" d="M44.7179 118.738H43.2773V61.9368H139.659V63.3884H44.7179V118.738Z" fill="#C1CEDE"/>
<path d="M139.735 60.2866H42.6328V62.2221H139.735V60.2866Z" fill="#426572"/>
<path d="M140.984 119.861H41.5625V54.1496C41.5633 53.4017 41.8586 52.6847 42.3833 52.1559C42.9081 51.627 43.6198 51.3296 44.362 51.3286H138.184C138.926 51.3296 139.638 51.627 140.163 52.1559C140.687 52.6847 140.983 53.4017 140.984 54.1496V119.861ZM43.4816 117.925H139.063V54.1496C139.062 53.9149 138.97 53.6899 138.805 53.5239C138.64 53.358 138.417 53.2646 138.184 53.2641H44.362C44.1291 53.2646 43.9058 53.358 43.7411 53.5239C43.5764 53.6899 43.4837 53.9149 43.4832 54.1496L43.4816 117.925Z" fill="#426572"/>
<path d="M165.567 107.126H147.784V108.416H165.567V107.126Z" fill="#DDE4ED"/>
</g>
</g>
<defs>
<linearGradient id="paint0_linear_763_2585" x1="0.2117" y1="59.8689" x2="200.814" y2="59.8689" gradientUnits="userSpaceOnUse">
<stop stop-color="#C5E9FA"/>
<stop offset="1" stop-color="#C4F4EA"/>
</linearGradient>
<clipPath id="clip0_763_2585">
<rect width="206" height="120" fill="white"/>
</clipPath>
</defs>
</svg>
