<svg width="234" height="175" viewBox="0 0 234 175" fill="none" xmlns="http://www.w3.org/2000/svg">
<g clip-path="url(#clip0_764_2936)">
<mask id="mask0_764_2936" style="mask-type:luminance" maskUnits="userSpaceOnUse" x="0" y="0" width="234" height="175">
<path d="M233.829 0H0V174.922H233.829V0Z" fill="white"/>
</mask>
<g mask="url(#mask0_764_2936)">
<path d="M152.885 13.3933H9.28795C4.92907 13.3933 1.39551 16.9246 1.39551 21.2808V56.8694C1.39551 61.2254 4.92907 64.7568 9.28795 64.7568H152.885C157.244 64.7568 160.777 61.2254 160.777 56.8694V21.2808C160.777 16.9246 157.244 13.3933 152.885 13.3933Z" fill="white"/>
<path d="M160.778 45.5405V61.6798C160.778 63.3799 157.35 64.7563 153.147 64.7563H9.03598C4.82024 64.7563 1.40527 63.3799 1.40527 61.6798V52.3381C11.1205 54.9102 22.1817 56.6446 33.5265 57.722C47.2362 59.0236 61.3666 59.4035 75.4378 59.4596C92.2633 59.5281 109.369 59.1202 125.207 56.8377C139.721 54.7514 153.178 50.9057 160.778 45.5405Z" fill="#E8F0F9"/>
<path d="M152.736 66.0612H9.13877C6.71633 66.0587 4.39375 65.0962 2.68052 63.3845C0.96729 61.6731 0.00329909 59.3523 0 56.9313V21.3396C0.00329909 18.9187 0.96729 16.5979 2.68052 14.8863C4.39375 13.1748 6.71633 12.2122 9.13877 12.2097H152.736C155.159 12.2122 157.482 13.1752 159.195 14.8875C160.908 16.5997 161.872 18.9213 161.874 21.3427V56.9344C161.87 59.3548 160.906 61.6747 159.193 63.3857C157.48 65.0965 155.158 66.0587 152.736 66.0612ZM9.13877 14.7008C7.37717 14.7025 5.68813 15.4023 4.4422 16.6469C3.19627 17.8915 2.49515 19.5791 2.49268 21.3396V56.9313C2.49433 58.6922 3.19508 60.3808 4.44111 61.6261C5.68713 62.8713 7.37664 63.5716 9.13877 63.5732H152.736C154.498 63.5716 156.187 62.8713 157.433 61.6261C158.679 60.3808 159.38 58.6922 159.382 56.9313V21.3396C159.38 19.5786 158.679 17.8901 157.433 16.6449C156.187 15.3997 154.498 14.6994 152.736 14.6977L9.13877 14.7008Z" fill="#314E5D"/>
<path d="M224.861 93.1086H60.7215C56.3628 93.1086 52.8291 96.6398 52.8291 100.996V136.585C52.8291 140.941 56.3628 144.472 60.7215 144.472H224.861C229.22 144.472 232.754 140.941 232.754 136.585V100.996C232.754 96.6398 229.22 93.1086 224.861 93.1086Z" fill="white"/>
<path d="M232.754 125.256V141.395C232.754 143.095 228.896 144.472 224.138 144.472H61.4444C56.6865 144.472 52.8291 143.095 52.8291 141.395V132.053C63.7969 134.626 76.2852 136.36 89.0913 137.437C104.552 138.739 120.518 139.119 136.405 139.175C155.393 139.243 174.712 138.835 192.59 136.553C208.983 134.467 224.176 130.621 232.754 125.256Z" fill="#E8F0F9"/>
<path d="M117.879 93.2365C100.929 94.2516 77.3729 93.2707 62.7565 97.0043C55.8175 98.773 54.1069 102.204 52.9883 105.041L53.0101 97.0977C53.0101 96.0795 53.1067 94.9709 54.9482 94.1925C57.2258 93.2334 61.2235 93.1586 64.7444 93.1618C82.0311 93.168 100.935 92.4829 117.879 93.2365Z" fill="#4ED9FF"/>
<path d="M224.693 145.776H60.5499C58.1273 145.773 55.8048 144.811 54.0917 143.099C52.3783 141.388 51.4146 139.067 51.4111 136.646V101.054C51.4136 98.633 52.3774 96.3113 54.0904 94.5993C55.8039 92.887 58.127 91.9239 60.5499 91.9214H224.693C227.116 91.9239 229.439 92.887 231.152 94.5993C232.865 96.3113 233.829 98.633 233.831 101.054V136.646C233.828 139.067 232.864 141.388 231.151 143.099C229.438 144.811 227.115 145.773 224.693 145.776ZM60.5499 94.4156C58.7882 94.4172 57.0994 95.1172 55.8534 96.3618C54.6074 97.6064 53.9063 99.2938 53.9038 101.054V136.646C53.9054 138.407 54.6061 140.096 55.8521 141.341C57.0982 142.586 58.7879 143.286 60.5499 143.288H224.693C226.455 143.286 228.144 142.586 229.39 141.341C230.636 140.096 231.337 138.407 231.339 136.646V101.054C231.337 99.2935 230.636 97.6048 229.39 96.3596C228.144 95.1144 226.455 94.4144 224.693 94.4125L60.5499 94.4156Z" fill="#314E5D"/>
<path d="M202.047 1.05225H37.9296C33.5708 1.05225 30.0371 4.58357 30.0371 8.9397V155.351C30.0371 159.707 33.5708 163.239 37.9296 163.239H202.047C206.406 163.239 209.94 159.707 209.94 155.351V8.9397C209.94 4.58357 206.406 1.05225 202.047 1.05225Z" fill="#1DCDFF"/>
<path d="M209.94 102.565V153.514C209.94 158.879 206.082 163.226 201.324 163.226H38.6368C33.8789 163.226 30.0215 158.867 30.0215 153.514V124.05C40.9892 132.171 53.4744 137.652 66.2774 141.055C81.7383 145.169 97.7007 146.371 113.585 146.545C132.573 146.76 151.885 145.471 169.764 138.262C186.172 131.655 201.365 119.504 209.94 102.565Z" fill="#1AB5E1"/>
<path d="M95.0805 1.4603C78.1334 4.6707 54.5932 1.5724 39.9643 13.3553C33.0284 18.9416 31.3178 29.7748 30.1992 38.7333L30.2241 13.6574C30.2241 10.4469 30.3207 6.93761 32.1622 4.48698C34.4399 1.4603 38.4375 1.22675 41.9553 1.22675C59.2358 1.24544 78.1365 -0.878228 95.0805 1.4603Z" fill="#4ED9FF"/>
<path d="M201.879 164.677H37.7579C35.335 164.675 33.0118 163.712 31.2984 162C29.5852 160.288 28.6216 157.966 28.6191 155.544V9.13301C28.6216 6.71153 29.5852 4.38998 31.2984 2.67773C33.0118 0.965492 35.335 0.00247299 37.7579 0H201.879C204.302 0.00247299 206.625 0.965492 208.338 2.67773C210.052 4.38998 211.015 6.71153 211.018 9.13301V155.548C211.014 157.969 210.05 160.289 208.337 162.001C206.624 163.713 204.301 164.675 201.879 164.677ZM37.7579 2.4911C35.9959 2.49275 34.3062 3.19307 33.0601 4.43831C31.8141 5.68355 31.1135 7.37198 31.1118 9.13301V155.548C31.1135 157.309 31.8141 158.997 33.0601 160.242C34.3062 161.488 35.9959 162.188 37.7579 162.19H201.879C203.641 162.188 205.331 161.488 206.577 160.242C207.823 158.997 208.523 157.309 208.525 155.548V9.13301C208.523 7.37198 207.823 5.68355 206.577 4.43831C205.331 3.19307 203.641 2.49275 201.879 2.4911H37.7579Z" fill="#314E5D"/>
<path d="M189.434 11.5093H51.2708C48.5417 11.5093 46.3291 13.7204 46.3291 16.4479V146.219C46.3291 148.946 48.5417 151.157 51.2708 151.157H189.434C192.163 151.157 194.375 148.946 194.375 146.219V16.4479C194.375 13.7204 192.163 11.5093 189.434 11.5093Z" fill="white"/>
<path d="M194.139 15.4692V42.5848H46.083V15.4692C46.083 13.3891 48.2018 11.7014 50.816 11.7014H189.406C192.02 11.7014 194.139 13.3891 194.139 15.4692Z" fill="#DCEAEF"/>
<path d="M189.257 153.178H51.1002C49.4594 153.177 47.8865 152.525 46.7265 151.365C45.5661 150.206 44.9137 148.634 44.9121 146.994V16.2111C44.9146 14.572 45.5674 13.0008 46.7274 11.8421C47.8874 10.6833 49.46 10.0317 51.1002 10.03H189.257C190.897 10.0317 192.47 10.6838 193.63 11.8431C194.791 13.0026 195.443 14.5746 195.445 16.2142V146.997C195.442 148.636 194.79 150.208 193.63 151.366C192.47 152.525 190.897 153.177 189.257 153.178ZM51.1002 12.5211C50.1206 12.5228 49.1814 12.9124 48.4888 13.6046C47.7961 14.2969 47.4063 15.2353 47.4048 16.2142V146.997C47.4073 147.976 47.7974 148.913 48.49 149.605C49.1827 150.296 50.1212 150.686 51.1002 150.687H189.257C190.236 150.686 191.175 150.296 191.868 149.603C192.561 148.911 192.951 147.973 192.952 146.994V16.2111C192.95 15.2327 192.56 14.2951 191.867 13.6035C191.174 12.912 190.236 12.5228 189.257 12.5211H51.1002Z" fill="#314E5D"/>
<path d="M125.755 29.7656H62.7871V35.2025H125.755V29.7656Z" fill="white"/>
<path d="M60.8242 55.9658H91.6306V54.6736H60.8242V55.9658Z" fill="#CED5D8"/>
<path d="M60.8242 58.812H127.874V57.5198H60.8242V58.812Z" fill="#CED5D8"/>
<path d="M60.8242 61.6585H91.6306V60.3662H60.8242V61.6585Z" fill="#CED5D8"/>
<path d="M60.8242 64.5034H127.874V63.2112H60.8242V64.5034Z" fill="#CED5D8"/>
<path d="M60.8242 67.3499H91.6306V66.0576H60.8242V67.3499Z" fill="#CED5D8"/>
<path d="M60.8242 70.1936H127.874V68.9014H60.8242V70.1936Z" fill="#CED5D8"/>
<path d="M60.8242 81.6834H91.6306V80.3911H60.8242V81.6834Z" fill="#CED5D8"/>
<path d="M60.8242 84.5296H127.874V83.2373H60.8242V84.5296Z" fill="#CED5D8"/>
<path d="M60.8242 87.376H91.6306V86.0837H60.8242V87.376Z" fill="#CED5D8"/>
<path d="M60.8242 90.221H127.874V88.9287H60.8242V90.221Z" fill="#CED5D8"/>
<path d="M60.8242 93.0674H91.6306V91.7751H60.8242V93.0674Z" fill="#CED5D8"/>
<path d="M60.8242 95.9112H127.874V94.6189H60.8242V95.9112Z" fill="#CED5D8"/>
<path d="M60.8242 107.401H91.6306V106.109H60.8242V107.401Z" fill="#CED5D8"/>
<path d="M60.8242 110.247H127.874V108.955H60.8242V110.247Z" fill="#CED5D8"/>
<path d="M60.8242 113.093H91.6306V111.801H60.8242V113.093Z" fill="#CED5D8"/>
<path d="M60.8242 115.938H127.874V114.646H60.8242V115.938Z" fill="#CED5D8"/>
<path d="M60.8242 118.785H91.6306V117.493H60.8242V118.785Z" fill="#CED5D8"/>
<path d="M60.8242 121.629H127.874V120.336H60.8242V121.629Z" fill="#CED5D8"/>
<path d="M164.815 20.216H187.941V17.4976H164.815V20.216Z" fill="#EEA248"/>
<path d="M138.499 20.216H161.625V17.4976H138.499V20.216Z" fill="#EEA248"/>
<path d="M53.4399 21.4762C54.8888 21.4762 56.0635 20.3023 56.0635 18.8543C56.0635 17.4063 54.8888 16.2324 53.4399 16.2324C51.9911 16.2324 50.8164 17.4063 50.8164 18.8543C50.8164 20.3023 51.9911 21.4762 53.4399 21.4762Z" fill="#EEA248"/>
<path d="M146.191 117.156L137.825 125.084L154.799 142.972L163.165 135.045L146.191 117.156Z" fill="#314E5D"/>
<g opacity="0.5">
<path opacity="0.5" d="M138.933 117.439C149.835 107.108 150.292 89.8996 139.953 79.0045C129.615 68.1093 112.396 67.6525 101.494 77.9844C90.5919 88.3165 90.1348 105.524 100.473 116.42C110.812 127.315 128.031 127.771 138.933 117.439Z" fill="#8BDDEB"/>
<path opacity="0.5" d="M105.876 113.423C103.125 110.525 101.047 107.057 99.7901 103.265C98.5331 99.4729 98.1281 95.4504 98.6042 91.4842C99.0803 87.5181 100.425 83.7058 102.544 80.3182C104.663 76.9309 107.503 74.0521 110.862 71.8867C107.267 73.203 103.992 75.2625 101.249 77.9304C98.5054 80.5984 96.3564 83.8147 94.9424 87.3695C93.5282 90.9244 92.8804 94.7373 93.0418 98.5593C93.2029 102.381 94.1694 106.126 95.8781 109.549C97.5865 112.972 99.9988 115.997 102.957 118.425C105.915 120.852 109.353 122.629 113.045 123.638C116.737 124.647 120.601 124.867 124.383 124.281C128.166 123.696 131.783 122.32 134.997 120.242C130.007 122.072 124.59 122.402 119.415 121.19C114.239 119.978 109.533 117.278 105.876 113.423Z" fill="#62D6F8"/>
</g>
<path d="M149.903 68.6863C146.939 65.5547 143.507 62.9004 139.73 60.8176C139.665 60.7771 139.599 60.7428 139.528 60.7086C130.796 55.9565 120.658 54.4627 110.925 56.4939C101.193 58.5254 92.5005 63.9495 86.4019 71.7971C80.3032 79.6444 77.1961 89.4036 77.6357 99.3303C78.0754 109.257 82.0331 118.703 88.8017 125.982C88.8983 126.091 88.998 126.197 89.1133 126.293C92.2082 129.563 95.812 132.31 99.785 134.43L99.8972 134.489C108.677 139.13 118.822 140.503 128.521 138.362C138.22 136.221 146.842 130.706 152.85 122.801C158.857 114.896 161.859 105.115 161.319 95.2029C160.78 85.2911 156.734 75.8934 149.903 68.6863ZM139.655 79.0057C143.358 82.9074 145.82 87.8186 146.729 93.1181C147.639 98.4179 146.955 103.868 144.766 108.78C142.576 113.692 138.978 117.844 134.426 120.712C129.875 123.58 124.575 125.034 119.196 124.892C113.817 124.75 108.602 123.017 104.209 119.912C99.8156 116.807 96.4427 112.47 94.5158 107.449C92.5893 102.429 92.1955 96.9501 93.3848 91.706C94.5738 86.4616 97.2924 81.6877 101.197 77.9875C103.789 75.5306 106.84 73.6081 110.175 72.3296C113.511 71.0513 117.066 70.4422 120.638 70.5369C124.209 70.6319 127.727 71.4287 130.99 72.8823C134.253 74.3361 137.197 76.4178 139.655 79.0088V79.0057Z" fill="#E7E7E7"/>
<path d="M152.841 121.884C145.727 128.626 136.473 132.662 126.688 133.288C116.904 133.914 107.21 131.091 99.2935 125.31C91.3774 119.53 85.7405 111.157 83.3644 101.651C80.9886 92.1452 82.0237 82.1076 86.2899 73.2856C82.8413 77.977 80.409 83.3357 79.149 89.0191C77.8892 94.7029 77.8288 100.587 78.9723 106.295C80.1155 112.003 82.4371 117.41 85.7892 122.171C89.1412 126.932 93.4498 130.942 98.4398 133.946C103.43 136.949 108.992 138.88 114.77 139.614C120.549 140.348 126.417 139.871 132 138.211C137.584 136.552 142.76 133.747 147.197 129.976C151.635 126.205 155.237 121.55 157.774 116.31C156.297 118.31 154.647 120.175 152.841 121.884Z" fill="#CED0D0"/>
<path d="M119.854 140.831C112.681 140.835 105.622 139.038 99.324 135.606L99.1682 135.522C90.022 130.493 83.002 122.331 79.4013 112.539C79.3203 112.327 79.2424 112.106 79.1707 111.878C76.3266 103.7 76.0116 94.8549 78.2674 86.4951C80.523 78.1352 85.2447 70.6479 91.8179 65.0071C98.3911 59.3663 106.511 55.8339 115.121 54.8696C123.731 53.9049 132.432 55.5531 140.092 59.5995C140.176 59.64 140.26 59.6867 140.341 59.7334C148.404 64.0655 154.88 70.8481 158.83 79.1008C162.782 87.3532 164.004 96.6482 162.32 105.641C160.637 114.633 156.135 122.858 149.465 129.124C142.796 135.391 134.305 139.375 125.22 140.501C123.44 140.72 121.648 140.831 119.854 140.831ZM119.926 57.068C113.437 57.0701 107.043 58.624 101.277 61.5996C95.5115 64.5752 90.542 68.8861 86.7834 74.1725C83.025 79.4589 80.5866 85.5674 79.6721 91.9876C78.7576 98.4078 79.3932 104.953 81.5263 111.078V111.116C81.5855 111.302 81.654 111.489 81.7226 111.673C85.1154 120.91 91.7369 128.608 100.365 133.349L100.474 133.408C108.98 138.058 118.87 139.516 128.357 137.519C137.845 135.522 146.306 130.201 152.213 122.517C158.119 114.833 161.083 105.292 160.569 95.6159C160.055 85.9398 156.096 76.766 149.408 69.7508C146.429 66.602 142.962 63.9527 139.141 61.9038L139.095 61.8758L138.995 61.8229L138.948 61.7979C133.089 58.6934 126.558 57.0726 119.926 57.0773V57.068ZM119.926 126.137C119.667 126.137 119.412 126.137 119.153 126.137C111.651 126.035 104.494 122.972 99.2424 117.616C93.9912 112.26 91.0726 105.046 91.1237 97.5478C91.1748 90.0495 94.191 82.8758 99.5147 77.5918C104.838 72.3079 112.037 69.3422 119.54 69.3422C127.043 69.3422 134.241 72.3079 139.565 77.5918C144.888 82.8758 147.904 90.0495 147.955 97.5478C148.007 105.046 145.088 112.26 139.837 117.616C134.586 122.972 127.428 126.035 119.926 126.137ZM119.892 71.7624C113.248 71.7487 106.855 74.2986 102.047 78.8807C97.6904 83.01 94.9011 88.5213 94.1545 94.4756C93.4079 100.43 94.75 106.459 97.9524 111.535C101.155 116.611 106.02 120.42 111.718 122.314C117.415 124.208 123.594 124.069 129.201 121.92C134.807 119.772 139.495 115.747 142.465 110.532C145.435 105.317 146.504 99.2333 145.49 93.3188C144.475 87.404 141.44 82.0241 136.902 78.0951C132.363 74.166 126.602 71.9314 120.599 71.7717C120.368 71.7717 120.136 71.7717 119.901 71.7717L119.892 71.7624Z" fill="#314E5D"/>
<path d="M152.876 131.847L152.874 131.849C149.323 135.214 149.174 140.819 152.542 144.368L177.736 170.919C181.104 174.468 186.713 174.617 190.264 171.252L190.266 171.25C193.817 167.884 193.966 162.279 190.598 158.73L165.404 132.179C162.036 128.63 156.428 128.481 152.876 131.847Z" fill="#426372"/>
<path d="M183.801 174.923H183.523C182.197 174.893 180.889 174.6 179.676 174.062C178.463 173.524 177.369 172.75 176.457 171.787L151.265 145.232C150.351 144.269 149.637 143.136 149.161 141.897C148.686 140.659 148.46 139.338 148.495 138.012C148.53 136.686 148.826 135.38 149.366 134.168C149.907 132.956 150.681 131.863 151.644 130.95C152.607 130.037 153.741 129.323 154.98 128.847C156.22 128.373 157.54 128.146 158.867 128.181C160.194 128.216 161.502 128.512 162.714 129.052C163.927 129.592 165.021 130.365 165.934 131.328L191.129 157.874C192.968 159.821 193.959 162.416 193.888 165.092C193.817 167.768 192.688 170.307 190.749 172.154C188.877 173.938 186.388 174.93 183.801 174.923ZM158.597 130.674C157.109 130.678 155.656 131.116 154.415 131.935C153.174 132.754 152.2 133.918 151.612 135.283C151.025 136.649 150.851 138.156 151.11 139.619C151.369 141.082 152.051 142.438 153.072 143.519L178.264 170.068C179.657 171.527 181.572 172.375 183.589 172.429C185.606 172.483 187.563 171.737 189.032 170.354C190.492 168.962 191.341 167.049 191.395 165.033C191.449 163.017 190.702 161.061 189.319 159.593L164.127 133.044C163.416 132.293 162.558 131.696 161.607 131.288C160.656 130.881 159.631 130.672 158.597 130.674Z" fill="#314E5D"/>
<g opacity="0.5">
<path opacity="0.5" d="M161.37 135.167C164.486 137.783 166.894 141.037 169.804 143.852C170.671 144.689 171.985 143.369 171.125 142.531C168.215 139.729 165.807 136.462 162.691 133.847C161.775 133.078 160.447 134.392 161.37 135.167Z" fill="white"/>
<path opacity="0.5" d="M155.992 134.579C156.491 134.27 157.052 134.074 157.635 134.007C158.219 133.939 158.81 134 159.367 134.186C160.523 134.523 161.018 132.72 159.865 132.384C159.067 132.132 158.225 132.053 157.394 132.153C156.563 132.253 155.763 132.529 155.048 132.963C154.017 133.586 154.955 135.195 155.983 134.576L155.992 134.579Z" fill="white"/>
</g>
<path d="M130.258 63.5696C135.228 65.0798 139.902 67.4962 143.784 70.9433C148.713 75.3027 152.066 81.026 154.116 87.2413C154.49 88.3779 156.297 87.8921 155.92 86.7431C153.773 80.2351 150.271 74.1973 145.108 69.6168C140.97 65.9486 136.029 63.389 130.76 61.7636C129.607 61.4117 129.115 63.2146 130.261 63.5665L130.258 63.5696Z" fill="white"/>
<path d="M112.102 61.8357C115.352 61.406 118.72 61.5648 121.966 61.8948C123.163 62.0163 123.154 60.148 121.966 60.0265C118.72 59.6964 115.352 59.5376 112.102 59.9674C110.927 60.123 110.911 61.9945 112.102 61.8357Z" fill="white"/>
</g>
</g>
<defs>
<clipPath id="clip0_764_2936">
<rect width="234" height="175" fill="white"/>
</clipPath>
</defs>
</svg>
