<svg width="115" height="114" viewBox="0 0 115 114" fill="none" xmlns="http://www.w3.org/2000/svg">
<mask id="mask0_477_1715" style="mask-type:alpha" maskUnits="userSpaceOnUse" x="0" y="0" width="115" height="114">
<rect x="0.5" width="114" height="114" fill="#D9D9D9"/>
</mask>
<g mask="url(#mask0_477_1715)">
<path d="M24.25 38V90.25H90.75V38H76.5V76L57.5 66.5L38.5 76V38H24.25ZM24.25 99.75C21.6375 99.75 19.401 98.8198 17.5406 96.9594C15.6802 95.099 14.75 92.8625 14.75 90.25V30.9937C14.75 29.8854 14.9281 28.8167 15.2844 27.7875C15.6406 26.7583 16.175 25.8083 16.8875 24.9375L22.825 17.6938C23.6958 16.5854 24.7844 15.7344 26.0906 15.1406C27.3969 14.5469 28.7625 14.25 30.1875 14.25H84.8125C86.2375 14.25 87.6031 14.5469 88.9094 15.1406C90.2156 15.7344 91.3042 16.5854 92.175 17.6938L98.1125 24.9375C98.825 25.8083 99.3594 26.7583 99.7156 27.7875C100.072 28.8167 100.25 29.8854 100.25 30.9937V90.25C100.25 92.8625 99.3198 95.099 97.4594 96.9594C95.599 98.8198 93.3625 99.75 90.75 99.75H24.25ZM26.15 28.5H88.85L84.8125 23.75H30.1875L26.15 28.5ZM48 38V60.5625L57.5 55.8125L67 60.5625V38H48Z" fill="#00337C"/>
</g>
</svg>
