<svg width="195" height="198" viewBox="0 0 195 198" fill="none" xmlns="http://www.w3.org/2000/svg">
<g opacity="0.3">
<path d="M185.744 25.0928H141.05V83.7901H185.744V25.0928Z" stroke="#1A1A1A" stroke-miterlimit="10"/>
<path d="M177.543 35.8633H149.251V73.0205H177.543V35.8633Z" stroke="#1A1A1A" stroke-miterlimit="10"/>
</g>
<path d="M130.579 18.5146H12.2473V123.846H130.579V18.5146Z" fill="#263238" stroke="#263238" stroke-miterlimit="10"/>
<path d="M128.336 15.9502H10.0039V121.282H128.336V15.9502Z" fill="white" stroke="#263238" stroke-linecap="round" stroke-linejoin="round"/>
<path d="M105.294 58.458H111.178V52.574H105.294V58.458Z" fill="white" stroke="#263238" stroke-linecap="round" stroke-linejoin="round"/>
<path d="M112.997 58.458H118.881V52.574H112.997V58.458Z" fill="white" stroke="#263238" stroke-linecap="round" stroke-linejoin="round"/>
<path d="M102.942 55.8711H73.0491" stroke="#263238" stroke-linecap="round" stroke-linejoin="round"/>
<path d="M105.294 72.3477H111.178V66.4636H105.294V72.3477Z" fill="white" stroke="#263238" stroke-linecap="round" stroke-linejoin="round"/>
<path d="M112.997 72.3477H118.881V66.4636H112.997V72.3477Z" fill="white" stroke="#263238" stroke-linecap="round" stroke-linejoin="round"/>
<path d="M102.942 69.7568H73.0491" stroke="#263238" stroke-linecap="round" stroke-linejoin="round"/>
<path d="M105.294 86.2373H111.178V80.3533H105.294V86.2373Z" fill="white" stroke="#263238" stroke-linecap="round" stroke-linejoin="round"/>
<path d="M112.997 86.2373H118.881V80.3533H112.997V86.2373Z" fill="white" stroke="#263238" stroke-linecap="round" stroke-linejoin="round"/>
<path d="M102.942 83.6475H73.0491" stroke="#263238" stroke-linecap="round" stroke-linejoin="round"/>
<path d="M49.04 58.458H54.9241V52.574H49.04V58.458Z" fill="white" stroke="#263238" stroke-linecap="round" stroke-linejoin="round"/>
<path d="M56.7466 58.458H62.6306V52.574H56.7466V58.458Z" fill="white" stroke="#263238" stroke-linecap="round" stroke-linejoin="round"/>
<path d="M46.6882 55.8711H16.7949" stroke="#263238" stroke-linecap="round" stroke-linejoin="round"/>
<path d="M49.04 72.3477H54.9241V66.4636H49.04V72.3477Z" fill="white" stroke="#263238" stroke-linecap="round" stroke-linejoin="round"/>
<path d="M56.7466 72.3477H62.6306V66.4636H56.7466V72.3477Z" fill="white" stroke="#263238" stroke-linecap="round" stroke-linejoin="round"/>
<path d="M46.6882 69.7568H16.7949" stroke="#263238" stroke-linecap="round" stroke-linejoin="round"/>
<path d="M49.04 86.2373H54.9241V80.3533H49.04V86.2373Z" fill="white" stroke="#263238" stroke-linecap="round" stroke-linejoin="round"/>
<path d="M56.7466 86.2373H62.6306V80.3533H56.7466V86.2373Z" fill="white" stroke="#263238" stroke-linecap="round" stroke-linejoin="round"/>
<path d="M46.6882 83.6475H16.7949" stroke="#263238" stroke-linecap="round" stroke-linejoin="round"/>
<path d="M25.135 106.468H18.6521V112.951H25.135V106.468Z" fill="white" stroke="#263238" stroke-linecap="round" stroke-linejoin="round"/>
<path d="M51.5915 106.468H45.1086V112.951H51.5915V106.468Z" fill="white" stroke="#263238" stroke-linecap="round" stroke-linejoin="round"/>
<path d="M79.0981 106.468H72.6152V112.951H79.0981V106.468Z" fill="white" stroke="#263238" stroke-linecap="round" stroke-linejoin="round"/>
<path d="M58.6775 54.5435L59.6799 56.557L64.5355 51.8662" stroke="#263238" stroke-width="2" stroke-linecap="round" stroke-linejoin="round"/>
<path d="M58.6775 68.2774L59.6799 70.2865L64.5355 65.5957" stroke="#263238" stroke-width="2" stroke-linecap="round" stroke-linejoin="round"/>
<path d="M50.3027 82.6797L51.3094 84.6888L56.1651 79.998" stroke="#263238" stroke-width="2" stroke-linecap="round" stroke-linejoin="round"/>
<path d="M114.606 54.3789L115.609 56.388L120.464 51.6973" stroke="#263238" stroke-width="2" stroke-linecap="round" stroke-linejoin="round"/>
<path d="M106.5 68.442L107.503 70.4511L112.359 65.7646" stroke="#263238" stroke-width="2" stroke-linecap="round" stroke-linejoin="round"/>
<path d="M106.5 82.5533L107.503 84.5624L112.359 79.876" stroke="#263238" stroke-width="2" stroke-linecap="round" stroke-linejoin="round"/>
<path d="M128.336 15.9502H10.0039V32.4047H128.336V15.9502Z" fill="#959595" stroke="#263238" stroke-linecap="round" stroke-linejoin="round"/>
<path d="M128.336 15.9502H123.879V121.282H128.336V15.9502Z" fill="#DBDBDB" stroke="#263238" stroke-linecap="round" stroke-linejoin="round"/>
<path d="M128.336 31.7803H123.879V52.1098H128.336V31.7803Z" fill="#949494" stroke="#263238" stroke-linecap="round" stroke-linejoin="round"/>
<path d="M128.336 15.9502H10.0039V23.9518H128.336V15.9502Z" fill="#DBDBDB" stroke="#263238" stroke-linecap="round" stroke-linejoin="round"/>
<path d="M62.6696 18.2803H16.0051V21.6128H62.6696V18.2803Z" fill="white" stroke="#263238" stroke-linecap="round" stroke-linejoin="round"/>
<path d="M121.35 18.4365H125.446" stroke="#263238" stroke-linecap="round" stroke-linejoin="round"/>
<path d="M121.35 20.168H125.446" stroke="#263238" stroke-linecap="round" stroke-linejoin="round"/>
<path d="M121.35 21.9033H125.446" stroke="#263238" stroke-linecap="round" stroke-linejoin="round"/>
<path d="M51.3398 39.0615C51.3398 38.0331 51.8823 37.4473 52.8716 37.4473C53.861 37.4473 54.399 38.0331 54.399 39.0615V42.394C54.399 43.4181 53.861 44.0039 52.8716 44.0039C51.8823 44.0039 51.3398 43.4181 51.3398 42.394V39.0615ZM52.3509 42.4591C52.3509 42.9147 52.5505 43.0883 52.8716 43.0883C53.1927 43.0883 53.3923 42.9147 53.3923 42.4591V38.9877C53.3923 38.5277 53.1927 38.3542 52.8716 38.3542C52.5505 38.3542 52.3509 38.5277 52.3509 38.9877V42.4591Z" fill="#263238"/>
<path d="M55.9482 39.2909V43.9296H55.0413V37.5205H56.304L57.3411 41.3564V37.5205H58.2393V43.9296H57.2022L55.9482 39.2909Z" fill="#263238"/>
<path d="M58.9595 37.5205H59.9705V43.014H61.6411V43.9296H58.9725L58.9595 37.5205Z" fill="#263238"/>
<path d="M62.0752 37.5205H63.0819V43.9296H62.0752V37.5205Z" fill="#263238"/>
<path d="M64.7047 39.2909V43.9296H63.8108V37.5205H65.0735L66.1106 41.3564V37.5205H67.0045V43.9296H65.9804L64.7047 39.2909Z" fill="#263238"/>
<path d="M68.723 40.2239H70.1072V41.1395H68.723V43.014H70.4587V43.9296H67.7163V37.5205H70.4631V38.4361H68.7274L68.723 40.2239Z" fill="#263238"/>
<path d="M72.2161 37.5205H75.3273V38.4361H74.2729V43.9296H73.2662V38.4361H72.2161V37.5205Z" fill="#263238"/>
<path d="M76.7767 40.2239H78.1566V41.1395H76.7767V43.014H78.5124V43.9296H75.7656V37.5205H78.5124V38.4361H76.7767V40.2239Z" fill="#263238"/>
<path d="M80.491 37.4473C81.4717 37.4473 81.975 38.0331 81.975 39.0615V39.2611H81.0247V38.9964C81.0247 38.5364 80.8425 38.3629 80.5214 38.3629C80.2003 38.3629 80.018 38.5364 80.018 38.9964C80.018 40.2982 81.9837 40.5629 81.9837 42.394C81.9837 43.4181 81.4717 44.0039 80.4823 44.0039C79.493 44.0039 78.9983 43.4181 78.9983 42.394V41.9992H79.9529V42.4591C79.9529 42.9147 80.1525 43.0796 80.4736 43.0796C80.7947 43.0796 80.9944 42.9147 80.9944 42.4591C80.9944 41.1573 79.0287 40.8926 79.0287 39.0615C78.9983 38.0331 79.5147 37.4473 80.491 37.4473Z" fill="#263238"/>
<path d="M82.27 37.5205H85.3813V38.4361H84.3312V43.9296H83.3375V38.4361H82.283L82.27 37.5205Z" fill="#263238"/>
<path d="M23.6987 104.905H22.679L22.5054 103.742H21.2861L21.1125 104.905H20.1709L21.195 98.4961H22.6703L23.6987 104.905ZM21.3989 102.87H22.3709L21.8849 99.6286L21.3989 102.87Z" fill="#263238"/>
<path d="M49.73 99.9584V100.184C49.73 100.844 49.5304 101.265 49.0791 101.486C49.6215 101.694 49.8298 102.18 49.8298 102.857V103.382C49.8298 104.371 49.309 104.901 48.3023 104.901H46.7185V98.4961H48.2373C49.283 98.4961 49.73 98.9821 49.73 99.9584ZM47.7252 99.3987V101.091H48.1201C48.4933 101.091 48.7232 100.926 48.7232 100.414V100.058C48.7232 99.5983 48.567 99.3987 48.2112 99.3987H47.7252ZM47.7252 102.002V103.972H48.3023C48.6408 103.972 48.8231 103.816 48.8231 103.339V102.783C48.8231 102.184 48.6321 102.002 48.1765 102.002H47.7252Z" fill="#263238"/>
<path d="M77.4969 102.514V103.382C77.4969 104.41 76.9849 104.996 75.9955 104.996C75.0062 104.996 74.4941 104.41 74.4941 103.382V100.049C74.4941 99.0253 75.0062 98.4395 75.9955 98.4395C76.9849 98.4395 77.4969 99.0253 77.4969 100.049V100.674H76.5466V99.9582C76.5466 99.4982 76.3427 99.3247 76.0216 99.3247C75.7005 99.3247 75.5009 99.4982 75.5009 99.9582V103.43C75.5009 103.89 75.7048 104.054 76.0216 104.054C76.3383 104.054 76.5466 103.89 76.5466 103.43V102.514H77.4969Z" fill="#263238"/>
<path d="M17.2505 95.0811H94.1641" stroke="#263238" stroke-linecap="round" stroke-linejoin="round"/>
<path opacity="0.3" d="M143.58 16.4668H152.072V7.97484L143.58 7.97484V16.4668Z" stroke="#1A1A1A" stroke-linecap="round" stroke-linejoin="round"/>
<path opacity="0.3" d="M154.701 16.4668H163.193V7.97484L154.701 7.97484V16.4668Z" stroke="#1A1A1A" stroke-linecap="round" stroke-linejoin="round"/>
<path opacity="0.3" d="M145.406 11.3331L146.856 14.2318L151.117 9.54102" stroke="#1A1A1A" stroke-width="2" stroke-linecap="round" stroke-linejoin="round"/>
<path opacity="0.3" d="M15.0288 141.056H23.5208V132.564H15.0288L15.0288 141.056Z" stroke="#1A1A1A" stroke-linecap="round" stroke-linejoin="round"/>
<path opacity="0.3" d="M26.146 141.056H34.6379V132.564H26.146V141.056Z" stroke="#1A1A1A" stroke-linecap="round" stroke-linejoin="round"/>
<path opacity="0.3" d="M16.8469 135.922L18.2962 138.821L22.5574 134.13" stroke="#1A1A1A" stroke-width="2" stroke-linecap="round" stroke-linejoin="round"/>
<path opacity="0.3" d="M55.2583 141.056H63.7502V132.564H55.2583V141.056Z" stroke="#1A1A1A" stroke-linecap="round" stroke-linejoin="round"/>
<path opacity="0.3" d="M66.3796 141.056H74.8716V132.564H66.3796V141.056Z" stroke="#1A1A1A" stroke-linecap="round" stroke-linejoin="round"/>
<path opacity="0.3" d="M57.0806 135.922L58.5299 138.821L62.791 134.13" stroke="#1A1A1A" stroke-width="2" stroke-linecap="round" stroke-linejoin="round"/>
<g opacity="0.3">
<path d="M68.4281 12.2222C71.3996 11.742 73.4192 8.94385 72.939 5.97239C72.4588 3.00092 69.6606 0.981352 66.6892 1.46156C63.7177 1.94177 61.6981 4.73991 62.1783 7.71137C62.6585 10.6828 65.4567 12.7024 68.4281 12.2222Z" stroke="#1A1A1A" stroke-linecap="round" stroke-linejoin="round"/>
<path d="M69.0831 8.81187L67.5601 6.84184V3.73926" stroke="#1A1A1A" stroke-linecap="round" stroke-linejoin="round"/>
</g>
<g opacity="0.3">
<path d="M169.29 111.379H168.483L168.344 110.459H167.363L167.225 111.379H166.491L167.307 106.298H168.474L169.29 111.379ZM167.468 109.769H168.236L167.849 107.196L167.468 109.769Z" fill="#1A1A1A"/>
<path d="M180.654 107.465V107.647C180.685 107.85 180.652 108.057 180.561 108.241C180.469 108.424 180.323 108.574 180.142 108.671C180.346 108.764 180.514 108.92 180.621 109.117C180.729 109.313 180.769 109.539 180.737 109.761V110.195C180.757 110.358 180.739 110.524 180.685 110.68C180.631 110.836 180.542 110.978 180.424 111.094C180.307 111.21 180.165 111.297 180.008 111.35C179.852 111.402 179.685 111.418 179.522 111.396H178.268V106.298H179.474C180.299 106.298 180.654 106.68 180.654 107.465ZM179.066 107.031V108.376H179.379C179.674 108.376 179.856 108.246 179.856 107.838V107.556C179.856 107.192 179.734 107.031 179.448 107.031H179.066ZM179.066 109.101V110.663H179.522C179.791 110.663 179.956 110.542 179.956 110.164V109.73C179.956 109.262 179.8 109.114 179.439 109.114L179.066 109.101Z" fill="#1A1A1A"/>
<path d="M192.162 109.505V110.178C192.162 110.993 191.759 111.458 190.973 111.458C190.188 111.458 189.78 110.993 189.78 110.178V107.535C189.78 106.719 190.188 106.255 190.973 106.255C191.759 106.255 192.162 106.719 192.162 107.535V108.03H191.407V107.466C191.407 107.101 191.247 106.967 190.995 106.967C190.743 106.967 190.561 107.101 190.561 107.466V110.212C190.561 110.577 190.722 110.707 190.995 110.707C191.268 110.707 191.407 110.577 191.407 110.212V109.505H192.162Z" fill="#1A1A1A"/>
<path d="M170.878 114.152H164.703V120.327H170.878V114.152Z" stroke="#1A1A1A" stroke-miterlimit="10"/>
<path d="M182.364 114.152H176.189V120.327H182.364V114.152Z" stroke="#1A1A1A" stroke-miterlimit="10"/>
<path d="M193.85 114.152H187.676V120.327H193.85V114.152Z" stroke="#1A1A1A" stroke-miterlimit="10"/>
</g>
<path d="M24.5145 185.686H11.449" stroke="#263238" stroke-miterlimit="10"/>
<path d="M195 185.686H28.7712" stroke="#263238" stroke-miterlimit="10"/>
<path d="M144.799 185.537L147.593 143.099L149.65 122.921L144.009 116.625L141.18 114.568C141.18 114.568 137.197 118.04 134.372 118.808C131.547 119.576 128.83 120.353 128.83 120.353C128.83 120.353 119.193 138.473 118.416 146.696C117.639 154.919 116.359 185.381 116.359 185.381L117.431 185.537H144.799Z" fill="#9E9E9E" stroke="#263238" stroke-miterlimit="10"/>
<path d="M131.551 150.55C131.551 150.55 131.07 150.302 132.033 147.82" stroke="#263238" stroke-miterlimit="10"/>
<path d="M130.419 119.919C130.898 123.348 131.163 126.803 131.213 130.264C131.213 130.264 134.107 129.106 136.42 125.057C137.698 122.884 138.798 120.612 139.709 118.262L130.419 119.919Z" fill="#263238" stroke="#263238" stroke-miterlimit="10"/>
<path d="M144.799 185.537L147.312 147.382C144.847 148.64 139.983 150.719 134.615 150.81C128.184 150.918 120.221 145.924 120.221 145.924L118.429 146.627C118.429 146.648 118.429 146.675 118.429 146.696C117.657 154.941 116.373 185.381 116.373 185.381L117.444 185.537H144.799Z" fill="white" stroke="#263238" stroke-miterlimit="10"/>
<path d="M140.616 164.18C140.616 174.008 140.954 183.464 141.05 185.529H159.991C160.251 182.466 161.883 163.399 162.72 156.565C163.636 149.097 169.641 137.98 169.641 134C169.641 130.021 170.861 130.65 165.376 127.756C159.891 124.862 147.793 118.613 146.118 117.85C144.443 117.086 142.612 115.246 142.612 115.246C142.612 115.246 143.22 119.056 143.046 129.414C142.872 139.772 140.616 153.067 140.616 164.18Z" fill="#959595"/>
<g opacity="0.2">
<path d="M142.612 115.285C142.838 117.088 142.968 118.901 143.003 120.718V115.654C142.76 115.433 142.612 115.285 142.612 115.285Z" fill="#1A1A1A"/>
<path d="M167.52 140.084V141.386C167.667 140.991 167.815 140.609 167.954 140.231V140.075H168.01C168.066 139.932 168.118 139.784 168.17 139.641H167.954V134.239H169.633C169.633 134.174 169.633 134.104 169.633 134.039C169.633 133.974 169.633 133.883 169.633 133.805H167.954V129.179C167.819 129.097 167.676 129.019 167.52 128.932V133.805H162.963V128.381H166.487L165.671 127.947H162.963V126.515L162.529 126.285V127.934H157.973V123.916L157.539 123.69V127.934H152.983V122.523H155.252L154.411 122.089H152.983V121.355L152.549 121.13V122.089H147.993V118.813C147.841 118.735 147.698 118.661 147.559 118.596V122.089H143.046C143.046 122.232 143.046 122.375 143.046 122.523H147.559V127.947H143.085C143.085 128.09 143.085 128.233 143.085 128.381H147.559V133.805H143.003V131.744C142.916 133.861 142.76 136.083 142.569 138.344V139.645H142.456L142.417 140.079H142.569V145.521H141.918L141.875 145.955H142.59V151.379H141.358L141.319 151.813H142.59V157.237H140.898L140.872 157.671H142.608V163.095H140.686C140.686 163.242 140.686 163.386 140.686 163.529H142.612V168.953H140.699C140.699 169.1 140.699 169.244 140.699 169.387H142.608V174.811H140.785C140.785 174.958 140.785 175.102 140.785 175.245H142.599V185.551H143.033V175.232H147.559V185.538H147.993V175.232H152.549V185.538H152.983V175.232H157.539V185.538H157.973V175.232H160.894C160.894 175.089 160.894 174.945 160.933 174.798H157.973V169.387H161.445C161.445 169.244 161.475 169.1 161.488 168.953H157.973V163.529H161.983C161.983 163.381 162.009 163.242 162.026 163.095H157.973V157.671H162.529V158.248L162.72 156.586C162.781 156.1 162.864 155.597 162.963 155.08V151.813H163.775L163.905 151.379H162.963V145.955H165.784C165.84 145.812 165.892 145.664 165.949 145.521H162.963V140.097L167.52 140.084ZM162.963 134.239H167.52V139.663H162.963V134.239ZM147.559 174.798H143.003V169.387H147.559V174.798ZM147.559 168.94H143.003V163.516H147.559V168.94ZM147.559 163.082H143.003V157.671H147.559V163.082ZM147.559 157.224H143.003V151.8H147.559V157.224ZM147.559 151.366H143.003V145.955H147.559V151.366ZM147.559 145.508H143.003V140.084H147.559V145.508ZM147.559 139.65H143.003V134.239H147.559V139.65ZM152.549 174.798H147.993V169.387H152.549V174.798ZM152.549 168.94H147.993V163.516H152.549V168.94ZM152.549 163.082H147.993V157.671H152.549V163.082ZM152.549 157.224H147.993V151.8H152.549V157.224ZM152.549 151.366H147.993V145.955H152.549V151.366ZM152.549 145.508H147.993V140.084H152.549V145.508ZM152.549 139.65H147.993V134.239H152.549V139.65ZM152.549 133.792H147.993V128.368H152.549V133.792ZM152.549 127.934H147.993V122.523H152.549V127.934ZM157.539 174.798H152.983V169.387H157.539V174.798ZM157.539 168.94H152.983V163.516H157.539V168.94ZM157.539 163.082H152.983V157.671H157.539V163.082ZM157.539 157.224H152.983V151.8H157.539V157.224ZM157.539 151.366H152.983V145.955H157.539V151.366ZM157.539 145.508H152.983V140.084H157.539V145.508ZM157.539 139.65H152.983V134.239H157.539V139.65ZM157.539 133.792H152.983V128.368H157.539V133.792ZM162.529 157.224H157.973V151.8H162.529V157.224ZM162.529 151.366H157.973V145.955H162.529V151.366ZM162.529 145.508H157.973V140.084H162.529V145.508ZM162.529 139.65H157.973V134.239H162.529V139.65ZM162.529 133.792H157.973V128.368H162.529V133.792Z" fill="#1A1A1A"/>
</g>
<path d="M140.616 164.18C140.616 174.008 140.954 183.464 141.05 185.529H159.991C160.251 182.466 161.883 163.399 162.72 156.565C163.636 149.097 169.641 137.98 169.641 134C169.641 130.021 170.861 130.65 165.376 127.756C159.891 124.862 147.793 118.613 146.118 117.85C144.443 117.086 142.612 115.246 142.612 115.246C142.612 115.246 143.22 119.056 143.046 129.414C142.872 139.772 140.616 153.067 140.616 164.18Z" stroke="#263238" stroke-miterlimit="10"/>
<path d="M142.612 115.285C142.612 115.285 143.22 119.095 143.046 129.453C143.011 132.056 142.833 134.868 142.612 137.767C143.133 137.051 144.812 134.764 145.216 134.634C145.671 134.482 148.11 136.769 150.089 137.073C152.067 137.376 152.831 137.376 150.7 135.09C148.57 132.803 147.663 126.103 146.891 121.074C146.744 119.997 146.507 118.935 146.183 117.897H146.131C144.439 117.116 142.612 115.285 142.612 115.285Z" fill="#263238" stroke="#263238" stroke-miterlimit="10"/>
<path d="M155.114 162.41C156.515 161.772 157.617 161.221 157.617 161.221L158.134 165.204C158.134 165.204 150.549 168.545 146.309 168.801C142.07 169.057 141.684 169.188 141.684 169.188L141.809 165.334" stroke="#263238" stroke-miterlimit="10"/>
<path d="M151.317 163.967C152.093 163.706 153.005 163.337 153.894 162.951" stroke="#263238" stroke-miterlimit="10"/>
<path d="M143.219 164.948C145.438 164.892 147.649 164.69 149.841 164.345" stroke="#263238" stroke-miterlimit="10"/>
<path d="M158.134 165.204L158.39 168.289" stroke="#263238" stroke-miterlimit="10"/>
<path d="M99.9961 185.538H121.311C121.358 183.867 121.975 162.635 122.391 151.8C122.825 140.518 130.479 123.404 130.479 123.404C130.479 123.404 131.504 120.991 130.419 119.906C129.334 118.822 126.73 119.255 124.778 120.774C122.825 122.293 104.817 130.104 103.732 131.188C102.647 132.273 102.864 135.962 102.43 140.301C101.997 144.64 94.8367 174.581 94.8367 174.581C94.8367 174.581 92.8841 175.015 92.2332 175.449C91.5823 175.883 91.5823 177.185 91.5823 177.185C91.5823 177.185 92.4501 177.402 95.0537 178.703C97.449 179.901 99.6577 184.761 99.9961 185.538Z" fill="#959595"/>
<path opacity="0.2" d="M127.598 128.367V130.585C127.746 130.185 127.889 129.799 128.032 129.426V128.367H128.44L128.609 127.933H128.032V122.522H130.766C130.796 122.388 130.831 122.24 130.853 122.088H128.032V119.363C127.889 119.385 127.746 119.407 127.598 119.441V122.088H123.042V121.793L122.608 122.015V122.088H122.46L121.593 122.522H122.608V127.946H118.052V124.215L117.618 124.419V127.933H113.062V126.549L112.628 126.753V127.933H110.107L109.187 128.367H112.628V133.804H108.071V128.901L107.638 129.109V133.804H103.081V132.711C102.837 134.291 102.692 135.886 102.647 137.484V139.654H102.491L102.452 140.088H102.647V145.52H101.48L101.389 145.954H102.647V151.378H100.213C100.183 151.522 100.148 151.669 100.118 151.812H102.647V157.236H98.8939C98.8592 157.384 98.8288 157.527 98.7941 157.67H102.647V163.094H98.0911V160.708L97.6572 162.582V163.073H97.5444L97.4446 163.507H97.6572V168.952H96.1732L96.069 169.386H97.6572V174.81H93.9732C93.5309 174.929 93.0962 175.074 92.6714 175.244V177.605C92.8016 177.657 92.9448 177.718 93.1053 177.792V175.244H97.6572V181.319C97.8091 181.536 97.9523 181.753 98.0911 181.975V175.249H102.647V185.555H103.081V175.231H107.638V185.537H108.071V175.231H112.628V185.537H113.062V175.231H117.618V185.537H118.052V175.231H121.614V174.797H118.052V169.386H121.797V168.952H118.052V163.528H121.983V163.094H118.052V157.67H122.178C122.178 157.527 122.178 157.38 122.178 157.236H118.052V151.812H122.391C122.391 151.669 122.391 151.526 122.413 151.378H118.052V145.954H122.608V149.161C122.721 148.237 122.864 147.286 123.042 146.323V145.954H123.111C123.137 145.811 123.168 145.668 123.194 145.52H123.042V140.096H124.496C124.535 139.953 124.578 139.81 124.617 139.662H123.042V134.238H126.296C126.348 134.095 126.396 133.948 126.444 133.804H123.042V128.38L127.598 128.367ZM123.042 122.522H127.598V127.946H123.042V122.522ZM102.647 174.81H98.0911V169.386H102.647V174.81ZM102.647 168.952H98.0911V163.528H102.647V168.952ZM107.638 174.81H103.081V169.386H107.638V174.81ZM107.638 168.952H103.081V163.528H107.638V168.952ZM107.638 163.094H103.081V157.67H107.638V163.094ZM107.638 157.236H103.081V151.812H107.638V157.236ZM107.638 151.378H103.081V145.954H107.638V151.378ZM107.638 145.52H103.081V140.096H107.638V145.52ZM107.638 139.662H103.081V134.238H107.638V139.662ZM112.628 174.81H108.071V169.386H112.628V174.81ZM112.628 168.952H108.071V163.528H112.628V168.952ZM112.628 163.094H108.071V157.67H112.628V163.094ZM112.628 157.236H108.071V151.812H112.628V157.236ZM112.628 151.378H108.071V145.954H112.628V151.378ZM112.628 145.52H108.071V140.096H112.628V145.52ZM112.628 139.662H108.071V134.238H112.628V139.662ZM117.618 174.81H113.062V169.386H117.618V174.81ZM117.618 168.952H113.062V163.528H117.618V168.952ZM117.618 163.094H113.062V157.67H117.618V163.094ZM117.618 157.236H113.062V151.812H117.618V157.236ZM117.618 151.378H113.062V145.954H117.618V151.378ZM117.618 145.52H113.062V140.096H117.618V145.52ZM117.618 139.662H113.062V134.238H117.618V139.662ZM117.618 133.804H113.062V128.38H117.618V133.804ZM122.608 145.52H118.052V140.096H122.608V145.52ZM122.608 139.662H118.052V134.238H122.608V139.662ZM122.608 133.804H118.052V128.38H122.608V133.804Z" fill="#1A1A1A"/>
<path d="M99.9961 185.538H121.311C121.358 183.867 121.975 162.635 122.391 151.8C122.825 140.518 130.479 123.404 130.479 123.404C130.479 123.404 131.504 120.991 130.419 119.906C129.334 118.822 126.73 119.255 124.778 120.774C122.825 122.293 104.817 130.104 103.732 131.188C102.647 132.273 102.864 135.962 102.43 140.301C101.997 144.64 94.8367 174.581 94.8367 174.581C94.8367 174.581 92.8841 175.015 92.2332 175.449C91.5823 175.883 91.5823 177.185 91.5823 177.185C91.5823 177.185 92.4501 177.402 95.0537 178.703C97.449 179.901 99.6577 184.761 99.9961 185.538Z" stroke="#263238" stroke-miterlimit="10"/>
<path d="M91.5823 177.197C91.5823 177.197 92.4501 177.414 95.0537 178.716C97.6573 180.018 100.044 185.659 100.044 185.659H104.249C104.513 184.869 105.16 181.997 102.213 178.499C98.7421 174.377 94.8367 174.594 94.8367 174.594C94.8367 174.594 92.8841 175.028 92.2332 175.462C91.5823 175.896 91.5823 177.197 91.5823 177.197Z" fill="#263238" stroke="#263238" stroke-miterlimit="10"/>
<path d="M127.798 119.389C126.865 121.858 124.656 127.443 122.825 130.103C120.439 133.574 116.099 136.395 117.618 137.697C119.137 138.999 123.476 134.876 123.476 134.876C123.476 134.876 124.561 137.914 124.778 138.782C124.79 138.821 124.809 138.858 124.834 138.89C126.401 133.619 128.284 128.447 130.475 123.403C130.475 123.403 131.499 120.991 130.414 119.906C129.855 119.342 128.9 119.194 127.798 119.389Z" fill="#263238" stroke="#263238" stroke-miterlimit="10"/>
<path d="M111.951 140.335C112.075 139.533 112.156 138.725 112.194 137.914" stroke="#263238" stroke-miterlimit="10"/>
<path d="M108.505 186.08C108.505 186.08 109.156 172.195 109.156 164.167C109.156 158.383 110.731 148.654 111.617 142.696" stroke="#263238" stroke-miterlimit="10"/>
<path d="M109.59 161.143C109.59 161.143 113.062 162.227 114.797 162.444L120.004 163.095L119.61 168.012C119.61 168.012 119.354 167.868 115.448 166.567C111.543 165.265 109.156 164.18 109.156 164.18" stroke="#263238" stroke-miterlimit="10"/>
<path d="M119.61 167.998C119.61 167.998 119.354 177.631 119.354 178.933C119.354 180.235 115.448 179.367 115.448 179.367" stroke="#263238" stroke-miterlimit="10"/>
<path d="M122.725 114.807C122.725 114.807 126.817 120.691 130.479 123.403C134.142 126.115 137.266 122.318 139.709 118.248C142.152 114.178 143.779 111.192 144.999 107.665C146.218 104.137 144.999 98.3047 140.117 93.6921C135.235 89.0794 123.832 82.2928 120.985 85.8206C118.139 89.3484 115.422 97.1027 117.318 103.729C118.451 107.712 120.282 111.463 122.725 114.807Z" fill="#9E9E9E" stroke="#263238" stroke-miterlimit="10"/>
<path d="M121.002 102.15C122.547 101.687 124.192 101.687 125.737 102.15" stroke="#263238" stroke-width="2" stroke-miterlimit="10" stroke-linecap="round"/>
<path d="M124.504 105.781C124.634 106.484 124.47 107.105 124.135 107.166C123.801 107.226 123.433 106.706 123.302 105.998C123.172 105.291 123.337 104.675 123.671 104.614C124.005 104.553 124.374 105.074 124.504 105.781Z" fill="#263238"/>
<path d="M136.576 105.968C136.702 106.671 136.537 107.27 136.207 107.352C135.877 107.435 135.504 106.892 135.374 106.185C135.244 105.478 135.409 104.861 135.743 104.801C136.077 104.74 136.446 105.261 136.576 105.968Z" fill="#263238"/>
<path d="M127.633 115.537C129.201 116.077 130.859 116.307 132.514 116.214C135.365 116.079 137.808 114.044 137.808 114.044" stroke="#263238" stroke-miterlimit="10"/>
<path d="M121.406 88.8195C121.406 88.8195 127.433 102.566 128.188 102.944C128.943 103.321 130.449 98.7998 130.449 98.7998C130.449 98.7998 132.519 102.562 134.975 103.695C137.431 104.827 138.177 102.944 138.177 102.944C139.408 103.637 140.603 104.391 141.757 105.205L142.699 105.955L143.64 109.344C143.64 109.344 140.816 118.574 141.757 119.706C142.699 120.839 147.971 119.329 147.971 119.329C147.971 119.329 146.669 121.212 148.349 121.212C150.028 121.212 153.057 121.59 157.387 115.749C161.718 109.908 162.095 100.496 162.095 100.496C162.095 100.496 164.165 102.753 164.356 99.928C164.547 97.1032 161.909 92.3951 161.909 92.3951C161.909 92.3951 166.048 96.5391 165.675 92.2085C165.302 87.8779 162.85 82.9789 161.909 81.8507C160.967 80.7224 155.313 77.5114 155.313 77.5114C155.313 77.5114 157.574 77.1339 155.882 74.4956C154.189 71.8573 147.971 71.1066 145.71 71.1066C143.45 71.1066 138.741 71.8616 138.741 71.8616C138.741 71.8616 141.757 66.021 138.555 65.6435C135.352 65.266 129.703 71.4841 129.703 71.4841C129.703 71.4841 124.062 66.9626 122.356 67.9042C120.651 68.8459 121.792 70.165 121.792 70.165C121.792 70.165 114.45 70.7291 112.376 73.9315C110.302 77.1339 112.754 79.0171 112.754 79.0171C112.754 79.0171 99.5708 88.0558 101.641 91.4448C103.711 94.8337 107.481 91.6357 107.481 91.6357C107.481 91.6357 102.205 105.196 102.96 106.138C103.715 107.079 107.299 105.76 107.299 105.76C107.299 105.76 107.112 116.682 109.937 117.815C112.762 118.947 113.326 116.873 113.326 116.873C113.326 116.873 114.832 118.379 118.225 118.565C121.619 118.752 122.743 114.799 122.743 114.799C122.743 114.799 118.976 105.947 119.167 98.6046C119.358 91.2625 121.406 88.8195 121.406 88.8195Z" fill="#263238" stroke="#263238" stroke-miterlimit="10"/>
<path d="M128.991 104.68C128.991 104.68 127.633 111.735 128.718 113.228C129.803 114.721 133.604 113.228 133.873 112.417" fill="#9E9E9E"/>
<path d="M128.991 104.68C128.991 104.68 127.633 111.735 128.718 113.228C129.803 114.721 133.604 113.228 133.873 112.417" stroke="#263238" stroke-miterlimit="10"/>
<path d="M123.359 109.023C126.318 109.023 128.718 107.261 128.718 105.087C128.718 102.913 126.318 101.151 123.359 101.151C120.399 101.151 118 102.913 118 105.087C118 107.261 120.399 109.023 123.359 109.023Z" stroke="#263238" stroke-miterlimit="10"/>
<path d="M136.246 108.754C139.206 108.754 141.605 106.992 141.605 104.819C141.605 102.645 139.206 100.883 136.246 100.883C133.287 100.883 130.887 102.645 130.887 104.819C130.887 106.992 133.287 108.754 136.246 108.754Z" stroke="#263238" stroke-miterlimit="10"/>
<path d="M128.991 104.679C128.991 104.679 130.076 103.868 130.887 104.818" stroke="#263238" stroke-miterlimit="10"/>
<path d="M84.3401 179.762C84.3401 179.762 91.1527 177.84 93.2486 177.493C95.3445 177.146 99.5406 180.986 100.239 183.082C100.938 185.178 100.044 185.646 100.044 185.646L86.0845 185.182L84.3401 179.762Z" fill="#9E9E9E" stroke="#263238" stroke-miterlimit="10"/>
<path d="M86.8091 179.085C86.8091 179.085 91.9511 181.012 93.2355 181.784C94.5199 182.556 94.1338 184.097 93.3657 184.865C92.4392 185.639 91.334 186.17 90.1503 186.41C88.9522 186.478 87.7512 186.478 86.5531 186.41C85.0126 186.28 83.598 186.54 82.3136 186.54C81.0292 186.54 77.1715 186.154 77.1715 186.154L76.013 185.381C76.013 185.381 73.8433 186.024 72.1597 186.683C70.4761 187.343 71.0011 185.911 72.2855 184.882C73.57 183.854 76.7854 181.285 77.3017 181.029C77.8181 180.773 84.3704 178.859 84.3704 178.859L86.8091 179.085Z" fill="#9E9E9E" stroke="#263238" stroke-miterlimit="10"/>
<path d="M88.7358 179.597C88.7358 179.597 85.3902 178.057 84.492 178.057C83.5938 178.057 77.1673 180.226 76.2691 180.881C75.3709 181.537 74.4683 187.694 75.1105 188.08C75.7527 188.467 76.2691 187.308 76.4123 186.54C76.5555 185.772 78.3432 181.654 78.3432 181.654L77.0415 188.211C77.0415 188.211 77.5578 189.235 78.0699 188.336C78.5819 187.438 81.7973 181.268 82.0533 180.881C82.3901 180.523 82.7811 180.22 83.2119 179.983C83.2119 179.983 82.5697 182.812 82.0533 185.512C81.5369 188.211 81.9275 188.983 82.6999 189.109C83.4723 189.235 83.8541 187.438 84.2403 186.54C84.6265 185.642 86.2971 180.495 86.2971 180.495" fill="#9E9E9E"/>
<path d="M88.7358 179.597C88.7358 179.597 85.3902 178.057 84.492 178.057C83.5938 178.057 77.1673 180.226 76.2691 180.881C75.3709 181.537 74.4683 187.694 75.1105 188.08C75.7527 188.467 76.2691 187.308 76.4123 186.54C76.5555 185.772 78.3432 181.654 78.3432 181.654L77.0415 188.211C77.0415 188.211 77.5578 189.235 78.0699 188.336C78.5819 187.438 81.7973 181.268 82.0533 180.881C82.3901 180.523 82.7811 180.22 83.2119 179.983C83.2119 179.983 82.5697 182.812 82.0533 185.512C81.5369 188.211 81.9275 188.983 82.6999 189.109C83.4723 189.235 83.8541 187.438 84.2403 186.54C84.6265 185.642 86.2971 180.495 86.2971 180.495" stroke="#263238" stroke-miterlimit="10"/>
<path d="M92.4501 182.171C92.4501 182.171 88.5968 186.154 88.0804 187.052C87.5641 187.951 87.5684 188.081 88.983 188.081C90.3976 188.081 94.7673 185.252 95.1491 184.865C95.531 184.479 95.4095 183.325 94.5069 182.552C94.2195 182.329 93.8828 182.178 93.5249 182.112C93.1671 182.045 92.7985 182.065 92.4501 182.171Z" fill="#9E9E9E" stroke="#263238" stroke-miterlimit="10"/>
<path d="M116.516 181.727C116.516 181.727 111.374 183.389 110.111 184.331C108.848 185.273 107.026 186.31 107.421 186.626C107.815 186.943 109.083 186.626 109.477 186.31C109.872 185.993 111.69 185.676 111.69 185.676C111.69 185.676 113.825 184.409 115.487 183.385C117.149 182.361 118.412 181.25 116.516 181.727Z" fill="#9E9E9E" stroke="#263238" stroke-miterlimit="10"/>
<path d="M144.899 173.023C144.899 173.023 130.579 175.627 125.398 177.445C120.217 179.263 118.156 180.53 115.565 182.362C112.975 184.193 107.724 187.651 108.505 188.259C109.286 188.866 112.007 186.736 112.467 186.28C112.927 185.824 116.273 184.453 116.273 184.453L118.512 183.308C118.512 183.308 115.14 187.46 113.925 188.515C112.71 189.569 113.53 190.229 114.446 189.925C115.361 189.621 117.088 187.803 117.088 187.803L122.656 184.141C122.656 184.141 120.369 187.343 119.302 188.254C118.234 189.166 120.521 189.934 120.981 189.17C121.441 188.406 123.723 186.427 123.723 186.427C123.723 186.427 127.529 184.449 128.444 183.685C129.36 182.921 131.642 180.791 131.642 180.791L148.704 182.162C148.704 182.162 149.772 181.554 149.164 178.048C148.557 174.542 144.899 173.023 144.899 173.023Z" fill="#9E9E9E" stroke="#263238" stroke-miterlimit="10"/>
<path d="M156.476 146.059L164.855 166.783L151.295 171.505L155.105 182.626C155.105 182.626 164.842 182.652 172.462 182.192C180.082 181.732 185.428 177.137 184.208 171.656C182.989 166.176 178.42 158.248 174.762 148.802C171.104 139.355 172.236 133.723 170.561 130.828C168.886 127.934 164.161 127.17 164.161 127.17L161.557 126.736" fill="#959595"/>
<path opacity="0.2" d="M182.924 177.419V175.249H184.056C184.104 175.106 184.143 174.963 184.178 174.815H182.924V169.387H183.575C183.527 169.248 183.475 169.101 183.427 168.953H182.924V167.63C182.785 167.269 182.642 166.901 182.49 166.532V168.953H177.934V163.529H181.205C181.14 163.386 181.08 163.243 181.015 163.095H177.934V157.671H178.541C178.472 157.528 178.407 157.385 178.342 157.237H177.934V156.33C177.79 156.009 177.643 155.688 177.5 155.362V157.237H172.944V151.813H175.981C175.92 151.67 175.859 151.527 175.803 151.379H172.944V145.955H173.755C173.707 145.812 173.664 145.664 173.62 145.521H172.944V143.048C172.779 142.362 172.635 141.707 172.51 141.078V145.521H167.953V140.097H172.327L172.249 139.663H167.953V134.239H171.516L171.451 133.805H167.953V128.485C167.573 128.281 167.182 128.097 166.782 127.934H162.963V126.962L162.529 126.884V127.934H161.249L161.132 128.368H162.529V133.805H159.709L159.596 134.239H162.534V139.663H158.164L158.047 140.097H162.529V145.521H157.973V140.375L157.539 142.019V145.491H156.619L156.506 145.925H157.539V148.671L157.973 149.743V145.955H162.529V151.379H158.624L158.797 151.813H162.529V157.237H161.011L161.188 157.671H162.551V161.043L162.985 162.114V157.671H167.519V163.095H163.358L163.536 163.529H167.519V168.953H162.963V167.452L162.529 167.604V168.953H158.65L157.4 169.387H157.539V174.811H152.983V170.906L152.549 171.058V174.789H152.423L152.983 176.421V175.223H157.539V182.6H157.973V175.223H162.529V182.544H162.963V175.232H167.519V182.405H167.953V175.232H172.51V182.175L172.944 182.14V175.232H177.5V181.185L177.934 181.021V175.232H182.49V177.957C182.642 177.779 182.789 177.601 182.924 177.419ZM162.529 174.815H157.973V169.387H162.529V174.815ZM167.519 174.815H162.963V169.387H167.519V174.815ZM167.519 157.241H162.963V151.817H167.519V157.241ZM167.519 151.383H162.963V145.955H167.519V151.383ZM167.519 145.525H162.963V140.101H167.519V145.525ZM167.519 139.667H162.963V134.239H167.519V139.667ZM167.519 133.809H162.963V128.385H167.519V133.809ZM172.51 174.815H167.953V169.387H172.51V174.815ZM172.51 168.957H167.953V163.533H172.51V168.957ZM172.51 163.099H167.953V157.671H172.51V163.099ZM172.51 157.241H167.953V151.817H172.51V157.241ZM172.51 151.383H167.953V145.955H172.51V151.383ZM177.5 174.815H172.944V169.387H177.5V174.815ZM177.5 168.957H172.944V163.533H177.5V168.957ZM177.5 163.099H172.944V157.671H177.5V163.099ZM177.934 174.815V169.387H182.49V174.811L177.934 174.815Z" fill="#263238"/>
<path d="M156.476 146.059L164.855 166.783L151.295 171.505L155.105 182.626C155.105 182.626 164.842 182.652 172.462 182.192C180.082 181.732 185.428 177.137 184.208 171.656C182.989 166.176 178.42 158.248 174.762 148.802C171.104 139.355 172.236 133.723 170.561 130.828C168.886 127.934 164.161 127.17 164.161 127.17L161.557 126.736" stroke="#263238" stroke-miterlimit="10"/>
<path d="M173.013 164.674C170.248 165.186 167.523 165.889 164.855 166.779C164.855 166.779 170.644 162.969 173.842 162.665" stroke="#263238" stroke-miterlimit="10"/>
<path d="M176.892 164.492C176.292 164.406 175.684 164.385 175.079 164.431" stroke="#263238" stroke-miterlimit="10"/>
<path d="M155.257 169.821C155.257 169.821 158.337 172.767 159.249 175.05C160.16 177.332 159.826 183.533 159.218 184.141C158.611 184.748 147.272 184.674 145.406 182.344C144.92 181.737 148.249 180.335 146.574 176.981C144.899 173.627 144.135 173.327 144.135 173.327C144.135 173.327 142.764 172.563 145.354 170.888C147.945 169.213 153.885 167.998 155.257 169.821Z" fill="#263238" stroke="#263238" stroke-miterlimit="10"/>
<path d="M182.268 193.314H171.021L169.615 171.079H183.674L182.268 193.314Z" fill="#263238" stroke="#263238" stroke-linejoin="round"/>
<path d="M184.299 171.114H168.995V174.351H184.299V171.114Z" fill="white" stroke="#263238" stroke-linejoin="round"/>
<path d="M184.299 171.235H168.995L170.522 169.317H182.767L184.299 171.235Z" fill="white" stroke="#263238" stroke-linejoin="round"/>
<path d="M182.681 186.792L183.24 177.936H170.049L170.609 186.792H182.681Z" fill="white" stroke="#263238" stroke-linejoin="round"/>
<path d="M117.453 194.793L131.313 191.131V193.005L117.453 196.889V194.793Z" fill="#263238" stroke="#263238" stroke-linejoin="round"/>
<path d="M131.313 191.131H58.8512L44.844 194.793H117.453L131.313 191.131Z" fill="white" stroke="#263238" stroke-linejoin="round"/>
<path d="M117.453 152.919H44.844V196.889H117.453V152.919Z" fill="white" stroke="#263238" stroke-linejoin="round"/>
<path d="M117.453 159.28C101.658 160.031 92.2505 174.589 78.2737 184.344C65.5336 193.239 49.7994 194.758 44.8613 194.997V196.889H117.453V159.28Z" fill="#263238" stroke="#263238" stroke-linejoin="round"/>
<path d="M117.453 194.793H44.844V196.889H117.453V194.793Z" fill="white" stroke="#263238" stroke-miterlimit="10"/>
<path d="M23.3473 180.287C23.3473 180.287 17.2983 170.61 22.154 165.164C27.0096 159.719 34.855 162.339 36.4736 167.382C38.0921 172.424 34.6598 180.894 34.6598 180.894L23.3473 180.287Z" fill="#959595" stroke="#263238" stroke-linecap="round" stroke-linejoin="round"/>
<path d="M23.5468 169.195C22.5401 169.195 18.7086 167.785 17.4979 165.971C16.2872 164.158 16.079 160.122 19.5157 160.122C22.9524 160.122 24.1543 166.171 24.1543 166.171L24.354 168.388" fill="#959595"/>
<path d="M23.5468 169.195C22.5401 169.195 18.7086 167.785 17.4979 165.971C16.2872 164.158 16.079 160.122 19.5157 160.122C22.9524 160.122 24.1543 166.171 24.1543 166.171L24.354 168.388" stroke="#263238" stroke-linecap="round" stroke-linejoin="round"/>
<path d="M26.6495 165.429C25.747 164.995 22.9481 162.01 22.6747 159.845C22.4014 157.679 24.0243 153.982 27.0921 155.505C30.16 157.028 28.5414 162.991 28.5414 162.991L27.73 165.065" fill="#959595"/>
<path d="M26.6495 165.429C25.747 164.995 22.9481 162.01 22.6747 159.845C22.4014 157.679 24.0243 153.982 27.0921 155.505C30.16 157.028 28.5414 162.991 28.5414 162.991L27.73 165.065" stroke="#263238" stroke-linecap="round" stroke-linejoin="round"/>
<path d="M30.3117 166.444C29.8083 165.577 29.1314 161.545 30.1034 159.593C31.0754 157.64 34.4774 155.462 36.1784 158.439C37.8794 161.415 33.232 165.468 33.232 165.468L31.4052 166.744" fill="#959595"/>
<path d="M30.3117 166.444C29.8083 165.577 29.1314 161.545 30.1034 159.593C31.0754 157.64 34.4774 155.462 36.1784 158.439C37.8794 161.415 33.232 165.468 33.232 165.468L31.4052 166.744" stroke="#263238" stroke-linecap="round" stroke-linejoin="round"/>
<path d="M31.5137 173.674C31.3488 172.676 32.1038 168.667 33.6833 167.165C35.2628 165.664 39.2159 164.8 39.7843 168.181C40.3528 171.561 34.5772 173.761 34.5772 173.761L32.4076 174.325" fill="#959595"/>
<path d="M31.5137 173.674C31.3488 172.676 32.1038 168.667 33.6833 167.165C35.2628 165.664 39.2159 164.8 39.7843 168.181C40.3528 171.561 34.5772 173.761 34.5772 173.761L32.4076 174.325" stroke="#263238" stroke-linecap="round" stroke-linejoin="round"/>
<path d="M17.9404 163.537L18.6217 164.609" stroke="white" stroke-linecap="round" stroke-linejoin="round"/>
<path d="M19.8889 166.167L20.9564 167.039" stroke="white" stroke-linecap="round" stroke-linejoin="round"/>
<path d="M18.7217 161.493L19.7891 163.051" stroke="white" stroke-linecap="round" stroke-linejoin="round"/>
<path d="M21.2515 164.318L22.4187 166.458" stroke="white" stroke-linecap="round" stroke-linejoin="round"/>
<path d="M23.9722 159.159L24.3627 160.326" stroke="white" stroke-linecap="round" stroke-linejoin="round"/>
<path d="M25.3347 162.466L26.016 163.442" stroke="white" stroke-linecap="round" stroke-linejoin="round"/>
<path d="M25.0439 156.824L25.9205 158.768" stroke="white" stroke-linecap="round" stroke-linejoin="round"/>
<path d="M21.6375 170.545L21.9325 172.294" stroke="white" stroke-linecap="round" stroke-linejoin="round"/>
<path d="M22.5142 173.947L22.9047 175.41" stroke="white" stroke-linecap="round" stroke-linejoin="round"/>
<path d="M23.4861 170.641L23.8766 172.585" stroke="white" stroke-linecap="round" stroke-linejoin="round"/>
<path d="M24.7532 173.947L25.0439 175.41" stroke="white" stroke-linecap="round" stroke-linejoin="round"/>
<path d="M25.4343 168.111L26.0158 170.836" stroke="white" stroke-linecap="round" stroke-linejoin="round"/>
<path d="M26.7969 173.461L26.8923 174.728" stroke="white" stroke-linecap="round" stroke-linejoin="round"/>
<path d="M27.8645 167.234L28.3505 169.764" stroke="white" stroke-linecap="round" stroke-linejoin="round"/>
<path d="M28.3503 172.394L28.5456 175.019" stroke="white" stroke-linecap="round" stroke-linejoin="round"/>
<path d="M30.6892 168.206V170.35" stroke="white" stroke-linecap="round" stroke-linejoin="round"/>
<path d="M30.3943 173.075L30.4941 174.728" stroke="white" stroke-linecap="round" stroke-linejoin="round"/>
<path d="M33.1193 158.087L32.6333 159.259" stroke="white" stroke-linecap="round" stroke-linejoin="round"/>
<path d="M32.4379 160.617L31.9519 162.275" stroke="white" stroke-linecap="round" stroke-linejoin="round"/>
<path d="M35.2587 160.326L34.4819 161.884" stroke="white" stroke-linecap="round" stroke-linejoin="round"/>
<path d="M32.8284 163.637L31.9519 164.609" stroke="white" stroke-linecap="round" stroke-linejoin="round"/>
<path d="M30.9799 160.23L30.6892 161.493" stroke="white" stroke-linecap="round" stroke-linejoin="round"/>
<path d="M35.2586 167.234L34.1912 168.987" stroke="white" stroke-linecap="round" stroke-linejoin="round"/>
<path d="M33.5099 170.055L32.9241 171.612" stroke="white" stroke-linecap="round" stroke-linejoin="round"/>
<path d="M34.3865 172.393L36.1352 171.417" stroke="white" stroke-linecap="round" stroke-linejoin="round"/>
<path d="M37.2069 167.234L36.3303 168.697" stroke="white" stroke-linecap="round" stroke-linejoin="round"/>
<path d="M38.0835 168.888L36.9163 169.764" stroke="white" stroke-linecap="round" stroke-linejoin="round"/>
<path d="M36.825 176.911H20.2837V193.452H36.825V176.911Z" fill="#263238" stroke="#263238" stroke-linecap="round" stroke-linejoin="round"/>
</svg>
