<svg width="149" height="170" viewBox="0 0 149 170" fill="none" xmlns="http://www.w3.org/2000/svg">
<g clip-path="url(#clip0_764_2842)">
<mask id="mask0_764_2842" style="mask-type:luminance" maskUnits="userSpaceOnUse" x="0" y="0" width="149" height="170">
<path d="M148.503 0.340088H0.0302734V169.9H148.503V0.340088Z" fill="white"/>
</mask>
<g mask="url(#mask0_764_2842)">
<path d="M140.883 32.4092H122.005C118.521 32.4092 115.696 35.2339 115.696 38.7185V142.537C115.696 146.022 118.521 148.847 122.005 148.847H140.883C144.367 148.847 147.192 146.022 147.192 142.537V38.7185C147.192 35.2339 144.367 32.4092 140.883 32.4092Z" fill="white"/>
<path opacity="0.45" d="M130.467 77.9062V31.1431H38.9238V148.175H130.467V77.9062Z" fill="#C9D2DF"/>
<path d="M87.3682 113.961H139.375V109.903H87.3682V113.961Z" fill="#C9D2DF"/>
<path d="M87.3682 123.181H139.375V119.124H87.3682V123.181Z" fill="#C9D2DF"/>
<path d="M87.3682 132.413H139.375V128.355H87.3682V132.413Z" fill="#C9D2DF"/>
<path d="M87.3682 79.7377H139.375V75.6797H87.3682V79.7377Z" fill="#C9D2DF"/>
<path d="M87.3682 88.9383H139.375V84.8809H87.3682V88.9383Z" fill="#C9D2DF"/>
<path d="M87.3682 98.1971H139.375V94.1396H87.3682V98.1971Z" fill="#C9D2DF"/>
<path d="M87.3682 44.4322H139.375V40.3745H87.3682V44.4322Z" fill="#C9D2DF"/>
<path d="M87.3682 62.9119H139.375V40.0996H87.3682V62.9119Z" fill="#C9D2DF"/>
<path d="M144.816 149.043C144.587 149.043 144.366 148.952 144.204 148.79C144.041 148.627 143.95 148.407 143.95 148.177C143.95 147.947 144.041 147.727 144.204 147.565C144.366 147.402 144.587 147.311 144.816 147.311C145.017 147.311 145.215 147.271 145.4 147.194C145.584 147.116 145.752 147.003 145.892 146.86C146.033 146.717 146.143 146.548 146.218 146.362C146.292 146.176 146.329 145.977 146.325 145.777V89.1667C146.325 88.9368 146.417 88.7166 146.579 88.5543C146.741 88.3914 146.962 88.3003 147.191 88.3003C147.421 88.3003 147.641 88.3914 147.804 88.5543C147.966 88.7166 148.057 88.9368 148.057 89.1667V145.777C148.057 146.639 147.717 147.466 147.109 148.078C146.503 148.689 145.678 149.036 144.816 149.043Z" fill="#3E3126"/>
<path d="M138.929 149.038H128.043C127.813 149.038 127.593 148.947 127.43 148.784C127.268 148.622 127.177 148.401 127.177 148.172C127.177 147.942 127.268 147.722 127.43 147.56C127.593 147.397 127.813 147.306 128.043 147.306H138.929C139.159 147.306 139.379 147.397 139.541 147.56C139.704 147.722 139.795 147.942 139.795 148.172C139.795 148.401 139.704 148.622 139.541 148.784C139.379 148.947 139.159 149.038 138.929 149.038Z" fill="#3E3126"/>
<path d="M116.314 149.046H58.0234C57.1616 149.04 56.3373 148.693 55.73 148.081C55.1232 147.469 54.7822 146.642 54.7822 145.78V36.1469C54.7889 34.5937 55.4089 33.106 56.5072 32.0077C57.605 30.9094 59.093 30.2895 60.646 30.283H142.293C143.846 30.2895 145.333 30.9094 146.432 32.0077C147.53 33.106 148.15 34.5937 148.156 36.1469V77.9118C148.156 78.1418 148.065 78.3619 147.903 78.5243C147.74 78.6866 147.52 78.7782 147.29 78.7782C147.061 78.7782 146.841 78.6866 146.678 78.5243C146.516 78.3619 146.424 78.1418 146.424 77.9118V36.1469C146.424 35.051 145.989 34.0001 145.214 33.2252C144.439 32.4503 143.389 32.015 142.293 32.015H60.646C59.5502 32.015 58.4995 32.4503 57.7243 33.2252C56.9496 34.0001 56.5144 35.051 56.5144 36.1469V145.78C56.5108 145.98 56.5477 146.18 56.6219 146.366C56.6962 146.551 56.8068 146.721 56.9476 146.864C57.0879 147.007 57.2553 147.12 57.4402 147.197C57.625 147.274 57.8232 147.314 58.0234 147.314H116.314C116.544 147.314 116.764 147.405 116.926 147.568C117.089 147.731 117.18 147.951 117.18 148.18C117.18 148.41 117.089 148.63 116.926 148.793C116.764 148.955 116.544 149.046 116.314 149.046Z" fill="#3E3126"/>
<path d="M122.896 17.7378H0.822266V155.577H122.896V17.7378Z" fill="white"/>
<path opacity="0.2" d="M122.897 57.8374V152.749C122.897 153.226 122.802 153.697 122.619 154.137C122.436 154.577 122.167 154.977 121.83 155.312C121.492 155.648 121.091 155.914 120.649 156.094C120.208 156.274 119.736 156.365 119.259 156.362H11.5107C76.1352 137.607 109.017 86.5879 122.897 57.8374Z" fill="#C9D2DF"/>
<path opacity="0.5" d="M122.871 60.6399H1.41602V61.1596H122.871V60.6399Z" fill="#C9D2DF"/>
<path opacity="0.5" d="M122.871 97.4255H1.41602V97.9448H122.871V97.4255Z" fill="#C9D2DF"/>
<path opacity="0.5" d="M122.871 136.791H1.41602V137.31H122.871V136.791Z" fill="#C9D2DF"/>
<path d="M3.27179 5.03679H121.04C121.526 5.03679 121.992 5.22969 122.335 5.57307C122.678 5.9164 122.871 6.38211 122.871 6.86774V16.9626H1.41619V6.89247C1.41286 6.64786 1.45858 6.40505 1.55065 6.17842C1.64273 5.95178 1.77928 5.74589 1.95226 5.57287C2.12524 5.3999 2.33112 5.26334 2.55776 5.17127C2.78439 5.07919 3.02718 5.03346 3.27179 5.03679Z" fill="#C3C6E3"/>
<path d="M12.3524 11.8189C13.5685 11.8189 14.5543 10.833 14.5543 9.61686C14.5543 8.40069 13.5685 7.41479 12.3524 7.41479C11.1362 7.41479 10.1504 8.40069 10.1504 9.61686C10.1504 10.833 11.1362 11.8189 12.3524 11.8189Z" fill="#57A8B2"/>
<path d="M19.0321 11.8189C20.2482 11.8189 21.234 10.833 21.234 9.61686C21.234 8.40069 20.2482 7.41479 19.0321 7.41479C17.8159 7.41479 16.8301 8.40069 16.8301 9.61686C16.8301 10.833 17.8159 11.8189 19.0321 11.8189Z" fill="#57A8B2"/>
<path d="M25.7362 11.8189C26.9523 11.8189 27.9381 10.833 27.9381 9.61686C27.9381 8.40069 26.9523 7.41479 25.7362 7.41479C24.52 7.41479 23.5342 8.40069 23.5342 9.61686C23.5342 10.833 24.52 11.8189 25.7362 11.8189Z" fill="#57A8B2"/>
<path opacity="0.2" d="M122.897 20.1349H1.41637C1.19009 20.0983 0.984226 19.9823 0.835646 19.8078C0.687065 19.6333 0.605469 19.4115 0.605469 19.1823C0.605469 18.9531 0.687065 18.7313 0.835646 18.5568C0.984226 18.3823 1.19009 18.2663 1.41637 18.2297H122.897C123.123 18.2663 123.329 18.3823 123.477 18.5568C123.626 18.7313 123.707 18.9531 123.707 19.1823C123.707 19.4115 123.626 19.6333 123.477 19.8078C123.329 19.9823 123.123 20.0983 122.897 20.1349Z" fill="#C9D2DF"/>
<path d="M12.3524 11.8189C13.5685 11.8189 14.5543 10.833 14.5543 9.61686C14.5543 8.40069 13.5685 7.41479 12.3524 7.41479C11.1362 7.41479 10.1504 8.40069 10.1504 9.61686C10.1504 10.833 11.1362 11.8189 12.3524 11.8189Z" fill="#8F98D8"/>
<path d="M19.0321 11.8189C20.2482 11.8189 21.234 10.833 21.234 9.61686C21.234 8.40069 20.2482 7.41479 19.0321 7.41479C17.8159 7.41479 16.8301 8.40069 16.8301 9.61686C16.8301 10.833 17.8159 11.8189 19.0321 11.8189Z" fill="#8F98D8"/>
<path d="M25.7362 11.8189C26.9523 11.8189 27.9381 10.833 27.9381 9.61686C27.9381 8.40069 26.9523 7.41479 25.7362 7.41479C24.52 7.41479 23.5342 8.40069 23.5342 9.61686C23.5342 10.833 24.52 11.8189 25.7362 11.8189Z" fill="#8F98D8"/>
<path d="M12.4009 12.24C11.8769 12.2697 11.356 12.1414 10.9057 11.8719C10.4553 11.6024 10.0962 11.2039 9.87475 10.728C9.6533 10.2522 9.57972 9.72083 9.66354 9.20269C9.74731 8.68455 9.98463 8.20348 10.3448 7.8217C10.705 7.43992 11.1714 7.17498 11.6837 7.06121C12.1961 6.94738 12.7308 6.98988 13.2188 7.18328C13.7067 7.37668 14.1253 7.71202 14.4206 8.14593C14.7159 8.57984 14.8742 9.0924 14.8751 9.61725C14.8761 10.2879 14.6203 10.9334 14.1601 11.4212C13.7 11.909 13.0704 12.202 12.4009 12.24ZM12.4009 7.76158C12.0476 7.75667 11.7007 7.85698 11.4046 8.04971C11.1084 8.24245 10.8762 8.5189 10.7376 8.844C10.599 9.16905 10.5602 9.528 10.6261 9.87517C10.6919 10.2223 10.8596 10.5421 11.1078 10.7937C11.3559 11.0453 11.6732 11.2174 12.0194 11.2882C12.3657 11.359 12.7251 11.3252 13.052 11.1911C13.379 11.057 13.6587 10.8288 13.8555 10.5353C14.0524 10.2418 14.1575 9.89642 14.1576 9.54305C14.1608 9.31028 14.1178 9.07919 14.031 8.86315C13.9442 8.64717 13.8153 8.4506 13.6519 8.28485C13.4884 8.11905 13.2937 7.98745 13.0789 7.89764C12.8642 7.80782 12.6337 7.76153 12.4009 7.76158Z" fill="#3E3126"/>
<path d="M19.0314 12.2441C18.5138 12.2391 18.0092 12.0812 17.5812 11.7901C17.1532 11.4989 16.8209 11.0876 16.6262 10.608C16.4315 10.1283 16.3831 9.60178 16.487 9.0947C16.591 8.58757 16.8427 8.12258 17.2105 7.75826C17.5782 7.39393 18.0455 7.14662 18.5536 7.04738C19.0616 6.9482 19.5877 7.00155 20.0654 7.20074C20.5432 7.39998 20.9513 7.73614 21.2384 8.16687C21.5255 8.59761 21.6787 9.10366 21.6788 9.62134C21.6722 10.3192 21.3905 10.9863 20.8947 11.4774C20.3989 11.9685 19.7293 12.2441 19.0314 12.2441ZM19.0314 7.76568C18.6791 7.76568 18.3347 7.87014 18.0417 8.0659C17.7488 8.26165 17.5205 8.53985 17.3856 8.86541C17.2508 9.19092 17.2155 9.54909 17.2843 9.89468C17.353 10.2402 17.5227 10.5577 17.7718 10.8068C18.021 11.0559 18.3384 11.2256 18.6839 11.2944C19.0294 11.3631 19.3876 11.3278 19.7132 11.193C20.0387 11.0582 20.3168 10.8298 20.5126 10.5368C20.7083 10.2439 20.8128 9.89944 20.8128 9.5471C20.8161 9.31227 20.7723 9.07909 20.684 8.86146C20.5956 8.64384 20.4646 8.44609 20.2985 8.28003C20.1324 8.11393 19.9347 7.98284 19.7171 7.89446C19.4994 7.80613 19.2663 7.76235 19.0314 7.76568Z" fill="#3E3126"/>
<path d="M25.7368 12.2441C25.0413 12.2441 24.3742 11.9678 23.8823 11.476C23.3905 10.9841 23.1143 10.3171 23.1143 9.62144C23.1143 8.92587 23.3905 8.25878 23.8823 7.76695C24.3742 7.27508 25.0413 6.99878 25.7368 6.99878C26.4323 6.99878 27.0994 7.27508 27.5913 7.76695C28.0831 8.25878 28.3594 8.92587 28.3594 9.62144C28.3594 10.3171 28.0831 10.9841 27.5913 11.476C27.0994 11.9678 26.4323 12.2441 25.7368 12.2441ZM25.7368 7.84002C25.3037 7.89133 24.9044 8.09979 24.6148 8.42581C24.325 8.75188 24.165 9.17288 24.165 9.6091C24.165 10.0453 24.325 10.4663 24.6148 10.7923C24.9044 11.1184 25.3037 11.3269 25.7368 11.3782C26.1699 11.3269 26.5692 11.1184 26.8589 10.7923C27.1486 10.4663 27.3086 10.0453 27.3086 9.6091C27.3086 9.17288 27.1486 8.75188 26.8589 8.42581C26.5692 8.09979 26.1699 7.89133 25.7368 7.84002Z" fill="#3E3126"/>
<path d="M80.9843 43.3682H69.752V45.3971H80.9843V43.3682Z" fill="#C9D2DF"/>
<path d="M81.3554 79.7378H70.123V81.7665H81.3554V79.7378Z" fill="#C9D2DF"/>
<path d="M81.3554 116.281H70.123V118.31H81.3554V116.281Z" fill="#C9D2DF"/>
<path d="M63.3443 68.4783H12.7731C12.3769 68.4783 12.0557 68.7998 12.0557 69.1962V71.8189C12.0557 72.2152 12.3769 72.5363 12.7731 72.5363H63.3443C63.7406 72.5363 64.0621 72.2152 64.0621 71.8189V69.1962C64.0621 68.7998 63.7406 68.4783 63.3443 68.4783Z" fill="#C9D2DF"/>
<path d="M63.3443 77.7075H12.7731C12.3769 77.7075 12.0557 78.0286 12.0557 78.4249V81.0476C12.0557 81.4439 12.3769 81.765 12.7731 81.765H63.3443C63.7406 81.765 64.0621 81.4439 64.0621 81.0476V78.4249C64.0621 78.0286 63.7406 77.7075 63.3443 77.7075Z" fill="#C9D2DF"/>
<path d="M63.3443 86.9382H12.7731C12.3769 86.9382 12.0557 87.2598 12.0557 87.6556V90.2783C12.0557 90.6746 12.3769 90.9962 12.7731 90.9962H63.3443C63.7406 90.9962 64.0621 90.6746 64.0621 90.2783V87.6556C64.0621 87.2598 63.7406 86.9382 63.3443 86.9382Z" fill="#C9D2DF"/>
<path d="M63.3443 28.7649H12.7731C12.3769 28.7649 12.0557 29.0862 12.0557 29.4824V32.1051C12.0557 32.5014 12.3769 32.8226 12.7731 32.8226H63.3443C63.7406 32.8226 64.0621 32.5014 64.0621 32.1051V29.4824C64.0621 29.0862 63.7406 28.7649 63.3443 28.7649Z" fill="#C9D2DF"/>
<path d="M63.3443 37.9956H12.7731C12.3769 37.9956 12.0557 38.3169 12.0557 38.7131V41.3358C12.0557 41.7321 12.3769 42.0534 12.7731 42.0534H63.3443C63.7406 42.0534 64.0621 41.7321 64.0621 41.3358V38.7131C64.0621 38.3169 63.7406 37.9956 63.3443 37.9956Z" fill="#C9D2DF"/>
<path d="M63.3443 47.2246H12.7731C12.3769 47.2246 12.0557 47.5458 12.0557 47.9421V50.5648C12.0557 50.9611 12.3769 51.2823 12.7731 51.2823H63.3443C63.7406 51.2823 64.0621 50.9611 64.0621 50.5648V47.9421C64.0621 47.5458 63.7406 47.2246 63.3443 47.2246Z" fill="#C9D2DF"/>
<path d="M63.3443 104.876H12.7731C12.3769 104.876 12.0557 105.197 12.0557 105.594V108.216C12.0557 108.613 12.3769 108.934 12.7731 108.934H63.3443C63.7406 108.934 64.0621 108.613 64.0621 108.216V105.594C64.0621 105.197 63.7406 104.876 63.3443 104.876Z" fill="#C9D2DF"/>
<path d="M63.3443 114.107H12.7731C12.3769 114.107 12.0557 114.428 12.0557 114.824V117.447C12.0557 117.843 12.3769 118.164 12.7731 118.164H63.3443C63.7406 118.164 64.0621 117.843 64.0621 117.447V114.824C64.0621 114.428 63.7406 114.107 63.3443 114.107Z" fill="#C9D2DF"/>
<path d="M63.3443 123.338H12.7731C12.3769 123.338 12.0557 123.659 12.0557 124.055V126.678C12.0557 127.074 12.3769 127.396 12.7731 127.396H63.3443C63.7406 127.396 64.0621 127.074 64.0621 126.678V124.055C64.0621 123.659 63.7406 123.338 63.3443 123.338Z" fill="#C9D2DF"/>
<path d="M72.7456 31.635L73.5618 33.268L75.3683 33.5402L74.057 34.8268L74.3785 36.633L72.7456 35.767L71.1128 36.633L71.4343 34.8268L70.123 33.5402L71.929 33.268L72.7456 31.635Z" fill="#FF9C01"/>
<path d="M79.5249 31.635L80.3411 33.268L82.1476 33.5402L80.8363 34.8268L81.1578 36.633L79.5249 35.767L77.8921 36.633L78.2136 34.8268L76.9023 33.5402L78.7083 33.268L79.5249 31.635Z" fill="#FF9C01"/>
<path d="M86.3034 31.635L87.1201 33.268L88.926 33.5402L87.6147 34.8268L87.9117 36.633L86.3034 35.767L84.6706 36.633L84.9921 34.8268L83.6562 33.5402L85.4873 33.268L86.3034 31.635Z" fill="#FF9C01"/>
<path d="M93.0827 31.635L93.8994 33.268L95.7053 33.5402L94.394 34.8268L94.691 36.633L93.0827 35.767L91.4499 36.633L91.7714 34.8268L90.4355 33.5402L92.2661 33.268L93.0827 31.635Z" fill="#FF9C01"/>
<path d="M99.862 31.635L100.654 33.268L102.485 33.5402L101.173 34.8268L101.47 36.633L99.862 35.767L98.2292 36.633L98.5261 34.8268L97.2148 33.5402L99.0453 33.268L99.862 31.635Z" fill="#FF9C01"/>
<path d="M72.7456 68.0144L73.5618 69.6724L75.3683 69.9197L74.057 71.206L74.3785 73.0125L72.7456 72.1712L71.1128 73.0125L71.4343 71.206L70.123 69.9197L71.929 69.6724L72.7456 68.0144Z" fill="#FF9C01"/>
<path d="M79.5249 68.0144L80.3411 69.6724L82.1476 69.9197L80.8363 71.206L81.1578 73.0125L79.5249 72.1712L77.8921 73.0125L78.2136 71.206L76.9023 69.9197L78.7083 69.6724L79.5249 68.0144Z" fill="#FF9C01"/>
<path d="M86.3034 68.0144L87.1201 69.6724L88.926 69.9197L87.6147 71.206L87.9117 73.0125L86.3034 72.1712L84.6706 73.0125L84.9921 71.206L83.6562 69.9197L85.4873 69.6724L86.3034 68.0144Z" fill="#FF9C01"/>
<path d="M93.0827 68.0144L93.8994 69.6724L95.7053 69.9197L94.394 71.206L94.691 73.0125L93.0827 72.1712L91.4499 73.0125L91.7714 71.206L90.4355 69.9197L92.2661 69.6724L93.0827 68.0144Z" fill="#FF9C01"/>
<path d="M99.862 68.0144L100.654 69.6724L102.485 69.9197L101.173 71.206L101.47 73.0125L99.862 72.1712L98.2292 73.0125L98.5261 71.206L97.2148 69.9197L99.0453 69.6724L99.862 68.0144Z" fill="#FF9C01"/>
<path d="M72.7456 104.404L73.5618 106.037L75.3683 106.309L74.057 107.596L74.3785 109.402L72.7456 108.536L71.1128 109.402L71.4343 107.596L70.123 106.309L71.929 106.037L72.7456 104.404Z" fill="#FF9C01"/>
<path d="M79.5249 104.404L80.3411 106.037L82.1476 106.309L80.8363 107.596L81.1578 109.402L79.5249 108.536L77.8921 109.402L78.2136 107.596L76.9023 106.309L78.7083 106.037L79.5249 104.404Z" fill="#FF9C01"/>
<path d="M86.3034 104.404L87.1201 106.037L88.926 106.309L87.6147 107.596L87.9117 109.402L86.3034 108.536L84.6706 109.402L84.9921 107.596L83.6562 106.309L85.4873 106.037L86.3034 104.404Z" fill="#FF9C01"/>
<path d="M93.0827 104.404L93.8994 106.037L95.7053 106.309L94.394 107.596L94.691 109.402L93.0827 108.536L91.4499 109.402L91.7714 107.596L90.4355 106.309L92.2661 106.037L93.0827 104.404Z" fill="#FF9C01"/>
<path d="M99.862 104.404L100.654 106.037L102.485 106.309L101.173 107.596L101.47 109.402L99.862 108.536L98.2292 109.402L98.5261 107.596L97.2148 106.309L99.0453 106.037L99.862 104.404Z" fill="#FF9C01"/>
<path opacity="0.45" d="M57.3069 3.06641H45.6043C44.5111 3.06641 43.625 3.95261 43.625 5.0458V5.07054C43.625 6.16374 44.5111 7.04995 45.6043 7.04995H57.3069C58.4001 7.04995 59.2864 6.16374 59.2864 5.07054V5.0458C59.2864 3.95261 58.4001 3.06641 57.3069 3.06641Z" fill="white"/>
<path opacity="0.45" d="M56.7873 11.4744C58.1672 11.4744 59.286 10.7322 59.286 9.81669C59.286 8.90115 58.1672 8.15894 56.7873 8.15894C55.4069 8.15894 54.2881 8.90115 54.2881 9.81669C54.2881 10.7322 55.4069 11.4744 56.7873 11.4744Z" fill="white"/>
<path d="M147.192 84.9606C147.917 84.9606 148.503 84.3733 148.503 83.6492C148.503 82.9247 147.917 82.3379 147.192 82.3379C146.468 82.3379 145.881 82.9247 145.881 83.6492C145.881 84.3733 146.468 84.9606 147.192 84.9606Z" fill="#3E3126"/>
<path d="M122.871 15.0596H0.822266V16.9647H122.871V15.0596Z" fill="#8F98D8"/>
<path d="M122.896 18.2036H1.41575C1.18609 18.2036 0.965827 18.1124 0.803432 17.95C0.641038 17.7876 0.549805 17.5673 0.549805 17.3377C0.549805 17.108 0.641038 16.8877 0.803432 16.7253C0.965827 16.5629 1.18609 16.4717 1.41575 16.4717H122.896C123.125 16.4717 123.346 16.5629 123.508 16.7253C123.671 16.8877 123.762 17.108 123.762 17.3377C123.762 17.5673 123.671 17.7876 123.508 17.95C123.346 18.1124 123.125 18.2036 122.896 18.2036Z" fill="#3E3126"/>
<path d="M1.4158 114.15C1.22881 114.161 1.0416 114.132 0.866769 114.065C0.691937 113.998 0.533546 113.894 0.402267 113.76C0.270985 113.627 0.169858 113.466 0.105693 113.29C0.0415278 113.114 0.015815 112.927 0.0302857 112.74V73.1522C0.0302857 72.8045 0.16844 72.4706 0.414355 72.2249C0.660268 71.9791 0.993803 71.8408 1.34158 71.8408C1.68936 71.8408 2.02289 71.9791 2.2688 72.2249C2.51472 72.4706 2.65287 72.8045 2.65287 73.1522V112.74C2.66631 112.914 2.64478 113.089 2.58955 113.255C2.53431 113.421 2.44649 113.574 2.33124 113.705C2.21599 113.837 2.07563 113.944 1.91842 114.02C1.76121 114.097 1.59032 114.141 1.4158 114.15Z" fill="#3E3126"/>
<path d="M45.9502 158.298H4.58268C3.98485 158.298 3.39288 158.18 2.84055 157.951C2.28823 157.723 1.78637 157.387 1.36364 156.964C0.940915 156.541 0.605583 156.039 0.376805 155.487C0.148025 154.935 0.0302735 154.343 0.0302735 153.745V122.099C0.0302165 121.73 0.175396 121.375 0.434543 121.111C0.693693 120.847 1.04607 120.696 1.41579 120.689C1.78551 120.696 2.13789 120.847 2.39704 121.111C2.65619 121.375 2.80136 121.73 2.80131 122.099V153.745C2.80131 154.218 2.98899 154.671 3.32306 155.005C3.65713 155.339 4.11023 155.526 4.58268 155.526H45.9502C46.3177 155.526 46.6701 155.672 46.9299 155.932C47.1898 156.192 47.3358 156.545 47.3358 156.912C47.3358 157.28 47.1898 157.632 46.9299 157.892C46.6701 158.152 46.3177 158.298 45.9502 158.298Z" fill="#3E3126"/>
<path d="M119.73 158.049H83.6563C83.3547 158.049 83.0654 157.929 82.8519 157.715C82.6384 157.502 82.5186 157.213 82.5186 156.911C82.5186 156.609 82.6384 156.32 82.8519 156.106C83.0654 155.893 83.3547 155.773 83.6563 155.773H119.73C120.031 155.773 120.321 155.893 120.534 156.106C120.748 156.32 120.867 156.609 120.867 156.911C120.867 157.213 120.748 157.502 120.534 157.715C120.321 157.929 120.031 158.049 119.73 158.049Z" fill="#3E3126"/>
<path d="M122.896 143.178C122.549 143.178 122.215 143.04 121.969 142.794C121.723 142.548 121.585 142.214 121.585 141.867V8.25765C121.572 6.8616 121.013 5.52598 120.029 4.53645C119.044 3.54694 117.711 2.98211 116.315 2.96278H91.7224C91.3743 2.96278 91.0409 2.82462 90.7952 2.5787C90.5489 2.33277 90.4111 1.99923 90.4111 1.65143C90.4111 1.30364 90.5489 0.970096 90.7952 0.724174C91.0409 0.478247 91.3743 0.340088 91.7224 0.340088L116.315 0.340088C118.422 0.340088 120.442 1.17687 121.931 2.66633C123.421 4.1558 124.257 6.17597 124.257 8.28238V141.891C124.257 142.067 124.222 142.24 124.153 142.401C124.083 142.562 123.982 142.708 123.854 142.828C123.727 142.949 123.576 143.042 123.411 143.102C123.247 143.162 123.071 143.188 122.896 143.178Z" fill="#3E3126"/>
<path d="M1.41579 62.1965C1.23745 62.2062 1.05892 62.1801 0.891161 62.1187C0.723395 62.0572 0.569941 61.9625 0.440203 61.8396C0.310466 61.7167 0.207184 61.5687 0.136693 61.4044C0.0662019 61.2405 0.0299887 61.0639 0.0302751 60.8851V8.28274C0.0334916 7.23228 0.244397 6.19287 0.650851 5.22423C1.05731 4.25564 1.6513 3.37697 2.39863 2.6388C3.14596 1.90065 4.03188 1.31756 5.00541 0.923115C5.97896 0.528669 7.02088 0.330642 8.07121 0.340434H80.0935C80.4412 0.340434 80.7745 0.478593 81.0208 0.724517C81.2666 0.970443 81.4048 1.30399 81.4048 1.65178C81.4048 1.99957 81.2666 2.33312 81.0208 2.57904C80.7745 2.82496 80.4412 2.96312 80.0935 2.96312H8.07121C6.65816 2.96311 5.30257 3.52277 4.30106 4.51969C3.29955 5.51661 2.73363 6.86959 2.72708 8.28274V60.8851C2.72708 61.2328 2.58893 61.5662 2.34302 61.8125C2.0971 62.0583 1.76357 62.1965 1.41579 62.1965Z" fill="#3E3126"/>
<path opacity="0.2" d="M36.3014 150.128C38.2417 150.128 39.8146 148.555 39.8146 146.615C39.8146 144.675 38.2417 143.102 36.3014 143.102C34.361 143.102 32.7881 144.675 32.7881 146.615C32.7881 148.555 34.361 150.128 36.3014 150.128Z" fill="#C9D2DF"/>
<path opacity="0.2" d="M41.2247 141.766C42.0036 141.766 42.635 141.134 42.635 140.355C42.635 139.577 42.0036 138.945 41.2247 138.945C40.4458 138.945 39.8145 139.577 39.8145 140.355C39.8145 141.134 40.4458 141.766 41.2247 141.766Z" fill="#C9D2DF"/>
<path opacity="0.2" d="M26.5284 148.029C27.3073 148.029 27.9387 147.397 27.9387 146.618C27.9387 145.839 27.3073 145.208 26.5284 145.208C25.7495 145.208 25.1182 145.839 25.1182 146.618C25.1182 147.397 25.7495 148.029 26.5284 148.029Z" fill="#C9D2DF"/>
<path d="M67.9949 168.957C71.1326 168.957 74.1771 167.893 76.6313 165.938C79.0854 163.983 80.8033 161.252 81.5037 158.194H99.3172V165.839H105.799V158.194H110.03V165.839H116.513V158.194H123.737C124.147 158.2 124.554 158.122 124.933 157.965C125.312 157.807 125.654 157.574 125.939 157.278C126.23 156.995 126.461 156.657 126.618 156.283C126.776 155.909 126.856 155.507 126.855 155.101C126.855 154.274 126.526 153.481 125.942 152.897C125.357 152.312 124.564 151.984 123.737 151.984H81.5037C80.917 149.444 79.6266 147.122 77.7798 145.282C75.9329 143.444 73.6047 142.163 71.063 141.587C68.5213 141.012 65.8685 141.165 63.4097 142.029C60.951 142.893 58.7861 144.433 57.163 146.472C55.5398 148.511 54.525 150.967 54.2347 153.557C53.9444 156.148 54.3903 158.767 55.5214 161.115C56.6525 163.463 58.4231 165.444 60.6294 166.831C62.8357 168.219 65.3887 168.955 67.9949 168.957ZM67.9949 148.841C69.233 148.841 70.4429 149.208 71.4726 149.896C72.5018 150.584 73.3041 151.562 73.7778 152.706C74.2514 153.849 74.3758 155.108 74.1341 156.322C73.8925 157.537 73.2964 158.652 72.4209 159.528C71.5453 160.403 70.4301 160.999 69.2161 161.24C68.0016 161.482 66.743 161.358 65.5991 160.884C64.4558 160.41 63.4778 159.608 62.7902 158.579C62.1025 157.55 61.7354 156.339 61.7354 155.101C61.7287 154.275 61.8859 153.456 62.1972 152.69C62.5091 151.925 62.9689 151.229 63.551 150.643C64.1327 150.056 64.825 149.591 65.5879 149.273C66.3503 148.955 67.1685 148.791 67.9949 148.791V148.841Z" fill="#FFB320"/>
<path d="M74.2305 156.091H126.657V154.532H74.2305V156.091Z" fill="#FFE56B"/>
<path d="M54.041 156.091H61.7603V154.532H54.041V156.091Z" fill="#FFE56B"/>
<path d="M74.2305 155.329H126.657V153.77H74.2305V155.329Z" fill="#FFE56B"/>
<path d="M54.041 155.329H61.7603V153.77H54.041V155.329Z" fill="#FFE56B"/>
<path d="M74.2539 160.401H80.8104L80.0434 161.96H74.2539V160.401Z" fill="#FFE56B"/>
<path d="M55.1787 160.401H61.7598V161.96H55.6242L55.1787 160.401Z" fill="#FFE56B"/>
<path d="M54.7344 151.267C55.4353 148.365 57.0549 145.768 59.3513 143.861C61.6478 141.954 64.4982 140.84 67.4792 140.684C70.4598 140.529 73.4111 141.34 75.8939 142.997C78.3762 144.654 80.2574 147.069 81.2569 149.881C77.6952 147.055 73.2595 145.559 68.7132 145.65C66.1219 145.57 63.5418 146.029 61.1357 146.995C58.7302 147.962 56.5505 149.416 54.7344 151.267Z" fill="#F27C00"/>
<path d="M115.597 163.637C115.44 163.637 115.289 163.574 115.177 163.463C115.066 163.352 115.004 163.201 115.004 163.043V157.352C115.004 157.275 115.019 157.197 115.049 157.126C115.079 157.053 115.123 156.988 115.177 156.933C115.233 156.878 115.298 156.834 115.371 156.804C115.442 156.774 115.52 156.759 115.597 156.759H121.981C122.139 156.759 122.29 156.822 122.401 156.933C122.512 157.044 122.575 157.195 122.575 157.352C122.575 157.51 122.512 157.661 122.401 157.772C122.29 157.884 122.139 157.946 121.981 157.946H116.315V163.142C116.285 163.303 116.193 163.445 116.058 163.538C115.924 163.63 115.758 163.666 115.597 163.637Z" fill="white"/>
<path d="M113.842 165.616H110.946C110.789 165.616 110.638 165.554 110.527 165.443C110.416 165.331 110.353 165.18 110.353 165.023V157.946H106.419C106.261 157.946 106.11 157.884 105.999 157.772C105.888 157.661 105.825 157.51 105.825 157.352C105.825 157.195 105.888 157.044 105.999 156.933C106.11 156.822 106.261 156.759 106.419 156.759H110.897C110.975 156.759 111.052 156.774 111.125 156.804C111.196 156.834 111.262 156.878 111.317 156.933C111.372 156.988 111.416 157.053 111.446 157.126C111.475 157.197 111.491 157.275 111.491 157.352V164.429H113.965C114.045 164.425 114.125 164.439 114.2 164.467C114.275 164.495 114.343 164.539 114.401 164.594C114.459 164.649 114.505 164.716 114.536 164.789C114.568 164.863 114.584 164.943 114.583 165.023C114.582 165.114 114.56 165.203 114.52 165.284C114.48 165.366 114.423 165.437 114.351 165.494C114.281 165.55 114.198 165.591 114.11 165.612C114.022 165.633 113.93 165.635 113.842 165.616Z" fill="white"/>
<path d="M103.276 165.616H100.258C100.1 165.616 99.9489 165.554 99.8378 165.443C99.7262 165.331 99.6637 165.18 99.6637 165.023V157.946H95.7795C95.6218 157.946 95.4707 157.884 95.3596 157.772C95.248 157.661 95.1855 157.51 95.1855 157.352C95.1855 157.195 95.248 157.044 95.3596 156.933C95.4707 156.822 95.6218 156.759 95.7795 156.759H100.258C100.415 156.759 100.566 156.822 100.678 156.933C100.789 157.044 100.851 157.195 100.851 157.352V164.429H103.325C103.483 164.429 103.634 164.491 103.745 164.603C103.857 164.714 103.919 164.865 103.919 165.023C103.92 165.105 103.903 165.187 103.87 165.262C103.837 165.337 103.789 165.405 103.728 165.461C103.668 165.517 103.596 165.56 103.518 165.586C103.44 165.613 103.358 165.624 103.276 165.616Z" fill="white"/>
<path d="M67.9945 169.904C66.0007 169.905 64.0268 169.505 62.1912 168.727C60.355 167.948 58.6951 166.808 57.3095 165.374C55.924 163.94 54.8415 162.242 54.1267 160.38C53.4125 158.519 53.0796 156.532 53.1498 154.539C53.3464 151.058 54.7617 147.758 57.1477 145.217C59.5338 142.675 62.738 141.054 66.1993 140.637C69.6601 140.221 73.1573 141.037 76.0779 142.94C78.998 144.845 81.1551 147.716 82.171 151.05H123.737C124.294 151.007 124.855 151.079 125.384 151.262C125.912 151.446 126.397 151.737 126.809 152.117C127.219 152.497 127.547 152.958 127.771 153.47C127.995 153.983 128.111 154.536 128.111 155.096C128.111 155.656 127.995 156.209 127.771 156.722C127.547 157.234 127.219 157.695 126.809 158.075C126.397 158.455 125.912 158.746 125.384 158.929C124.855 159.112 124.294 159.185 123.737 159.141H117.452V164.857C117.452 165.364 117.253 165.852 116.896 166.213C116.539 166.574 116.055 166.78 115.548 166.787H111.02C110.508 166.787 110.017 166.583 109.655 166.221C109.293 165.859 109.09 165.369 109.09 164.857V159.141H106.74V164.733C106.74 165.278 106.523 165.8 106.138 166.185C105.753 166.57 105.231 166.787 104.686 166.787H100.43C99.8856 166.787 99.3634 166.57 98.9783 166.185C98.5933 165.8 98.3767 165.278 98.3767 164.733V159.141H90.4843C90.2641 159.105 90.0644 158.992 89.92 158.822C89.7756 158.652 89.6963 158.437 89.6963 158.213C89.6963 157.991 89.7756 157.774 89.92 157.604C90.0644 157.434 90.2641 157.322 90.4843 157.285H99.3173C99.562 157.292 99.795 157.394 99.966 157.57C100.137 157.745 100.233 157.981 100.232 158.226V164.733C100.238 164.784 100.26 164.831 100.296 164.867C100.333 164.903 100.38 164.926 100.43 164.931H104.686C104.737 164.926 104.784 164.903 104.82 164.867C104.856 164.831 104.878 164.784 104.884 164.733V158.226C104.884 157.981 104.979 157.745 105.15 157.57C105.321 157.394 105.554 157.292 105.799 157.285H110.03C110.152 157.285 110.274 157.31 110.386 157.358C110.499 157.405 110.601 157.475 110.686 157.563C110.772 157.65 110.838 157.754 110.883 157.868C110.927 157.982 110.949 158.103 110.945 158.226V164.857H115.548V158.151C115.548 157.907 115.643 157.671 115.814 157.495C115.985 157.32 116.218 157.218 116.463 157.211H123.737C124.023 157.214 124.306 157.159 124.57 157.048C124.834 156.937 125.072 156.774 125.271 156.568C125.474 156.368 125.636 156.129 125.747 155.866C125.857 155.602 125.914 155.32 125.914 155.034C125.917 154.746 125.863 154.46 125.755 154.193C125.647 153.926 125.488 153.683 125.285 153.478C125.082 153.274 124.841 153.111 124.576 153C124.31 152.889 124.025 152.832 123.737 152.832H81.5033C81.2954 152.831 81.0937 152.76 80.9319 152.629C80.7701 152.499 80.6575 152.318 80.6124 152.114C79.9181 149.24 78.2601 146.691 75.9151 144.89C73.5695 143.089 70.678 142.146 67.7221 142.217C64.4492 142.324 61.3356 143.654 58.9946 145.944C56.6541 148.234 55.2573 151.319 55.0796 154.589C54.989 156.819 55.478 159.034 56.4985 161.019C57.5194 163.004 59.0371 164.69 60.9034 165.914C62.7698 167.137 64.9213 167.856 67.1486 168.001C69.3754 168.145 71.6017 167.71 73.6109 166.737C73.721 166.683 73.8408 166.652 73.9632 166.645C74.0856 166.639 74.208 166.656 74.3237 166.698C74.4389 166.739 74.5449 166.804 74.635 166.887C74.7251 166.97 74.7973 167.071 74.848 167.182C74.9519 167.403 74.9658 167.655 74.8874 167.886C74.8091 168.117 74.6442 168.308 74.4271 168.419C72.4215 169.391 70.2228 169.898 67.9945 169.904ZM79.4496 163.842C79.2658 163.843 79.0855 163.792 78.9304 163.694C78.8285 163.627 78.7409 163.54 78.6728 163.438C78.6052 163.336 78.5587 163.223 78.5356 163.103C78.5126 162.983 78.5136 162.86 78.5387 162.74C78.5643 162.621 78.6129 162.507 78.6826 162.407C79.594 161.072 80.2483 159.578 80.6124 158.003C80.6575 157.8 80.7701 157.618 80.9319 157.488C81.0937 157.358 81.2954 157.287 81.5033 157.285H86.9462C87.0808 157.263 87.2186 157.271 87.3502 157.308C87.4812 157.344 87.6031 157.408 87.707 157.497C87.811 157.585 87.8944 157.695 87.9518 157.819C88.0086 157.942 88.0383 158.077 88.0383 158.213C88.0383 158.35 88.0086 158.484 87.9518 158.608C87.8944 158.732 87.811 158.842 87.707 158.93C87.6031 159.018 87.4812 159.083 87.3502 159.119C87.2186 159.156 87.0808 159.163 86.9462 159.141H82.2452C81.8049 160.676 81.1203 162.13 80.2166 163.446C80.1326 163.572 80.0184 163.674 79.8843 163.743C79.7501 163.813 79.6006 163.847 79.4496 163.842ZM67.9945 162.284C66.5752 162.284 65.1881 161.863 64.0084 161.074C62.8281 160.286 61.9085 159.165 61.3658 157.854C60.8225 156.543 60.6807 155.1 60.9572 153.708C61.2342 152.317 61.9178 151.038 62.9208 150.034C63.9244 149.031 65.2029 148.348 66.5946 148.071C67.9863 147.794 69.4292 147.936 70.74 148.479C72.0513 149.022 73.1716 149.942 73.9601 151.122C74.7487 152.302 75.1695 153.689 75.1695 155.108C75.1695 157.011 74.4133 158.836 73.0682 160.182C71.7226 161.527 69.8972 162.284 67.9945 162.284ZM67.9945 149.789C66.9423 149.789 65.9141 150.1 65.0391 150.685C64.1645 151.269 63.4825 152.101 63.0801 153.072C62.6776 154.045 62.5721 155.114 62.7775 156.146C62.9828 157.178 63.4892 158.126 64.2331 158.87C64.9771 159.614 65.9249 160.12 66.9566 160.326C67.9884 160.531 69.058 160.425 70.0303 160.023C71.0021 159.62 71.8327 158.938 72.4174 158.064C73.0016 157.189 73.314 156.161 73.314 155.108C73.314 153.698 72.7533 152.344 71.7559 151.347C70.7584 150.349 69.4051 149.789 67.9945 149.789Z" fill="#3E3126"/>
<path d="M77.1 166.762C77.6739 166.762 78.1389 166.296 78.1389 165.723C78.1389 165.149 77.6739 164.683 77.1 164.683C76.526 164.683 76.0605 165.149 76.0605 165.723C76.0605 166.296 76.526 166.762 77.1 166.762Z" fill="#3E3126"/>
<path d="M1.41643 68.187C2.08598 68.187 2.62876 67.6442 2.62876 66.9745C2.62876 66.3052 2.08598 65.7625 1.41643 65.7625C0.746881 65.7625 0.204102 66.3052 0.204102 66.9745C0.204102 67.6442 0.746881 68.187 1.41643 68.187Z" fill="#3E3126"/>
<path d="M85.9078 2.86079C86.5775 2.86079 87.1203 2.31799 87.1203 1.64841C87.1203 0.978836 86.5775 0.436035 85.9078 0.436035C85.2381 0.436035 84.6953 0.978836 84.6953 1.64841C84.6953 2.31799 85.2381 2.86079 85.9078 2.86079Z" fill="#3E3126"/>
<path d="M108.076 43.2919C107.978 43.316 107.876 43.316 107.779 43.2919C107.691 43.2566 107.611 43.2042 107.543 43.1376C107.476 43.0711 107.422 42.9919 107.385 42.9044C107.348 42.817 107.329 42.7231 107.329 42.6283C107.329 42.5334 107.347 42.4394 107.383 42.3517L111.367 32.9744C111.439 32.7972 111.578 32.6559 111.755 32.5817C111.931 32.5074 112.13 32.5063 112.307 32.5784C112.484 32.6506 112.626 32.7903 112.7 32.9666C112.774 33.1429 112.775 33.3415 112.703 33.5187L108.744 42.8465C108.696 42.9832 108.605 43.1005 108.484 43.1808C108.364 43.2611 108.221 43.3001 108.076 43.2919Z" fill="#3E3126"/>
<path d="M113.297 38.7949C113.207 38.8169 113.114 38.8169 113.025 38.7949C112.937 38.7596 112.856 38.7072 112.789 38.6406C112.721 38.5741 112.667 38.4949 112.631 38.4075C112.594 38.32 112.575 38.2261 112.574 38.1313C112.574 38.0364 112.593 37.9424 112.629 37.8547L114.732 32.9063C114.767 32.8185 114.82 32.7387 114.887 32.6713C114.953 32.6039 115.032 32.5503 115.12 32.5136C115.207 32.4768 115.301 32.4576 115.395 32.457C115.49 32.4565 115.584 32.4746 115.672 32.5103C115.76 32.5461 115.839 32.5988 115.907 32.6654C115.974 32.732 116.028 32.8112 116.065 32.8985C116.101 32.9858 116.121 33.0795 116.121 33.1742C116.122 33.2689 116.104 33.3629 116.068 33.4506L113.94 38.3991C113.882 38.5202 113.791 38.6221 113.677 38.6924C113.563 38.7627 113.431 38.7982 113.297 38.7949Z" fill="#3E3126"/>
</g>
</g>
<defs>
<clipPath id="clip0_764_2842">
<rect width="149" height="170" fill="white"/>
</clipPath>
</defs>
</svg>
