<svg width="55" height="195" viewBox="0 0 55 195" fill="none" xmlns="http://www.w3.org/2000/svg">
<g clip-path="url(#clip0_764_2814)">
<path d="M44.9087 4.5C44.9087 3.80965 44.3438 3.25 43.6472 3.25C42.9506 3.25 42.3857 3.80965 42.3857 4.5V15.5C42.3857 16.1903 42.9506 16.75 43.6472 16.75C44.3438 16.75 44.9087 16.1903 44.9087 15.5V4.5Z" fill="#2D415B"/>
<path d="M35.8262 22.25L39.106 11.25H48.4408L51.4684 22.25" fill="#495D7A"/>
<path d="M47.6834 11H44.9082L47.9357 22H50.711L47.6834 11Z" fill="#364B65"/>
<path opacity="0.15" d="M42.8901 10.25L39.6103 21.25H35.3213L37.4961 14.805C38.3009 12.105 40.0467 10.25 42.8901 10.25Z" fill="#E9FFFF"/>
<path d="M51.4681 21H35.7628L33.4922 30.75L35.7628 184.867C35.7628 189.042 38.316 192.545 41.7649 193.518C41.8784 193.55 41.992 193.58 42.108 193.607C42.3931 193.673 42.6822 193.721 42.9734 193.75C43.1719 193.77 43.3738 193.781 43.5789 193.783H43.647C43.8521 193.783 44.054 193.772 44.2525 193.75C44.5437 193.721 44.8328 193.673 45.1179 193.607C45.2339 193.58 45.3475 193.55 45.461 193.518C48.9098 192.545 51.4631 189.042 51.4631 184.867L53.7387 30.75L51.4681 21Z" fill="#495D7A"/>
<path opacity="0.15" d="M45.645 193.607C45.5289 193.58 45.4154 193.55 45.3018 193.518C41.853 192.545 39.2998 189.042 39.2998 184.867L37.0291 30.75L39.2998 21H36.5245L34.2539 30.75L36.5245 184.867C36.5245 189.042 39.0778 192.545 42.5266 193.518C42.6401 193.55 42.7537 193.58 42.8697 193.607C43.1548 193.673 43.444 193.721 43.7351 193.75C43.9337 193.77 44.1355 193.781 44.3406 193.783H44.4037C44.6088 193.783 44.8106 193.772 45.0092 193.75C45.2635 193.723 45.516 193.684 45.7661 193.63L45.645 193.607Z" fill="#E9FFFF"/>
<path d="M51.2153 21H47.4309L49.7015 30.75L47.4309 184.867C47.4309 189.025 44.9079 192.515 41.4717 193.505L41.5146 193.518C41.6281 193.55 41.7416 193.58 41.8577 193.607C42.1428 193.673 42.4319 193.721 42.7231 193.75C42.9216 193.77 43.1234 193.781 43.3286 193.783H43.3942C43.5993 193.783 43.8011 193.772 43.9997 193.75C44.2908 193.721 44.5799 193.673 44.865 193.607C44.9811 193.58 45.0946 193.55 45.2081 193.518C48.657 192.545 51.2102 189.042 51.2102 184.867L53.4859 30.75L51.2153 21Z" fill="#364B65"/>
<path d="M9.33507 14.75V71.75C7.3946 71.75 5.53363 70.9863 4.16151 69.6265C2.78939 68.267 2.01855 66.4227 2.01855 64.5V22C2.01855 20.0772 2.78939 18.2331 4.16151 16.8735C5.53363 15.5138 7.3946 14.75 9.33507 14.75Z" fill="#EBEFF7"/>
<path d="M4.79319 64.5V22C4.79317 20.752 5.11827 19.525 5.73707 18.438C6.35585 17.3509 7.24735 16.4406 8.3253 15.795V14.75C6.38484 14.75 4.52387 15.5138 3.15175 16.8735C1.77963 18.2331 1.00879 20.0772 1.00879 22V64.5C1.00879 66.4227 1.77963 68.267 3.15175 69.6265C4.52387 70.9863 6.38484 71.75 8.3253 71.75V70.705C7.24735 70.0595 6.35585 69.149 5.73707 68.062C5.11827 66.975 4.79317 65.748 4.79319 64.5Z" fill="white"/>
<path d="M24.4726 8.625C24.4726 4.27575 20.9145 0.75 16.5254 0.75C12.1362 0.75 8.57812 4.27575 8.57812 8.625V186.375C8.57812 190.724 12.1362 194.25 16.5254 194.25C20.9145 194.25 24.4726 190.724 24.4726 186.375V8.625Z" fill="#DD5E60"/>
<path d="M16.0203 0.75C15.5978 0.750275 15.176 0.783713 14.7588 0.85C16.6239 1.14713 18.3212 2.09287 19.5464 3.51765C20.7716 4.94245 21.4445 6.75313 21.4446 8.625V186.375C21.444 188.247 20.7709 190.057 19.5458 191.482C18.3207 192.906 16.6237 193.852 14.7588 194.15C15.176 194.216 15.5978 194.25 16.0203 194.25C18.128 194.25 20.1494 193.42 21.6398 191.943C23.1302 190.466 23.9675 188.464 23.9675 186.375V8.625C23.9675 6.53643 23.1302 4.53338 21.6398 3.05652C20.1494 1.57968 18.128 0.75 16.0203 0.75Z" fill="#EEA2A4"/>
<path d="M17.0303 194.5C17.4527 194.5 17.8746 194.466 18.2917 194.4C16.4266 194.103 14.7293 193.157 13.5041 191.732C12.2789 190.308 11.606 188.497 11.6059 186.625V8.875C11.6065 7.00325 12.2796 5.19285 13.5047 3.76817C14.7298 2.34348 16.4268 1.3976 18.2917 1.1C17.8746 1.03371 17.4527 1.00027 17.0303 1C14.9225 1 12.9011 1.82968 11.4107 3.30652C9.92029 4.78338 9.08301 6.78643 9.08301 8.875V186.625C9.08301 188.714 9.92029 190.716 11.4107 192.193C12.9011 193.67 14.9225 194.5 17.0303 194.5Z" fill="#B0535A"/>
<path d="M16.5254 195C14.2178 194.997 12.0054 194.088 10.3736 192.471C8.74186 190.854 7.82396 188.662 7.82129 186.375V8.625C7.82129 6.3375 8.73833 4.1437 10.3707 2.5262C12.003 0.908703 14.2169 0 16.5254 0C18.8339 0 21.0478 0.908703 22.6802 2.5262C24.3125 4.1437 25.2295 6.3375 25.2295 8.625V186.375C25.2269 188.662 24.309 190.854 22.6772 192.471C21.0455 194.088 18.8331 194.997 16.5254 195ZM16.5254 1.5C14.619 1.50198 12.7913 2.25329 11.4433 3.58905C10.0953 4.92483 9.33704 6.73595 9.33505 8.625V186.375C9.33505 188.265 10.0926 190.077 11.4411 191.413C12.7895 192.749 14.6184 193.5 16.5254 193.5C18.4324 193.5 20.2613 192.749 21.6098 191.413C22.9582 190.077 23.7158 188.265 23.7158 186.375V8.625C23.7138 6.73595 22.9556 4.92483 21.6076 3.58905C20.2595 2.25329 18.4318 1.50198 16.5254 1.5Z" fill="#385868"/>
<path d="M9.33486 72.75H8.32569C6.11759 72.75 3.99991 71.8807 2.43854 70.3337C0.877169 68.7865 0 66.688 0 64.5V22C0 19.812 0.877169 17.7135 2.43854 16.1664C3.99991 14.6192 6.11759 13.75 8.32569 13.75H9.33486V72.75ZM7.31651 15.83C5.83785 16.0675 4.49274 16.8187 3.52199 17.9492C2.55124 19.0797 2.01822 20.5156 2.01835 22V64.5C2.01822 65.9842 2.55124 67.4202 3.52199 68.5508C4.49274 69.6813 5.83785 70.4325 7.31651 70.67V15.83Z" fill="#385868"/>
<path d="M23.9676 15.5H8.69629V18H23.9676V15.5Z" fill="#385868"/>
<path d="M24.336 66.5H8.69629V69H24.336V66.5Z" fill="#385868"/>
<path d="M36.7945 21.2825L34.8594 20.715L36.8348 14.0675C37.2769 12.6069 38.1811 11.3258 39.414 10.4134C40.647 9.50095 42.1433 9.00543 43.6821 9H43.7603C45.3248 9.0027 46.8451 9.51378 48.0881 10.4549C49.3314 11.3959 50.2288 12.715 50.6429 14.21L52.4392 20.7375L50.4915 21.265L48.6926 14.735C48.3959 13.664 47.7531 12.719 46.8627 12.0444C45.9724 11.3699 44.8835 11.003 43.7628 11H43.6846C42.5818 11.0047 41.5098 11.3602 40.6263 12.0142C39.7428 12.6682 39.0949 13.586 38.7775 14.6325L36.7945 21.2825Z" fill="#2D415B"/>
<path d="M53.5188 42.8398H33.6885V45.3398H53.5188V42.8398Z" fill="#F1A01C"/>
<path d="M43.6467 194.785H42.5744V194.708C42.3801 194.68 42.1884 194.647 42.0017 194.607L41.8806 194.58C41.7494 194.55 41.6283 194.515 41.4921 194.477C37.5311 193.36 34.7609 189.407 34.7609 184.867L32.4902 30.6425L34.9602 20H52.2701L54.7476 30.6425L52.4769 184.893C52.4769 189.42 49.7017 193.373 45.7432 194.49C45.6171 194.525 45.4909 194.56 45.3572 194.59L45.2311 194.617C45.0418 194.657 44.8501 194.693 44.6584 194.717V194.792L43.6467 194.785ZM42.2843 192.62H42.3398C42.5843 192.676 42.832 192.717 43.0815 192.742C43.2455 192.76 43.4171 192.768 43.5861 192.77H43.6467C43.8233 192.77 43.9948 192.77 44.1512 192.742C44.4008 192.717 44.6485 192.676 44.893 192.62L44.9762 192.6L45.1882 192.542C48.2939 191.667 50.4611 188.505 50.4611 184.852L52.7317 30.8525L50.6655 22H36.5648L34.501 30.8575L36.7717 184.857C36.7717 188.525 38.9389 191.685 42.0421 192.56L42.2843 192.62Z" fill="#2D415B"/>
<path d="M39.6807 122.875L39.9557 139.715L40.3947 166.57L40.4956 172.75C40.4956 173.232 41.2525 173.232 41.2525 172.75L40.9775 155.91L40.5385 129.055L40.4375 122.875C40.4375 122.392 39.6807 122.392 39.6807 122.875Z" fill="white"/>
<path d="M39.2266 95.1246L39.5621 115.625C39.5621 116.107 40.319 116.107 40.319 115.625L39.9834 95.1246C39.9834 94.6421 39.2266 94.6421 39.2266 95.1246Z" fill="white"/>
<path d="M38.7422 65.3775L39.1105 87.9525L39.1635 91.125C39.1635 91.6075 39.9204 91.6075 39.9204 91.125L39.5521 68.55L39.4991 65.3775C39.4991 64.895 38.7422 64.895 38.7422 65.3775Z" fill="white"/>
<path d="M38.4746 48.9996L38.6739 61.2496C38.6739 61.7321 39.4308 61.7321 39.4308 61.2496L39.2315 48.9996C39.2315 48.5171 38.4746 48.5171 38.4746 48.9996Z" fill="white"/>
</g>
<defs>
<clipPath id="clip0_764_2814">
<rect width="55" height="195" fill="white"/>
</clipPath>
</defs>
</svg>
