<svg width="262" height="147" viewBox="0 0 262 147" fill="none" xmlns="http://www.w3.org/2000/svg">
<mask id="mask0_763_2190" style="mask-type:luminance" maskUnits="userSpaceOnUse" x="0" y="0" width="262" height="147">
<path d="M262 0H0V147H262V0Z" fill="white"/>
</mask>
<g mask="url(#mask0_763_2190)">
<path d="M19.9972 40.8925C19.7453 40.893 19.5011 40.8054 19.3071 40.645C19.0882 40.4644 18.9496 40.2049 18.9214 39.9228C18.8931 39.6405 18.9776 39.3587 19.1562 39.1385C19.7363 38.4304 20.3629 37.7617 21.0321 37.1368C21.2341 36.9364 21.5072 36.8239 21.7921 36.8239C22.077 36.8239 22.3501 36.9364 22.5521 37.1368C22.6531 37.2368 22.7334 37.3559 22.7881 37.4871C22.8429 37.6181 22.871 37.7589 22.871 37.9008C22.871 38.0429 22.8429 38.1836 22.7881 38.3147C22.7334 38.4459 22.6531 38.5648 22.5521 38.6649C21.9559 39.2259 21.3943 39.8224 20.8703 40.4514C20.7699 40.5884 20.6385 40.6999 20.4868 40.7765C20.335 40.8532 20.1673 40.893 19.9972 40.8925Z" fill="#183154"/>
<g opacity="0.3">
<path opacity="0.3" d="M58.8188 61.3937V140.016C58.8202 140.801 58.6659 141.578 58.3647 142.303C58.0636 143.028 57.6217 143.686 57.0644 144.239C56.507 144.792 55.8456 145.23 55.1177 145.526C54.3901 145.823 53.6108 145.973 52.8248 145.967H42.5509C44.5523 145.967 46.4717 145.173 47.887 143.761C49.3023 142.348 50.0972 140.432 50.0972 138.434C50.0972 136.436 49.3023 134.52 47.887 133.108C46.4717 131.695 44.5523 130.901 42.5509 130.901H7.5464C5.54497 130.901 3.6255 130.108 2.21028 128.695C0.795065 127.282 0 125.366 0 123.368C0 121.371 0.795065 119.454 2.21028 118.042C3.6255 116.629 5.54497 115.835 7.5464 115.835H26.671C28.6726 115.835 30.5921 115.042 32.0072 113.629C33.4224 112.216 34.2176 110.3 34.2176 108.302C34.2176 106.305 33.4224 104.389 32.0072 102.976C30.5921 101.563 28.6726 100.77 26.671 100.77H7.5464C5.54497 100.77 3.6255 99.9759 2.21028 98.5632C0.795065 97.1505 3.18056e-07 95.2344 3.18056e-07 93.2366C3.18056e-07 91.2387 0.795065 89.3228 2.21028 87.91C3.6255 86.4973 5.54497 85.7036 7.5464 85.7036H32.1799C34.1814 85.7036 36.1009 84.91 37.516 83.4972C38.9313 82.0845 39.7264 80.1686 39.7264 78.1707C39.7264 76.1729 38.9313 74.2568 37.516 72.8441C36.1009 71.4313 34.1814 70.6378 32.1799 70.6378H17.9281C15.9266 70.6378 14.0072 69.844 12.592 68.4315C11.1767 67.0187 10.3817 65.1027 10.3817 63.1049C10.3817 61.1069 11.1767 59.1909 12.592 57.7783C14.0072 56.3656 15.9266 55.5718 17.9281 55.5718H52.8248C54.3901 55.5602 55.897 56.1647 57.0191 57.2546C58.141 58.3443 58.7875 59.8314 58.8188 61.3937Z" fill="#BDDFE9"/>
<path opacity="0.3" d="M203.182 29.0557V107.678C203.182 109.254 203.808 110.764 204.924 111.878C206.04 112.993 207.554 113.618 209.133 113.618H219.438C217.437 113.618 215.517 112.825 214.103 111.412C212.688 109.999 211.892 108.083 211.892 106.085C211.892 104.088 212.688 102.171 214.103 100.759C215.517 99.346 217.437 98.5525 219.438 98.5525H254.421C256.423 98.5525 258.342 97.7587 259.758 96.3462C261.173 94.9334 261.967 93.0174 261.967 91.0196C261.967 89.0216 261.173 87.1055 259.758 85.693C258.342 84.2802 256.423 83.4865 254.421 83.4865H235.329C233.327 83.4865 231.408 82.6929 229.993 81.2802C228.578 79.8675 227.783 77.9514 227.783 75.9536C227.783 73.9558 228.578 72.0398 229.993 70.627C231.408 69.2143 233.327 68.4207 235.329 68.4207H254.421C256.423 68.4207 258.342 67.627 259.758 66.2143C261.173 64.8017 261.967 62.8856 261.967 60.8877C261.967 58.8899 261.173 56.9738 259.758 55.5611C258.342 54.1485 256.423 53.3548 254.421 53.3548H229.81C227.808 53.3548 225.889 52.5612 224.473 51.1485C223.058 49.7357 222.264 47.8197 222.264 45.8219C222.264 43.8239 223.058 41.908 224.473 40.4953C225.889 39.0826 227.808 38.289 229.81 38.289H244.072C246.074 38.289 247.993 37.4952 249.408 36.0825C250.824 34.6698 251.618 32.7539 251.618 30.7559C251.618 28.7581 250.824 26.8421 249.408 25.4293C247.993 24.0166 246.074 23.223 244.072 23.223H209.142C207.582 23.2199 206.081 23.8298 204.966 24.921C203.85 26.012 203.209 27.4971 203.182 29.0557Z" fill="#BDDFE9"/>
</g>
<path d="M209.186 80.9144H57.3086V128.813H209.186V80.9144Z" fill="#8BBBC6"/>
<path d="M213.056 102.287H50.194C45.4249 102.287 41.5586 106.146 41.5586 110.907V137.046C41.5586 141.807 45.4249 145.666 50.194 145.666H213.056C217.826 145.666 221.691 141.807 221.691 137.046V110.907C221.691 106.146 217.826 102.287 213.056 102.287Z" fill="#EBEDED"/>
<path d="M210.296 74.9313H58.4199V98.1651H210.296V74.9313Z" fill="#6798A0"/>
<path d="M20.4824 59.6284C20.4824 55.6513 21.6618 51.763 23.8719 48.4538C26.082 45.1446 29.2239 42.5626 32.9017 41.0328C32.6109 39.4968 32.4664 37.9365 32.4705 36.3732C32.5547 30.2374 34.8248 24.3321 38.8739 19.7149C42.9231 15.0979 48.4868 12.0708 54.5684 11.176C60.6501 10.2812 66.8522 11.5771 72.0636 14.8316C77.2751 18.0862 81.1556 23.0866 83.0097 28.9371C85.0183 28.4517 87.0773 28.2062 89.1439 28.2053C100.054 28.2053 95.7201 42.6471 99.4931 52.2031C100.658 55.1302 114.963 50.6427 114.963 53.9788C114.963 60.8286 112.237 67.3979 107.385 72.2414C102.533 77.0849 95.952 79.8059 89.09 79.8059L43.542 80.9144V65.1059" fill="#BDDFE9"/>
<path d="M54.0099 19.6608L49.0725 17.0888L43.5312 17.5838L46.1078 12.6552L45.6119 7.12384L50.5494 9.6958L56.0906 9.20078L53.5141 14.1295L54.0099 19.6608Z" fill="#EEF0F1"/>
<path d="M42.658 39.8062C43.688 39.8062 44.5231 38.9726 44.5231 37.9444C44.5231 36.9162 43.688 36.0827 42.658 36.0827C41.628 36.0827 40.793 36.9162 40.793 37.9444C40.793 38.9726 41.628 39.8062 42.658 39.8062Z" fill="#EEF0F1"/>
<path d="M171.799 62.7923C175.71 62.781 179.496 61.419 182.515 58.9376C185.535 56.4564 187.599 53.0087 188.363 49.1797C189.124 45.3508 188.534 41.3768 186.695 37.9322C184.855 34.4875 181.877 31.7846 178.268 30.2823C178.507 28.9904 178.626 27.679 178.623 26.3652C178.62 21.1756 176.747 16.1605 173.347 12.2341C169.947 8.30761 165.248 5.73127 160.104 4.97472C154.961 4.21817 149.717 5.33176 145.327 8.11251C140.938 10.8933 137.695 15.156 136.191 20.1236C134.507 19.7219 132.781 19.516 131.049 19.5102C128.202 19.5102 125.383 20.0699 122.752 21.1575C120.122 22.2451 117.732 23.8392 115.719 25.8488C113.706 27.8583 112.109 30.2439 111.019 32.8695C109.93 35.4952 109.369 38.3094 109.369 41.1513C109.369 43.9933 109.93 46.8073 111.019 49.4329C112.109 52.0585 113.706 54.4443 115.719 56.4538C117.732 58.4634 120.122 60.0575 122.752 61.1451C125.383 62.2327 128.202 62.7923 131.049 62.7923H171.799Z" fill="white"/>
<path d="M186.752 44.724C186.749 49.1089 185.002 53.3133 181.895 56.4129C178.788 59.5125 174.574 61.2535 170.183 61.2535H130.294C126.727 61.2575 123.216 60.3608 120.089 58.6468C116.962 56.9327 114.32 54.457 112.409 51.45C115.807 53.6207 119.759 54.7713 123.794 54.7644H163.681C168.074 54.7644 172.288 53.0232 175.395 49.9237C178.502 46.8241 180.249 42.6199 180.251 38.235C180.257 35.4452 179.548 32.7004 178.193 30.2609C180.787 31.6844 182.951 33.7782 184.456 36.3225C185.961 38.867 186.754 41.7689 186.752 44.724Z" fill="#BDDFE9"/>
<path d="M170.774 62.4805H130.887C127.791 62.4564 124.735 61.7889 121.912 60.5209C119.089 59.2527 116.561 57.4117 114.49 55.115C112.419 52.8183 110.85 50.1162 109.883 47.1808C108.916 44.2455 108.571 41.1412 108.872 38.0658C109.173 34.9902 110.112 32.011 111.629 29.3176C113.146 26.6243 115.209 24.2758 117.686 22.4221C120.162 20.5682 122.999 19.2494 126.014 18.55C129.029 17.8504 132.157 17.7853 135.199 18.359C136.918 13.3585 140.364 9.13262 144.921 6.43865C149.478 3.74469 154.847 2.75881 160.065 3.65771C165.284 4.55661 170.012 7.28155 173.401 11.3441C176.789 15.4066 178.618 20.5411 178.559 25.8273C178.562 26.9075 178.487 27.9866 178.332 29.0557C181.955 30.7654 184.886 33.6555 186.643 37.25C188.4 40.8446 188.879 44.9293 188.001 48.8319C187.122 52.7343 184.938 56.2218 181.81 58.7202C178.68 61.2185 174.793 62.5789 170.786 62.5773L170.774 62.4805ZM130.887 20.1346C125.628 20.2561 120.625 22.4267 116.949 26.1824C113.273 29.938 111.215 34.9804 111.215 40.2313C111.215 45.4822 113.273 50.5247 116.949 54.2803C120.625 58.0361 125.628 60.2067 130.887 60.3282H170.774C174.352 60.3212 177.817 59.0785 180.581 56.811C183.344 54.5433 185.237 51.3907 185.937 47.8885C186.636 44.3861 186.1 40.7501 184.42 37.5977C182.738 34.4453 180.017 31.9709 176.715 30.5946L175.906 30.2501L176.068 29.3893C176.295 28.1975 176.408 26.9868 176.403 25.7736C176.398 20.956 174.659 16.3005 171.505 12.6553C168.349 9.01013 163.986 6.61806 159.212 5.91505C154.438 5.21203 149.569 6.24488 145.494 8.82534C141.419 11.4058 138.408 15.3621 137.01 19.9732L136.708 20.9524L135.716 20.7049C134.149 20.3266 132.542 20.1352 130.93 20.1346H130.887Z" fill="#183154"/>
<path d="M213.368 52.2246H50.5063C45.7372 52.2246 41.8711 56.0838 41.8711 60.8444V86.9837C41.8711 91.7443 45.7372 95.6035 50.5063 95.6035H213.368C218.138 95.6035 222.003 91.7443 222.003 86.9837V60.8444C222.003 56.0838 218.138 52.2246 213.368 52.2246Z" fill="white"/>
<path d="M214.155 51.4929H51.2934C46.5243 51.4929 42.6582 55.3522 42.6582 60.1127V86.2521C42.6582 91.0127 46.5243 94.8719 51.2934 94.8719H214.155C218.924 94.8719 222.791 91.0127 222.791 86.2521V60.1127C222.791 55.3522 218.924 51.4929 214.155 51.4929Z" fill="#EBEDED"/>
<path d="M118.069 51.7513C118.069 58.6011 115.343 65.1703 110.491 70.0139C105.638 74.8574 99.0573 77.5785 92.1953 77.5785H43.6828H42.8203V72.2731H84.3255C90.3366 72.275 96.1596 70.1815 100.789 66.3541C105.418 62.5267 108.564 57.2057 109.681 51.31H118.058C118.069 51.45 118.069 51.6544 118.069 51.7513Z" fill="#C5D1D1"/>
<path d="M57.3095 80.3225C61.5427 80.3225 64.9746 76.897 64.9746 72.6712C64.9746 68.4455 61.5427 65.0198 57.3095 65.0198C53.0764 65.0198 49.6445 68.4455 49.6445 72.6712C49.6445 76.897 53.0764 80.3225 57.3095 80.3225Z" fill="white"/>
<path d="M80.2939 80.3225C84.5271 80.3225 87.9589 76.897 87.9589 72.6712C87.9589 68.4455 84.5271 65.0198 80.2939 65.0198C76.0607 65.0198 72.6289 68.4455 72.6289 72.6712C72.6289 76.897 76.0607 80.3225 80.2939 80.3225Z" fill="white"/>
<path d="M221.788 60.1234V86.2521C221.788 88.5352 220.879 90.725 219.263 92.3396C217.645 93.954 215.451 94.8611 213.165 94.8611H165.352C164.2 94.8611 163.095 94.4041 162.28 93.5908C161.465 92.7775 161.008 91.6744 161.008 90.5242C161.008 89.374 161.465 88.2709 162.28 87.4576C163.095 86.6443 164.2 86.1875 165.352 86.1875H209.316C210.468 86.1875 211.573 85.7305 212.388 84.9172C213.202 84.1038 213.66 83.0008 213.66 81.8506C213.66 80.7003 213.202 79.5973 212.388 78.7839C211.573 77.9706 210.468 77.5138 209.316 77.5138H181.287C180.716 77.5138 180.151 77.4016 179.623 77.1836C179.096 76.9658 178.618 76.6463 178.214 76.2435C177.81 75.8408 177.49 75.3628 177.272 74.8366C177.053 74.3105 176.941 73.7465 176.941 73.1769C176.941 72.6075 177.053 72.0435 177.272 71.5173C177.49 70.9912 177.81 70.5131 178.214 70.1103C178.618 69.7076 179.096 69.3882 179.623 69.1702C180.151 68.9522 180.716 68.8402 181.287 68.8402H194.751C195.905 68.8402 197.011 68.3827 197.827 67.5684C198.643 66.7541 199.1 65.6496 199.1 64.4979C199.1 63.3463 198.643 62.2418 197.827 61.4275C197.011 60.6132 195.905 60.1557 194.751 60.1557H174.764C173.611 60.1557 172.506 59.6987 171.692 58.8854C170.877 58.0721 170.419 56.969 170.419 55.819C170.419 54.6688 170.877 53.5657 171.692 52.7524C172.506 51.9391 173.611 51.4821 174.764 51.4821H213.142C214.279 51.4793 215.405 51.7009 216.456 52.1344C217.507 52.5677 218.463 53.2043 219.266 54.0073C220.07 54.8105 220.706 55.7643 221.139 56.8141C221.572 57.8636 221.793 58.9884 221.788 60.1234Z" fill="#C5D1D1"/>
<path d="M138.638 52.8274H131.631C131.345 52.8274 131.071 52.714 130.869 52.5122C130.666 52.3106 130.553 52.0368 130.553 51.7513C130.553 51.4659 130.666 51.1922 130.869 50.9903C131.071 50.7885 131.345 50.6753 131.631 50.6753H138.638C138.924 50.6753 139.198 50.7885 139.4 50.9903C139.603 51.1922 139.716 51.4659 139.716 51.7513C139.716 52.0368 139.603 52.3106 139.4 52.5122C139.198 52.714 138.924 52.8274 138.638 52.8274Z" fill="#183154"/>
<path d="M213.52 96.2174H50.6693C48.096 96.2174 45.628 95.197 43.8086 93.3807C41.989 91.5643 40.9668 89.1009 40.9668 86.5322V60.382C40.9668 57.8134 41.989 55.3499 43.8086 53.5336C45.628 51.7174 48.096 50.6968 50.6693 50.6968H124.042C124.328 50.6968 124.602 50.8102 124.804 51.012C125.006 51.2139 125.12 51.4876 125.12 51.773C125.12 52.0585 125.006 52.3321 124.804 52.5339C124.602 52.7357 124.328 52.8491 124.042 52.8491H50.6693C48.6678 52.8491 46.7483 53.6429 45.3332 55.0554C43.9179 56.4682 43.1228 58.3842 43.1228 60.382V86.5107C43.1228 88.5085 43.9179 90.4245 45.3332 91.8373C46.7483 93.25 48.6678 94.0436 50.6693 94.0436H213.52C215.522 94.0436 217.441 93.25 218.856 91.8373C220.272 90.4245 221.066 88.5085 221.066 86.5107V60.382C221.066 58.3842 220.272 56.4682 218.856 55.0554C217.441 53.6429 215.522 52.8491 213.52 52.8491H152.007C151.721 52.8491 151.446 52.7357 151.244 52.5339C151.042 52.3321 150.929 52.0585 150.929 51.773C150.929 51.4876 151.042 51.2139 151.244 51.012C151.446 50.8102 151.721 50.6968 152.007 50.6968H213.531C216.104 50.6968 218.572 51.7174 220.391 53.5336C222.212 55.3499 223.233 57.8134 223.233 60.382V86.5107C223.237 87.7852 222.987 89.0478 222.5 90.2261C222.013 91.4044 221.298 92.475 220.396 93.3769C219.494 94.2787 218.422 94.9938 217.242 95.4813C216.062 95.9686 214.797 96.2189 213.52 96.2174Z" fill="#183154"/>
<path d="M145.074 52.8274H142.552C142.266 52.8274 141.992 52.714 141.789 52.5122C141.587 52.3106 141.474 52.0368 141.474 51.7513C141.474 51.4659 141.587 51.1922 141.789 50.9903C141.992 50.7885 142.266 50.6753 142.552 50.6753H145.074C145.36 50.6753 145.634 50.7885 145.837 50.9903C146.039 51.1922 146.152 51.4659 146.152 51.7513C146.152 52.0368 146.039 52.3106 145.837 52.5122C145.634 52.714 145.36 52.8274 145.074 52.8274Z" fill="#183154"/>
<path d="M221.065 111.993V138.122C221.065 140.405 220.157 142.595 218.54 144.209C216.922 145.824 214.729 146.731 212.442 146.731H164.63C163.478 146.731 162.372 146.274 161.558 145.461C160.743 144.647 160.285 143.544 160.285 142.394C160.285 141.244 160.743 140.141 161.558 139.327C162.372 138.514 163.478 138.057 164.63 138.057H208.593C209.745 138.057 210.85 137.6 211.664 136.787C212.48 135.974 212.937 134.871 212.937 133.721C212.937 132.57 212.48 131.467 211.664 130.654C210.85 129.841 209.745 129.384 208.593 129.384H180.564C179.412 129.384 178.305 128.927 177.491 128.113C176.676 127.3 176.218 126.197 176.218 125.047C176.218 123.897 176.676 122.794 177.491 121.98C178.305 121.167 179.412 120.71 180.564 120.71H194.05C195.204 120.71 196.31 120.253 197.126 119.438C197.941 118.624 198.399 117.519 198.399 116.368C198.399 115.216 197.941 114.112 197.126 113.297C196.31 112.483 195.204 112.026 194.05 112.026H174.041C172.889 112.026 171.784 111.569 170.968 110.755C170.154 109.942 169.697 108.839 169.697 107.689C169.697 106.539 170.154 105.436 170.968 104.622C171.784 103.809 172.889 103.352 174.041 103.352H212.377C213.518 103.343 214.649 103.561 215.704 103.992C216.76 104.423 217.72 105.058 218.529 105.862C219.336 106.666 219.977 107.621 220.413 108.674C220.848 109.726 221.07 110.855 221.065 111.993Z" fill="#C5D1D1"/>
<path d="M200.832 51.9986C200.546 51.9986 200.271 51.8852 200.07 51.6834C199.867 51.4816 199.753 51.2078 199.753 50.9225V27.1721C199.753 26.8867 199.867 26.613 200.07 26.4112C200.271 26.2093 200.546 26.0959 200.832 26.0959C201.118 26.0959 201.392 26.2093 201.593 26.4112C201.796 26.613 201.91 26.8867 201.91 27.1721V50.9225C201.91 51.2078 201.796 51.4816 201.593 51.6834C201.392 51.8852 201.118 51.9986 200.832 51.9986Z" fill="#183154"/>
<path d="M209.703 52.2675C209.417 52.2675 209.144 52.1541 208.941 51.9523C208.739 51.7505 208.626 51.4767 208.626 51.1914V7.32815C208.626 7.04275 208.739 6.76903 208.941 6.56721C209.144 6.36539 209.417 6.25201 209.703 6.25201C209.989 6.25201 210.264 6.36539 210.466 6.56721C210.667 6.76903 210.782 7.04275 210.782 7.32815V51.1914C210.782 51.4767 210.667 51.7505 210.466 51.9523C210.264 52.1541 209.989 52.2675 209.703 52.2675Z" fill="#183154"/>
<path d="M209.186 9.62095C211.705 9.62095 213.746 7.58292 213.746 5.06889C213.746 2.55486 211.705 0.516846 209.186 0.516846C206.667 0.516846 204.626 2.55486 204.626 5.06889C204.626 7.58292 206.667 9.62095 209.186 9.62095Z" fill="#FFADAD"/>
<path d="M209.563 11.2455C208.448 11.2476 207.356 10.9191 206.426 10.3015C205.498 9.68384 204.774 8.80496 204.346 7.77611C203.917 6.74725 203.805 5.61472 204.022 4.52196C204.239 3.4292 204.777 2.42536 205.566 1.63759C206.354 0.849832 207.361 0.313579 208.456 0.0967586C209.55 -0.120063 210.684 -0.0076994 211.715 0.419618C212.747 0.846935 213.626 1.56998 214.245 2.49718C214.863 3.42437 215.193 4.51401 215.192 5.62808C215.188 7.11704 214.593 8.54419 213.539 9.59705C212.485 10.6499 211.055 11.2426 209.563 11.2455ZM209.563 2.15216C208.875 2.15004 208.2 2.35207 207.626 2.73272C207.052 3.11335 206.604 3.65547 206.338 4.29043C206.073 4.92537 206.003 5.6246 206.137 6.29956C206.269 6.97454 206.599 7.59489 207.087 8.08208C207.574 8.56929 208.193 8.9014 208.87 9.03639C209.545 9.17138 210.246 9.10319 210.883 8.84041C211.519 8.57766 212.063 8.13214 212.447 7.56031C212.83 6.98846 213.034 6.31601 213.034 5.62808C213.034 4.70807 212.67 3.82558 212.019 3.17403C211.369 2.52248 210.485 2.15501 209.563 2.15216Z" fill="#183154"/>
<path d="M155.898 115.394H131.836C127.603 115.394 124.171 118.819 124.171 123.045V123.056C124.171 127.282 127.603 130.707 131.836 130.707H155.898C160.131 130.707 163.563 127.282 163.563 123.056V123.045C163.563 118.819 160.131 115.394 155.898 115.394Z" fill="#7DADB5"/>
<path d="M155.887 131.773H131.836C129.517 131.773 127.293 130.853 125.654 129.217C124.014 127.58 123.093 125.36 123.093 123.045C123.093 120.731 124.014 118.511 125.654 116.874C127.293 115.237 129.517 114.318 131.836 114.318H155.887C158.206 114.318 160.43 115.237 162.069 116.874C163.709 118.511 164.63 120.731 164.63 123.045C164.63 125.36 163.709 127.58 162.069 129.217C160.43 130.853 158.206 131.773 155.887 131.773ZM131.836 116.47C130.089 116.47 128.414 117.163 127.178 118.396C125.943 119.629 125.249 121.302 125.249 123.045C125.249 124.789 125.943 126.462 127.178 127.695C128.414 128.928 130.089 129.621 131.836 129.621H155.887C157.634 129.621 159.31 128.928 160.545 127.695C161.78 126.462 162.474 124.789 162.474 123.045C162.474 121.302 161.78 119.629 160.545 118.396C159.31 117.163 157.634 116.47 155.887 116.47H131.836Z" fill="#183154"/>
<path d="M57.4815 81.4097C55.7496 81.4119 54.0562 80.9012 52.6151 79.9424C51.1742 78.9833 50.0505 77.6194 49.3863 76.023C48.722 74.4263 48.5471 72.669 48.8837 70.9734C49.2204 69.2776 50.0531 67.7197 51.277 66.4965C52.5008 65.2734 54.0606 64.44 55.7589 64.1019C57.4573 63.7639 59.2179 63.9363 60.8182 64.5974C62.4183 65.2585 63.7861 66.3784 64.7485 67.8158C65.7108 69.253 66.2246 70.9427 66.2246 72.6715C66.2246 74.9871 65.3037 77.2081 63.6644 78.8465C62.025 80.485 59.8012 81.4068 57.4815 81.4097ZM57.4815 66.0963C56.1757 66.0942 54.8986 66.4789 53.812 67.2018C52.7253 67.9246 51.878 68.9531 51.3773 70.157C50.8765 71.3607 50.745 72.6858 50.9993 73.9645C51.2534 75.2429 51.8821 76.4175 52.8053 77.3393C53.7288 78.2609 54.9054 78.8884 56.1862 79.1421C57.4671 79.396 58.7946 79.2646 60.0005 78.7647C61.2065 78.265 62.2369 77.4192 62.9609 76.3344C63.6851 75.2498 64.0705 73.9749 64.0684 72.6715C64.0655 70.9285 63.3707 69.2577 62.136 68.0252C60.9014 66.7928 59.2275 66.0991 57.4815 66.0963Z" fill="#183154"/>
<path d="M80.4658 81.4097C78.734 81.4119 77.0406 80.9012 75.5995 79.9424C74.1586 78.9833 73.0349 77.6194 72.3706 76.023C71.7064 74.4263 71.5315 72.669 71.8681 70.9734C72.2047 69.2776 73.0375 67.7197 74.2614 66.4965C75.4852 65.2734 77.045 64.44 78.7433 64.1019C80.4416 63.7639 82.2023 63.9363 83.8025 64.5974C85.4026 65.2585 86.7705 66.3784 87.7329 67.8158C88.6952 69.253 89.2089 70.9427 89.2089 72.6715C89.2089 74.9871 88.2881 77.2081 86.6487 78.8465C85.0094 80.485 82.7856 81.4068 80.4658 81.4097ZM80.4658 66.0963C79.1601 66.0942 77.8829 66.4789 76.7964 67.2018C75.7096 67.9246 74.8623 68.9531 74.3617 70.157C73.8609 71.3607 73.7293 72.6858 73.9837 73.9645C74.2378 75.2429 74.8664 76.4175 75.7897 77.3393C76.7132 78.2609 77.8898 78.8884 79.1705 79.1421C80.4515 79.396 81.7788 79.2646 82.9848 78.7647C84.1909 78.265 85.2212 77.4192 85.9453 76.3344C86.6695 75.2498 87.0549 73.9749 87.0528 72.6715C87.0498 70.9285 86.355 69.2577 85.1204 68.0252C83.8857 66.7928 82.2119 66.0991 80.4658 66.0963Z" fill="#183154"/>
<path d="M103.45 80.3225C107.683 80.3225 111.115 76.897 111.115 72.6712C111.115 68.4455 107.683 65.0198 103.45 65.0198C99.2168 65.0198 95.7852 68.4455 95.7852 72.6712C95.7852 76.897 99.2168 80.3225 103.45 80.3225Z" fill="#EEF0F1"/>
<path d="M104.387 81.4956C102.658 81.485 100.97 80.9632 99.5377 79.996C98.1049 79.029 96.9914 77.66 96.3374 76.0618C95.6835 74.4635 95.5184 72.7077 95.8631 71.016C96.2078 69.3241 97.0468 67.7722 98.2742 66.5559C99.5017 65.3397 101.063 64.5137 102.76 64.182C104.457 63.8503 106.215 64.0282 107.811 64.6927C109.407 65.3572 110.77 66.4789 111.729 67.9161C112.687 69.3533 113.197 71.0418 113.195 72.7681C113.194 73.9193 112.964 75.0589 112.52 76.1213C112.077 77.1838 111.427 78.1482 110.608 78.959C109.79 79.7701 108.819 80.4116 107.751 80.8469C106.684 81.2822 105.541 81.5027 104.387 81.4956ZM104.387 66.1821C103.085 66.1929 101.815 66.588 100.737 67.3181C99.6588 68.0482 98.8216 69.0805 98.3305 70.2849C97.8393 71.4891 97.7164 72.8116 97.9769 74.0857C98.2376 75.3596 98.8702 76.5281 99.7949 77.4438C100.72 78.3595 101.896 78.9814 103.174 79.2312C104.452 79.481 105.776 79.3475 106.978 78.8474C108.181 78.3474 109.208 77.5032 109.931 76.4214C110.653 75.3395 111.039 74.0684 111.039 72.7681C111.039 71.8986 110.867 71.0378 110.532 70.2353C110.197 69.4327 109.706 68.7043 109.088 68.092C108.469 67.4798 107.736 66.9957 106.929 66.668C106.122 66.3402 105.258 66.1751 104.387 66.1821Z" fill="#183154"/>
<path d="M203.59 65.106H136.406C132.173 65.106 128.741 68.5315 128.741 72.7573V72.7681C128.741 76.9937 132.173 80.4192 136.406 80.4192H203.59C207.825 80.4192 211.255 76.9937 211.255 72.7681V72.7573C211.255 68.5315 207.825 65.106 203.59 65.106Z" fill="#EEF0F1"/>
<path d="M202.675 81.4521H135.512C134.337 81.4933 133.166 81.2978 132.069 80.8775C130.972 80.4572 129.97 79.8206 129.125 79.0055C128.279 78.1906 127.607 77.2139 127.147 76.1339C126.688 75.054 126.451 73.8927 126.451 72.7193C126.451 71.5459 126.688 70.3846 127.147 69.3047C127.607 68.2246 128.279 67.248 129.125 66.433C129.97 65.6179 130.972 64.9813 132.069 64.561C133.166 64.1407 134.337 63.9453 135.512 63.9864H202.675C203.851 63.9453 205.021 64.1407 206.117 64.561C207.216 64.9813 208.216 65.6179 209.063 66.433C209.908 67.248 210.581 68.2246 211.04 69.3047C211.5 70.3846 211.737 71.5459 211.737 72.7193C211.737 73.8927 211.5 75.054 211.04 76.1339C210.581 77.2139 209.908 78.1906 209.063 79.0055C208.216 79.8206 207.216 80.4572 206.117 80.8775C205.021 81.2978 203.851 81.4933 202.675 81.4521ZM135.512 66.1387C134.624 66.1028 133.738 66.2465 132.907 66.5611C132.075 66.8756 131.317 67.3545 130.676 67.9691C130.034 68.5837 129.524 69.3213 129.176 70.1375C128.827 70.9538 128.648 71.832 128.648 72.7193C128.648 73.6065 128.827 74.4847 129.176 75.301C129.524 76.1172 130.034 76.8548 130.676 77.4694C131.317 78.084 132.075 78.5629 132.907 78.8774C133.738 79.192 134.624 79.3357 135.512 79.2998H202.675C203.563 79.3357 204.449 79.192 205.281 78.8774C206.111 78.5629 206.871 78.084 207.512 77.4694C208.152 76.8548 208.662 76.1172 209.012 75.301C209.36 74.4847 209.54 73.6065 209.54 72.7193C209.54 71.832 209.36 70.9538 209.012 70.1375C208.662 69.3213 208.152 68.5837 207.512 67.9691C206.871 67.3545 206.111 66.8756 205.281 66.5611C204.449 66.2465 203.563 66.1028 202.675 66.1387H135.512Z" fill="#183154"/>
<path d="M57.4824 103.363C57.1963 103.363 56.9223 103.25 56.7201 103.048C56.5179 102.846 56.4043 102.572 56.4043 102.287V95.4857C56.4043 95.2003 56.5179 94.9266 56.7201 94.7248C56.9223 94.5229 57.1963 94.4095 57.4824 94.4095C57.7682 94.4095 58.0425 94.5229 58.2447 94.7248C58.4469 94.9266 58.5603 95.2003 58.5603 95.4857V102.287C58.5603 102.572 58.4469 102.846 58.2447 103.048C58.0425 103.25 57.7682 103.363 57.4824 103.363Z" fill="#183154"/>
<path d="M209.143 103.363C208.856 103.363 208.584 103.25 208.381 103.048C208.178 102.846 208.065 102.572 208.065 102.287V95.4857C208.065 95.2003 208.178 94.9266 208.381 94.7248C208.584 94.5229 208.856 94.4095 209.143 94.4095C209.429 94.4095 209.703 94.5229 209.906 94.7248C210.107 94.9266 210.221 95.2003 210.221 95.4857V102.287C210.221 102.572 210.107 102.846 209.906 103.048C209.703 103.25 209.429 103.363 209.143 103.363Z" fill="#183154"/>
<path d="M35.2851 73.0369C30.6147 73.0444 26.0865 71.434 22.473 68.4803C18.8598 65.5266 16.3851 61.4127 15.4716 56.8407C14.5582 52.2687 15.2624 47.5219 17.4642 43.4105C19.6659 39.2991 23.2288 36.0776 27.5447 34.2962C27.2538 32.7599 27.1094 31.1997 27.1134 29.6364C27.2227 23.5188 29.5044 17.6388 33.5516 13.0438C37.5988 8.44871 43.1487 5.43715 49.2127 4.54564C55.2768 3.65415 61.4609 4.94059 66.6634 8.17579C71.8658 11.411 75.7488 16.3848 77.6204 22.2112C79.6446 21.7369 81.7184 21.5055 83.7976 21.5223C90.3732 21.9248 96.5473 24.816 101.061 29.6064C105.574 34.3965 108.087 40.725 108.087 47.3012C108.087 53.8773 105.574 60.2058 101.061 64.996C96.5473 69.7863 90.3732 72.6775 83.7976 73.08L35.2851 73.0369Z" fill="#FFADAD"/>
<path opacity="0.7" d="M97.6605 24.9125C100.085 28.818 101.421 33.2982 101.532 37.8911C101.643 42.484 100.525 47.0233 98.2931 51.0411C96.0609 55.0589 92.7956 58.4095 88.8338 60.7475C84.8719 63.0857 80.3569 64.3264 75.7545 64.3421H27.2419C23.913 64.3431 20.6355 63.5222 17.7012 61.953C19.4281 65.1593 21.9929 67.8389 25.123 69.7072C28.2529 71.5753 31.8314 72.5625 35.4783 72.5638H83.9908C89.5823 72.5281 95.0116 70.6851 99.4659 67.311C103.92 63.9368 107.159 59.2131 108.699 53.8472C110.238 48.4813 109.995 42.762 108.005 37.5457C106.015 32.3295 102.386 27.8972 97.6605 24.9125Z" fill="#99394C"/>
<path d="M47.0468 10.6646C47.4757 10.6646 47.8871 10.4945 48.1902 10.1918C48.4936 9.88905 48.6639 9.47848 48.6639 9.05037C48.6639 8.62226 48.4936 8.21167 48.1902 7.90896C47.8871 7.60623 47.4757 7.43616 47.0468 7.43616C46.6179 7.43616 46.2065 7.60623 45.9033 7.90896C45.6002 8.21167 45.4297 8.62226 45.4297 9.05037C45.4297 9.47848 45.6002 9.88905 45.9033 10.1918C46.2065 10.4945 46.6179 10.6646 47.0468 10.6646Z" fill="#FDFEFF"/>
<path d="M37.1288 18.348C38.6629 16.3628 40.5175 14.6462 42.6161 13.2687C43.9098 12.4078 42.6916 10.3093 41.398 11.181C38.9537 12.7881 36.7995 14.7965 35.0266 17.1213C34.0888 18.3696 36.191 19.5749 37.1288 18.348Z" fill="#FDFEFF"/>
<path d="M161.159 112.736C163.052 112.736 164.588 111.203 164.588 109.313C164.588 107.424 163.052 105.891 161.159 105.891C159.265 105.891 157.73 107.424 157.73 109.313C157.73 111.203 159.265 112.736 161.159 112.736Z" fill="#C5D1D1"/>
<path opacity="0.5" d="M153.87 112.122C154.817 112.122 155.584 111.356 155.584 110.411C155.584 109.466 154.817 108.7 153.87 108.7C152.924 108.7 152.156 109.466 152.156 110.411C152.156 111.356 152.924 112.122 153.87 112.122Z" fill="#C5D1D1"/>
<path d="M161.881 60.8769C163.774 60.8769 165.309 59.3447 165.309 57.4548C165.309 55.5647 163.774 54.0327 161.881 54.0327C159.988 54.0327 158.453 55.5647 158.453 57.4548C158.453 59.3447 159.988 60.8769 161.881 60.8769Z" fill="#C5D1D1"/>
<path opacity="0.5" d="M154.593 60.2634C155.54 60.2634 156.307 59.4973 156.307 58.5523C156.307 57.6073 155.54 56.8413 154.593 56.8413C153.646 56.8413 152.879 57.6073 152.879 58.5523C152.879 59.4973 153.646 60.2634 154.593 60.2634Z" fill="#C5D1D1"/>
<path d="M51.8215 112.66C53.3516 112.66 54.592 111.422 54.592 109.895C54.592 108.367 53.3516 107.129 51.8215 107.129C50.2913 107.129 49.0508 108.367 49.0508 109.895C49.0508 111.422 50.2913 112.66 51.8215 112.66Z" fill="white"/>
<path opacity="0.5" d="M48.297 116.072C49.065 116.072 49.6877 115.451 49.6877 114.684C49.6877 113.917 49.065 113.296 48.297 113.296C47.529 113.296 46.9062 113.917 46.9062 114.684C46.9062 115.451 47.529 116.072 48.297 116.072Z" fill="white"/>
<path d="M65.0285 112.295C66.5587 112.295 67.799 111.056 67.799 109.529C67.799 108.001 66.5587 106.763 65.0285 106.763C63.4983 106.763 62.2578 108.001 62.2578 109.529C62.2578 111.056 63.4983 112.295 65.0285 112.295Z" fill="white"/>
<path opacity="0.5" d="M59.0782 110.745C59.8463 110.745 60.469 110.123 60.469 109.357C60.469 108.59 59.8463 107.968 59.0782 107.968C58.3102 107.968 57.6875 108.59 57.6875 109.357C57.6875 110.123 58.3102 110.745 59.0782 110.745Z" fill="white"/>
<path d="M124.052 66.0528C126.636 66.0528 128.731 63.9618 128.731 61.3824C128.731 58.8029 126.636 56.712 124.052 56.712C121.468 56.712 119.373 58.8029 119.373 61.3824C119.373 63.9618 121.468 66.0528 124.052 66.0528Z" fill="white"/>
<path opacity="0.5" d="M122.068 72.6717C123.36 72.6717 124.407 71.6262 124.407 70.3365C124.407 69.0468 123.36 68.0013 122.068 68.0013C120.776 68.0013 119.729 69.0468 119.729 70.3365C119.729 71.6262 120.776 72.6717 122.068 72.6717Z" fill="white"/>
<path d="M58.5594 130.696C62.7927 130.696 66.2244 127.271 66.2244 123.045C66.2244 118.819 62.7927 115.394 58.5594 115.394C54.3262 115.394 50.8945 118.819 50.8945 123.045C50.8945 127.271 54.3262 130.696 58.5594 130.696Z" fill="#FFADAD"/>
<path opacity="0.7" d="M65.9439 122.582C65.9258 124.242 65.3675 125.85 64.3533 127.165C63.3391 128.481 61.9241 129.431 60.3215 129.873C58.7189 130.315 57.0158 130.225 55.469 129.617C53.9222 129.008 52.6154 127.914 51.7461 126.499C52.9275 127.208 54.2809 127.58 55.6594 127.575C57.6922 127.575 59.6419 126.769 61.0794 125.334C62.5169 123.899 63.3243 121.953 63.3243 119.924C63.3292 118.548 62.9564 117.197 62.2464 116.018C63.3789 116.699 64.3149 117.662 64.9631 118.813C65.6112 119.963 65.9492 121.262 65.9439 122.582Z" fill="#99394C"/>
<path d="M58.4199 131.87C56.6885 131.87 54.9961 131.357 53.5564 130.397C52.1168 129.437 50.995 128.072 50.3324 126.475C49.6698 124.879 49.4965 123.122 49.8342 121.427C50.172 119.732 51.0057 118.175 52.2299 116.953C53.4541 115.73 55.014 114.898 56.712 114.561C58.4101 114.224 60.1702 114.397 61.7698 115.058C63.3693 115.72 64.7365 116.84 65.6983 118.277C66.6602 119.714 67.1736 121.403 67.1736 123.131C67.1736 125.449 66.2514 127.672 64.6096 129.31C62.968 130.949 60.7414 131.87 58.4199 131.87ZM58.4199 116.556C57.1144 116.556 55.8384 116.943 54.7532 117.667C53.6681 118.391 52.8224 119.42 52.3233 120.624C51.8243 121.828 51.6942 123.153 51.9496 124.431C52.2051 125.709 52.8345 126.882 53.7583 127.803C54.6821 128.724 55.8587 129.35 57.1393 129.603C58.4199 129.856 59.7467 129.724 60.9521 129.224C62.1575 128.724 63.1872 127.878 63.9109 126.793C64.6345 125.709 65.0197 124.434 65.0176 123.131C65.0147 121.387 64.3182 119.714 63.0813 118.481C61.8443 117.249 60.1677 116.556 58.4199 116.556Z" fill="#183154"/>
<path d="M80.4658 130.696C84.699 130.696 88.1308 127.271 88.1308 123.045C88.1308 118.819 84.699 115.394 80.4658 115.394C76.2324 115.394 72.8008 118.819 72.8008 123.045C72.8008 127.271 76.2324 130.696 80.4658 130.696Z" fill="#FFADAD"/>
<path d="M103.45 130.696C107.683 130.696 111.115 127.271 111.115 123.045C111.115 118.819 107.683 115.394 103.45 115.394C99.2168 115.394 95.7852 118.819 95.7852 123.045C95.7852 127.271 99.2168 130.696 103.45 130.696Z" fill="#EEF0F1"/>
<path d="M104.389 131.87C102.657 131.87 100.965 131.357 99.5252 130.397C98.0857 129.437 96.9637 128.072 96.3011 126.475C95.6385 124.879 95.4653 123.122 95.8029 121.427C96.1408 119.732 96.9745 118.175 98.1987 116.953C99.4229 115.73 100.983 114.898 102.681 114.561C104.379 114.224 106.139 114.397 107.739 115.058C109.338 115.72 110.705 116.84 111.667 118.277C112.629 119.714 113.142 121.403 113.142 123.131C113.142 125.449 112.22 127.672 110.579 129.31C108.937 130.949 106.71 131.87 104.389 131.87ZM104.389 116.556C103.083 116.556 101.807 116.943 100.722 117.667C99.6368 118.391 98.7912 119.42 98.292 120.624C97.793 121.828 97.6631 123.153 97.9184 124.431C98.1738 125.709 98.8034 126.882 99.7272 127.803C100.651 128.724 101.827 129.35 103.108 129.603C104.389 129.856 105.715 129.724 106.921 129.224C108.126 128.724 109.156 127.878 109.88 126.793C110.603 125.709 110.988 124.434 110.986 123.131C110.983 121.387 110.287 119.714 109.05 118.481C107.813 117.249 106.136 116.556 104.389 116.556Z" fill="#183154"/>
<g opacity="0.4">
<path opacity="0.4" d="M37.9795 51.0516C41.7662 51.0516 44.836 47.9872 44.836 44.2073C44.836 40.4273 41.7662 37.3631 37.9795 37.3631C34.1927 37.3631 31.123 40.4273 31.123 44.2073C31.123 47.9872 34.1927 51.0516 37.9795 51.0516Z" fill="white"/>
<path opacity="0.4" d="M30.0884 57.7342C31.9817 57.7342 33.5166 56.2021 33.5166 54.3121C33.5166 52.4222 31.9817 50.89 30.0884 50.89C28.1951 50.89 26.6602 52.4222 26.6602 54.3121C26.6602 56.2021 28.1951 57.7342 30.0884 57.7342Z" fill="white"/>
</g>
<path d="M84.088 73.7902H35.5754C32.0013 73.7868 28.4858 72.8834 25.3544 71.1638C22.2228 69.4442 19.5765 66.9638 17.6601 63.9523C15.7438 60.9407 14.6194 57.4953 14.3911 53.935C14.1627 50.3745 14.8377 46.814 16.3537 43.5831C16.4784 43.3302 16.6978 43.1364 16.9644 43.0431C17.2308 42.9499 17.5233 42.9648 17.779 43.0847C18.0346 43.2045 18.233 43.4197 18.3314 43.684C18.4296 43.9483 18.4202 44.2405 18.3049 44.4979C17.1113 47.025 16.4964 49.7857 16.5046 52.5797C16.5103 57.6287 18.5207 62.4698 22.0953 66.042C25.6699 69.6144 30.5173 71.6267 35.5754 71.6379H84.088C87.6271 71.6941 91.1372 70.993 94.3823 69.5821C97.6273 68.1711 100.532 66.0831 102.902 63.4581C105.271 60.8334 107.05 57.7325 108.119 54.3642C109.188 50.9959 109.522 47.4383 109.098 43.9303C108.675 40.4224 107.504 37.0456 105.665 34.027C103.825 31.0083 101.36 28.4178 98.4338 26.4297C95.5078 24.4413 92.1894 23.1015 88.7015 22.5001C85.2136 21.8988 81.6372 22.0497 78.2125 22.9429L77.2208 23.1797L76.9189 22.2004C75.1441 16.5911 71.4259 11.7962 66.4309 8.67507C61.4359 5.55397 55.4906 4.31072 49.6606 5.16818C43.8306 6.02563 38.4972 8.92774 34.6163 13.3543C30.7353 17.7808 28.5605 23.4425 28.4817 29.3245C28.4796 30.8225 28.6167 32.3176 28.8915 33.7904L29.0639 34.6404L28.2554 34.9849C27.2165 35.4273 26.2205 35.9641 25.28 36.5883C25.1606 36.6661 25.0269 36.7195 24.8868 36.7454C24.7466 36.7712 24.6026 36.7691 24.4633 36.7391C24.3239 36.709 24.1918 36.6518 24.0748 36.5705C23.9578 36.4891 23.8581 36.3855 23.7814 36.2654C23.6275 36.0256 23.575 35.7345 23.6356 35.4562C23.6963 35.1779 23.8651 34.9348 24.1049 34.7804C24.9203 34.2507 25.7702 33.7761 26.649 33.3599C25.7732 26.785 27.3613 20.1189 31.1084 14.6416C34.8556 9.16415 40.4976 5.26152 46.9512 3.68301C53.4049 2.1045 60.2151 2.96137 66.0746 6.08909C71.934 9.21683 76.4294 14.395 78.6976 20.6293C82.4139 19.8042 86.2631 19.7744 89.9918 20.5418C93.7204 21.3091 97.2439 22.8565 100.33 25.0817C103.416 27.3068 105.995 30.1595 107.897 33.4516C109.799 36.7438 110.98 40.4007 111.364 44.1817C111.747 47.9626 111.324 51.7818 110.121 55.3875C108.919 58.9933 106.965 62.3038 104.388 65.1013C101.811 67.8987 98.6695 70.1193 95.1706 71.6169C91.6716 73.1146 87.8944 73.8553 84.088 73.7902Z" fill="#183154"/>
<path d="M123.567 143.029H148.05C148.747 143.029 149.416 143.306 149.91 143.798C150.403 144.29 150.68 144.958 150.68 145.655H120.937C120.937 144.958 121.214 144.29 121.707 143.798C122.2 143.306 122.869 143.029 123.567 143.029Z" fill="#C5D1D1"/>
<path d="M90.7613 143.029H115.244C115.942 143.029 116.611 143.306 117.104 143.798C117.597 144.29 117.874 144.958 117.874 145.655H88.1309C88.1309 144.958 88.4079 144.29 88.9013 143.798C89.3946 143.306 90.0636 143.029 90.7613 143.029Z" fill="#C5D1D1"/>
<path d="M212.378 147H49.5912C47.0179 147 44.5501 145.979 42.7305 144.163C40.9108 142.347 39.8887 139.883 39.8887 137.315V111.175C39.8887 108.607 40.9108 106.143 42.7305 104.327C44.5501 102.511 47.0179 101.49 49.5912 101.49H212.378C214.95 101.49 217.418 102.511 219.239 104.327C221.058 106.143 222.08 108.607 222.08 111.175V137.304C222.081 138.577 221.831 139.837 221.344 141.014C220.857 142.19 220.143 143.259 219.242 144.159C218.342 145.06 217.271 145.774 216.093 146.262C214.916 146.749 213.652 147 212.378 147ZM49.5912 103.621C47.5898 103.621 45.6703 104.415 44.2551 105.827C42.8398 107.24 42.0448 109.156 42.0448 111.154V137.282C42.0448 139.28 42.8398 141.196 44.2551 142.609C45.6703 144.022 47.5898 144.815 49.5912 144.815H212.378C214.38 144.815 216.299 144.022 217.714 142.609C219.129 141.196 219.924 139.28 219.924 137.282V111.175C219.924 109.177 219.129 107.261 217.714 105.849C216.299 104.436 214.38 103.642 212.378 103.642L49.5912 103.621Z" fill="#183154"/>
<path d="M103.009 16.5617C104.342 16.5617 105.424 15.4824 105.424 14.1511C105.424 12.8198 104.342 11.7405 103.009 11.7405C101.675 11.7405 100.594 12.8198 100.594 14.1511C100.594 15.4824 101.675 16.5617 103.009 16.5617Z" fill="#E0F0F5"/>
<path opacity="0.7" d="M88.1307 123.422C88.1317 125.098 87.5814 126.728 86.5641 128.062C85.547 129.395 84.1193 130.358 82.5006 130.803C80.8818 131.248 79.1614 131.15 77.6038 130.524C76.0462 129.899 74.7375 128.779 73.8789 127.339C75.0603 128.048 76.4138 128.42 77.7922 128.415C79.8251 128.415 81.7747 127.609 83.2122 126.174C84.6497 124.739 85.4572 122.793 85.4572 120.764C85.462 119.388 85.0892 118.037 84.3792 116.858C85.5216 117.532 86.4685 118.493 87.1263 119.644C87.7842 120.795 88.1304 122.097 88.1307 123.422Z" fill="#99394C"/>
<path d="M81.4042 131.87C79.6729 131.87 77.9804 131.357 76.5408 130.397C75.1014 129.437 73.9793 128.072 73.3167 126.475C72.6541 124.879 72.4809 123.122 72.8186 121.427C73.1564 119.732 73.9901 118.175 75.2143 116.953C76.4385 115.73 77.9984 114.898 79.6964 114.561C81.3944 114.224 83.1546 114.397 84.7542 115.058C86.3536 115.72 87.7208 116.84 88.6827 118.277C89.6446 119.714 90.158 121.403 90.158 123.131C90.158 125.449 89.2358 127.672 87.594 129.31C85.9524 130.949 83.7258 131.87 81.4042 131.87ZM81.4042 116.556C80.0988 116.556 78.8228 116.943 77.7376 117.667C76.6525 118.391 75.8068 119.42 75.3076 120.624C74.8086 121.828 74.6787 123.153 74.934 124.431C75.1895 125.709 75.8191 126.882 76.7428 127.803C77.6666 128.724 78.8431 129.35 80.1237 129.603C81.4042 129.856 82.7311 129.724 83.9365 129.224C85.1419 128.724 86.1716 127.878 86.8953 126.793C87.6189 125.709 88.0041 124.434 88.002 123.131C87.999 121.387 87.3028 119.714 86.0657 118.481C84.8287 117.249 83.1521 116.556 81.4042 116.556Z" fill="#183154"/>
</g>
</svg>
