<svg width="20" height="20" viewBox="0 0 20 20" fill="none" xmlns="http://www.w3.org/2000/svg">
<mask id="mask0_3104_395" style="mask-type:alpha" maskUnits="userSpaceOnUse" x="0" y="0" width="20" height="20">
<rect width="20" height="20" fill="#D9D9D9"/>
</mask>
<g mask="url(#mask0_3104_395)">
<path d="M3.47821 17.5002C3.18654 17.5696 2.93307 17.4967 2.71779 17.2814C2.50251 17.0661 2.42959 16.8127 2.49904 16.521L3.33237 12.5418L7.45737 16.6668L3.47821 17.5002ZM7.45737 16.6668L3.33237 12.5418L12.874 3.00016C13.1935 2.68072 13.5893 2.521 14.0615 2.521C14.5338 2.521 14.9296 2.68072 15.249 3.00016L16.999 4.75016C17.3185 5.06961 17.4782 5.46544 17.4782 5.93766C17.4782 6.40988 17.3185 6.80572 16.999 7.12516L7.45737 16.6668ZM14.0615 4.16683L5.43654 12.7918L7.20737 14.5627L15.8324 5.93766L14.0615 4.16683Z" fill="#474747"/>
<path d="M14.0615 4.16683L5.43654 12.7918L7.20737 14.5627L15.8324 5.93766L14.0615 4.16683Z" fill="#474747"/>
</g>
</svg>
