<svg width="237" height="171" viewBox="0 0 237 171" fill="none" xmlns="http://www.w3.org/2000/svg">
<g clip-path="url(#clip0_764_2707)">
<mask id="mask0_764_2707" style="mask-type:luminance" maskUnits="userSpaceOnUse" x="0" y="0" width="237" height="171">
<path d="M236.83 0H0V170.89H236.83V0Z" fill="white"/>
</mask>
<g mask="url(#mask0_764_2707)">
<path d="M62.9219 155.165L68.5184 166.097L70.8495 164.891L65.0534 153.57" fill="#F96440"/>
<path opacity="0.2" d="M65.6647 155.723L68.2172 160.713L65.711 161.572L63.5332 157.32L65.6647 155.723Z" fill="#463E3B"/>
<path d="M71.4359 165.083L67.9417 166.891L62.0459 155.373L63.2114 154.769L68.5062 165.117L69.6717 164.513L64.175 153.778L65.3405 153.174L71.4359 165.083Z" fill="#314E5D"/>
<path d="M57.858 162.23L111.811 134.305C112.868 133.758 113.808 133.007 114.577 132.094C115.346 131.182 115.928 130.126 116.291 128.987C116.654 127.848 116.79 126.649 116.692 125.457C116.594 124.265 116.263 123.105 115.719 122.042L68.2457 29.3151C67.7013 28.2519 66.9541 27.3069 66.0465 26.5338C65.1389 25.761 64.0889 25.1754 62.9562 24.8106C61.8233 24.4458 60.6303 24.3089 59.445 24.4076C58.2595 24.5063 57.1052 24.839 56.0477 25.3862L2.09495 53.304C1.34059 53.6947 0.771455 54.3706 0.512726 55.1831C0.253994 55.9955 0.326859 56.8781 0.715288 57.6365L53.5487 160.843C53.9373 161.602 54.6096 162.174 55.4177 162.434C56.2258 162.694 57.1037 162.621 57.858 162.23Z" fill="#E8F0F9"/>
<path d="M56.2498 25.7772L2.29699 53.6925C1.82412 53.9366 1.41936 54.2958 1.11939 54.7371C0.819413 55.1784 0.633706 55.6877 0.579102 56.2196C0.805422 55.9991 1.06289 55.8137 1.34315 55.6691L55.296 27.7514C56.3535 27.2039 57.5078 26.8714 58.6933 26.7726C59.8785 26.674 61.0716 26.8107 62.2042 27.1757C63.3369 27.5405 64.3871 28.1261 65.2947 28.8989C66.2023 29.6718 66.9496 30.6168 67.4939 31.6802L114.967 124.417C115.527 125.508 115.86 126.702 115.947 127.927C116.034 129.152 115.873 130.382 115.473 131.543C116.337 130.199 116.833 128.651 116.912 127.053C116.991 125.455 116.649 123.865 115.921 122.442L68.4478 29.706C67.9034 28.6426 67.1562 27.6975 66.2486 26.9247C65.341 26.1519 64.2908 25.5663 63.1581 25.2015C62.0254 24.8365 60.8324 24.6998 59.6471 24.7984C58.4616 24.8972 57.3073 25.2297 56.2498 25.7772Z" fill="white"/>
<path d="M4.49953 52.5525L3.07363 53.2864C2.7003 53.4806 2.36873 53.747 2.09783 54.0702C1.82692 54.3934 1.62201 54.7669 1.49479 55.1698C1.36757 55.5725 1.32054 55.9967 1.35638 56.4177C1.39223 56.8387 1.51024 57.2488 1.70369 57.6238L54.525 160.83C54.7172 161.206 54.9812 161.54 55.3017 161.813C55.6224 162.087 55.9932 162.294 56.3935 162.423C56.7935 162.552 57.2152 162.6 57.634 162.565C58.0527 162.531 58.4605 162.413 58.8343 162.22L60.2602 161.486L4.49953 52.5525Z" fill="#BCD9EA"/>
<path d="M112.417 134.995L58.4521 162.91C57.5426 163.38 56.4851 163.467 55.5115 163.153C54.538 162.839 53.7282 162.15 53.2595 161.237L0.426054 58.0326C-0.0408797 57.1181 -0.127874 56.0549 0.184167 55.0761C0.49621 54.0974 1.18179 53.283 2.09041 52.812L56.0432 24.8943C58.3351 23.7148 60.9985 23.4964 63.4503 24.2868C65.9018 25.0773 67.9421 26.8122 69.1244 29.1118L116.597 121.848C117.77 124.15 117.989 126.825 117.205 129.289C116.422 131.752 114.7 133.804 112.417 134.995ZM2.69143 53.9838C2.09168 54.295 1.63927 54.8327 1.43352 55.4791C1.22777 56.1254 1.28549 56.8272 1.59402 57.4308L54.4251 160.635C54.7346 161.238 55.2694 161.693 55.9123 161.9C56.5552 162.106 57.2533 162.049 57.8535 161.738L111.806 133.816C113.786 132.788 115.279 131.014 115.958 128.881C116.638 126.749 116.449 124.432 115.432 122.44L67.9589 29.7111C66.9372 27.7213 65.1723 26.22 63.051 25.5367C60.9299 24.8534 58.6259 25.0437 56.6442 26.0661L2.69143 53.9838Z" fill="#314E5D"/>
<path opacity="0.2" d="M78.1081 70.9447L71.5918 64.4472L61.1068 53.989L60.8757 53.759C60.4469 53.3319 59.8671 53.0932 59.2636 53.0954C58.66 53.0978 58.0818 53.3407 57.6565 53.7713L57.4277 54.0037L25.1164 86.7505L24.8877 86.9952C24.4626 87.4262 24.2253 88.0092 24.2276 88.6159C24.2298 89.2228 24.4716 89.8041 24.8999 90.2317L33.5161 98.8257L41.9011 107.175L42.1444 107.405C42.5732 107.832 43.153 108.071 43.7565 108.069C44.3601 108.067 44.9383 107.823 45.3636 107.393L78.1324 74.169C78.5521 73.7369 78.785 73.1557 78.7804 72.5519C78.7758 71.9479 78.5341 71.3703 78.1081 70.9447Z" fill="#463E3B"/>
<path d="M61.0495 51.7379L24.1491 82.9118C23.5359 83.4297 23.4565 84.3495 23.9718 84.966L40.6492 104.92C41.1646 105.536 42.0792 105.616 42.6924 105.098L79.5929 73.9246C80.2061 73.4065 80.2854 72.4869 79.77 71.8704L63.0927 51.9162C62.5773 51.2998 61.6627 51.22 61.0495 51.7379Z" fill="white"/>
<g opacity="0.2">
<path opacity="0.2" d="M52.5173 96.7955L43.5799 104.35C43.3178 104.572 43.0149 104.74 42.6883 104.844C42.3618 104.948 42.018 104.986 41.6766 104.956C41.3352 104.927 41.0031 104.829 40.6991 104.67C40.3952 104.511 40.1256 104.293 39.9057 104.029L24.7099 85.8481C24.652 85.7803 24.5992 85.7084 24.5518 85.6328C27.6177 86.2786 30.9464 86.2248 34.0877 86.0218C35.7594 85.9117 37.4456 85.7771 39.1051 85.9777C43.4388 86.5062 47.2298 89.3146 49.9088 92.7737C50.8836 94.0421 51.7559 95.3872 52.5173 96.7955Z" fill="#DED6D3"/>
</g>
<path d="M43.2033 105.438C42.6117 105.741 41.9353 105.833 41.2849 105.7C40.6342 105.567 40.0478 105.216 39.6215 104.704L24.0048 86.0211C23.7565 85.7246 23.5688 85.3816 23.4524 85.0122C23.3359 84.6425 23.2931 84.2536 23.3263 83.8673C23.3596 83.481 23.4682 83.1053 23.6459 82.761C23.8237 82.4171 24.0672 82.1118 24.3625 81.8623L59.9977 51.7599C60.2918 51.5084 60.6327 51.3183 61.0006 51.2002C61.3683 51.082 61.7559 51.0385 62.1406 51.0717C62.5253 51.1053 62.8996 51.2151 63.2417 51.3949C63.584 51.5747 63.8872 51.8211 64.1342 52.1195L79.7509 70.7999C79.9991 71.0966 80.1869 71.4396 80.3032 71.809C80.4198 72.1786 80.4626 72.5676 80.4293 72.9539C80.3962 73.3401 80.2874 73.7159 80.1098 74.0601C79.9319 74.4041 79.6884 74.7094 79.3932 74.9587L43.7532 105.063C43.5843 105.209 43.3999 105.334 43.2033 105.438ZM61.1413 52.5745C61.0335 52.6308 60.9323 52.6988 60.8396 52.7776L25.2068 82.8775C24.8781 83.1561 24.6725 83.5544 24.6355 83.9852C24.5988 84.4158 24.7333 84.8436 25.0097 85.1746L40.6362 103.855C40.9133 104.186 41.3095 104.392 41.7377 104.429C42.1662 104.467 42.5918 104.331 42.921 104.053L78.544 73.9459C78.8727 73.6675 79.0781 73.2692 79.1151 72.8384C79.1521 72.4076 79.0175 71.98 78.7411 71.6487L63.1244 52.9684C62.8879 52.6858 62.5628 52.4921 62.2027 52.4192C61.8423 52.3463 61.4681 52.3986 61.1413 52.5672V52.5745Z" fill="#314E5D"/>
<path opacity="0.2" d="M49.113 31.3133C48.7561 30.6158 48.1383 30.0896 47.3954 29.8501C46.6525 29.6106 45.8454 29.6776 45.1517 30.0363L43.0031 31.1494C42.3948 31.4669 41.9159 31.988 41.6495 32.6228C41.3828 33.2574 41.3453 33.9659 41.5432 34.6256C41.5653 35.0386 41.6738 35.442 41.8619 35.8097L96.5228 142.603C96.6997 142.949 96.943 143.257 97.2384 143.509C97.534 143.76 97.8762 143.951 98.245 144.069C98.6139 144.187 99.0025 144.231 99.3884 144.199C99.7744 144.166 100.15 144.057 100.494 143.877L102.642 142.764C103.326 142.23 103.811 141.479 104.02 140.634C104.228 139.789 104.147 138.897 103.791 138.104L49.113 31.3133Z" fill="#463E3B"/>
<path d="M47.1398 28.5239L45.2793 29.4866C43.7556 30.2748 43.1563 32.1555 43.9401 33.6872L98.4554 140.196C99.2394 141.727 101.11 142.33 102.634 141.542L104.494 140.579C106.018 139.791 106.617 137.91 105.833 136.379L51.318 29.8702C50.534 28.3385 48.6635 27.7357 47.1398 28.5239Z" fill="#938D35"/>
<path d="M47.6772 28.9922L104.73 140.443C104.702 140.461 104.673 140.478 104.642 140.492L103.567 141.05L46.5068 29.5842L47.4047 29.1194C47.4923 29.0737 47.5831 29.0313 47.6772 28.9922Z" fill="#DAE23B"/>
<path d="M44.0483 30.0561L43.6611 30.2564L101.018 142.316L101.405 142.116L44.0483 30.0561Z" fill="#463E3B"/>
<path d="M45.4118 29.8438L45.0244 30.0441L102.381 142.104L102.768 141.904L45.4118 29.8438Z" fill="#463E3B"/>
<path d="M46.5749 29.24L46.1875 29.4403L103.544 141.5L103.931 141.3L46.5749 29.24Z" fill="#463E3B"/>
<path d="M47.7409 28.6389L47.3535 28.8393L104.71 140.899L105.097 140.698L47.7409 28.6389Z" fill="#463E3B"/>
<path d="M48.9076 28.0369L48.5205 28.2372L105.877 140.297L106.264 140.096L48.9076 28.0369Z" fill="#463E3B"/>
<path d="M104.874 141.366L102.725 142.479C101.877 142.916 100.891 142.998 99.9831 142.705C99.0753 142.413 98.32 141.77 97.8832 140.918L43.2029 34.1249C42.7676 33.2721 42.6863 32.2806 42.9776 31.3679C43.2686 30.4551 43.9078 29.6958 44.7553 29.2567L46.9039 28.1436C47.7519 27.7057 48.7383 27.6242 49.6462 27.9168C50.554 28.2094 51.3091 28.8523 51.7461 29.7043L106.414 136.507C106.847 137.357 106.929 138.345 106.64 139.255C106.351 140.166 105.717 140.924 104.874 141.366ZM45.3539 30.4285C44.8169 30.7073 44.4115 31.1885 44.2263 31.7671C44.0414 32.3457 44.0915 32.9741 44.366 33.5158L99.0342 140.316C99.312 140.858 99.7921 141.266 100.369 141.451C100.946 141.637 101.573 141.585 102.112 141.307L104.261 140.194C104.799 139.914 105.205 139.432 105.39 138.851C105.575 138.271 105.523 137.641 105.246 137.099L50.5806 30.3061C50.3027 29.7648 49.8223 29.3562 49.2454 29.1705C48.6683 28.9846 48.0414 29.0367 47.5025 29.3154L45.3539 30.4285Z" fill="#314E5D"/>
<path d="M195.513 0.778809H84.9086C81.5047 0.778809 78.7451 3.55312 78.7451 6.97542V163.515C78.7451 166.937 81.5047 169.712 84.9086 169.712H195.513C198.917 169.712 201.676 166.937 201.676 163.515V6.97542C201.676 3.55312 198.917 0.778809 195.513 0.778809Z" fill="#1DCDFF"/>
<path d="M201.676 106.512V159.598C201.676 165.185 199.041 169.713 195.79 169.713H84.6312C81.3803 169.713 78.7451 165.185 78.7451 159.598V128.894C86.2396 137.353 94.7706 143.06 103.521 146.605C114.086 150.891 124.994 152.141 135.847 152.325C148.821 152.547 162.019 151.207 174.234 143.699C185.434 136.812 195.814 124.157 201.676 106.512Z" fill="#1AB5E1"/>
<path d="M123.192 1.204C111.612 4.54327 95.5258 1.32142 85.5299 13.5923C80.785 19.4122 79.6195 30.6948 78.8555 40.0277L78.8701 13.9055C78.8701 10.5589 78.9358 6.90645 80.1962 4.36469C81.7583 1.20155 84.4836 0.959363 86.8877 0.96181C98.6987 0.978934 111.612 -1.22278 123.192 1.204Z" fill="#4ED9FF"/>
<path d="M195.396 0.978516H84.7924C81.3885 0.978516 78.6289 3.75283 78.6289 7.17513V163.715C78.6289 167.137 81.3885 169.911 84.7924 169.911H195.396C198.801 169.911 201.56 167.137 201.56 163.715V7.17513C201.56 3.75283 198.801 0.978516 195.396 0.978516Z" stroke="#314E5D" stroke-width="8" stroke-miterlimit="10"/>
<path d="M186.318 11.9116H94.2283C92.097 11.9116 90.3691 13.6487 90.3691 15.7915V153.489C90.3691 155.632 92.097 157.369 94.2283 157.369H186.318C188.449 157.369 190.177 155.632 190.177 153.489V15.7915C190.177 13.6487 188.449 11.9116 186.318 11.9116Z" fill="white"/>
<path d="M190.055 16.0389V44.2797H90.25V16.0389C90.25 13.8714 91.6783 12.1247 93.4424 12.1247H186.875C188.627 12.115 190.055 13.8714 190.055 16.0389Z" fill="#EA4583"/>
<path d="M186.198 11.6699H94.1092C91.9779 11.6699 90.25 13.407 90.25 15.5498V154.299C90.25 156.442 91.9779 158.179 94.1092 158.179H186.198C188.33 158.179 190.058 156.442 190.058 154.299V15.5498C190.058 13.407 188.33 11.6699 186.198 11.6699Z" stroke="#314E5D" stroke-width="8" stroke-miterlimit="10"/>
<path d="M172.67 30.9302H107.473V36.5959H172.67V30.9302Z" fill="white"/>
<path d="M105.44 73.141H137.338V71.7931H105.44V73.141Z" fill="#AFE6FF"/>
<path d="M105.443 76.1065H174.864V74.7585H105.443V76.1065Z" fill="#AFE6FF"/>
<path d="M105.44 79.0717H137.338V77.7238H105.44V79.0717Z" fill="#AFE6FF"/>
<path d="M105.443 82.034H174.864V80.686H105.443V82.034Z" fill="#AFE6FF"/>
<path d="M105.44 85.0011H137.338V83.6532H105.44V85.0011Z" fill="#AFE6FF"/>
<path d="M105.443 87.9635H174.864V86.6155H105.443V87.9635Z" fill="#AFE6FF"/>
<path d="M161.282 20.9831H185.228V18.1503H161.282V20.9831Z" fill="#EEA248"/>
<path d="M134.034 20.9831H157.98V18.1503H134.034V20.9831Z" fill="#EEA248"/>
<path d="M97.7956 22.2961C99.2955 22.2961 100.511 21.0738 100.511 19.5659C100.511 18.0581 99.2955 16.8358 97.7956 16.8358C96.296 16.8358 95.0801 18.0581 95.0801 19.5659C95.0801 21.0738 96.296 22.2961 97.7956 22.2961Z" fill="#EEA248"/>
<path d="M114.999 64.1294C118.333 64.1294 121.036 61.4122 121.036 58.06C121.036 54.708 118.333 51.9906 114.999 51.9906C111.665 51.9906 108.962 54.708 108.962 58.06C108.962 61.4122 111.665 64.1294 114.999 64.1294Z" fill="#EA4583"/>
<path d="M167.718 52.5966H163.499C161.496 52.5966 159.873 54.2285 159.873 56.2416V60.4836C159.873 62.4967 161.496 64.1287 163.499 64.1287H167.718C169.72 64.1287 171.343 62.4967 171.343 60.4836V56.2416C171.343 54.2285 169.72 52.5966 167.718 52.5966Z" fill="#958FEE"/>
<path d="M139.453 53.4626C139.537 53.3097 139.661 53.1822 139.811 53.0934C139.96 53.0046 140.131 52.9579 140.305 52.9579C140.479 52.9579 140.649 53.0046 140.799 53.0934C140.949 53.1822 141.072 53.3097 141.156 53.4626L143.794 58.0544L146.432 62.6462C146.517 62.7954 146.562 62.9647 146.562 63.1372C146.562 63.3094 146.516 63.4787 146.43 63.6274C146.344 63.7764 146.22 63.8999 146.071 63.9853C145.923 64.0707 145.754 64.1152 145.583 64.114H135.029C134.858 64.1152 134.69 64.0707 134.541 63.9853C134.392 63.8999 134.268 63.7764 134.182 63.6274C134.096 63.4787 134.05 63.3094 134.05 63.1372C134.05 62.9647 134.095 62.7954 134.18 62.6462L136.818 58.0544L139.453 53.4626Z" fill="#EEA248"/>
<path d="M232.008 43.5265L215.153 37.3974C212.44 36.4105 209.444 37.8221 208.463 40.5502L167.879 153.356C166.898 156.084 168.302 159.095 171.015 160.082L187.87 166.211C190.584 167.198 193.579 165.786 194.56 163.058L235.144 50.2527C236.125 47.5246 234.721 44.5133 232.008 43.5265Z" fill="#E8F0F9"/>
<path d="M233.136 43.3011L229.191 41.8871C230.194 42.2472 231.014 42.9929 231.47 43.9604C231.927 44.9277 231.982 46.0379 231.625 47.0465L190.717 162.377C190.359 163.386 189.617 164.21 188.655 164.668C187.692 165.127 186.588 165.183 185.585 164.824L189.529 166.238C190.533 166.597 191.637 166.541 192.599 166.082C193.561 165.624 194.303 164.8 194.661 163.791L235.569 48.4678C235.747 47.9678 235.826 47.4377 235.8 46.9073C235.774 46.3769 235.644 45.8571 235.418 45.3771C235.192 44.8974 234.874 44.4668 234.483 44.1106C234.091 43.7544 233.633 43.4792 233.136 43.3011Z" fill="#BCD9EA"/>
<path opacity="0.2" d="M233.136 43.3006L213.969 36.4288C212.966 36.0695 211.862 36.1252 210.9 36.5839C209.937 37.0426 209.196 37.8668 208.838 38.8752L207.275 43.2786C207.634 42.2702 208.375 41.4461 209.338 40.9874C210.3 40.5287 211.404 40.4729 212.407 40.8323L231.574 47.7041C232.577 48.0642 233.396 48.8098 233.853 49.7774C234.309 50.7449 234.365 51.8548 234.007 52.8634L235.569 48.46C235.927 47.4514 235.871 46.3415 235.415 45.3739C234.959 44.4064 234.139 43.6607 233.136 43.3006Z" fill="#463E3B"/>
<path d="M228.825 52.1904L228.355 53.5129L232.738 55.0842L233.207 53.7617L228.825 52.1904Z" fill="#314E5D"/>
<path d="M227.573 55.7156L227.104 57.0381L231.485 58.6097L231.955 57.2869L227.573 55.7156Z" fill="#314E5D"/>
<path d="M226.322 59.2408L225.853 60.5633L230.235 62.1349L230.704 60.8121L226.322 59.2408Z" fill="#314E5D"/>
<path d="M221.495 61.858L221.02 63.178L229.766 66.3588L230.241 65.0387L221.495 61.858Z" fill="#314E5D"/>
<path d="M224.549 65.629L224.08 66.9518L228.462 68.5231L228.931 67.2006L224.549 65.629Z" fill="#314E5D"/>
<path d="M223.3 69.1542L222.831 70.4769L227.213 72.0482L227.682 70.7257L223.3 69.1542Z" fill="#314E5D"/>
<path d="M222.05 72.6806L221.581 74.0031L225.963 75.5744L226.432 74.2519L222.05 72.6806Z" fill="#314E5D"/>
<path d="M217.179 75.3425L216.704 76.6625L225.451 79.8433L225.925 78.5232L217.179 75.3425Z" fill="#314E5D"/>
<path d="M220.276 79.0678L219.807 80.3903L224.189 81.9618L224.658 80.6391L220.276 79.0678Z" fill="#314E5D"/>
<path d="M219.027 82.593L218.558 83.9155L222.939 85.487L223.409 84.1642L219.027 82.593Z" fill="#314E5D"/>
<path d="M217.775 86.1191L217.306 87.4419L221.688 89.0132L222.157 87.6904L217.775 86.1191Z" fill="#314E5D"/>
<path d="M212.143 88.0706L211.674 89.3931L220.438 92.5359L220.907 91.2132L212.143 88.0706Z" fill="#314E5D"/>
<path d="M215.128 92.1929L214.659 93.5157L219.041 95.087L219.51 93.7642L215.128 92.1929Z" fill="#314E5D"/>
<path d="M213.876 95.7181L213.407 97.0409L217.789 98.6122L218.258 97.2897L213.876 95.7181Z" fill="#314E5D"/>
<path d="M212.627 99.2416L212.158 100.564L216.54 102.135L217.009 100.813L212.627 99.2416Z" fill="#314E5D"/>
<path d="M207.668 102L207.193 103.32L215.94 106.501L216.415 105.181L207.668 102Z" fill="#314E5D"/>
<path d="M210.414 105.475L209.945 106.798L214.327 108.369L214.797 107.046L210.414 105.475Z" fill="#314E5D"/>
<path d="M209.165 108.998L208.696 110.321L213.078 111.892L213.547 110.57L209.165 108.998Z" fill="#314E5D"/>
<path d="M207.914 112.524L207.445 113.846L211.827 115.417L212.297 114.095L207.914 112.524Z" fill="#314E5D"/>
<path d="M202.913 115.324L202.438 116.644L211.185 119.825L211.66 118.505L202.913 115.324Z" fill="#314E5D"/>
<path d="M206.141 118.914L205.672 120.236L210.054 121.807L210.523 120.485L206.141 118.914Z" fill="#314E5D"/>
<path d="M204.892 122.439L204.423 123.761L208.805 125.333L209.274 124.01L204.892 122.439Z" fill="#314E5D"/>
<path d="M203.641 125.962L203.172 127.285L207.554 128.856L208.023 127.534L203.641 125.962Z" fill="#314E5D"/>
<path d="M198.596 128.81L198.121 130.13L206.868 133.31L207.342 131.99L198.596 128.81Z" fill="#314E5D"/>
<path d="M201.43 132.196L200.961 133.518L205.343 135.089L205.812 133.767L201.43 132.196Z" fill="#314E5D"/>
<path d="M200.178 135.721L199.709 137.043L204.091 138.615L204.56 137.292L200.178 135.721Z" fill="#314E5D"/>
<path d="M198.929 139.247L198.46 140.57L202.842 142.141L203.311 140.818L198.929 139.247Z" fill="#314E5D"/>
<path d="M193.297 141.198L192.828 142.521L201.592 145.664L202.061 144.341L193.297 141.198Z" fill="#314E5D"/>
<path d="M196.719 145.479L196.25 146.801L200.632 148.372L201.101 147.05L196.719 145.479Z" fill="#314E5D"/>
<path d="M195.468 149.003L194.999 150.325L199.381 151.897L199.85 150.574L195.468 149.003Z" fill="#314E5D"/>
<path d="M194.216 152.526L193.747 153.849L198.129 155.42L198.598 154.097L194.216 152.526Z" fill="#314E5D"/>
<path d="M188.584 154.481L188.115 155.804L196.879 158.947L197.349 157.624L188.584 154.481Z" fill="#314E5D"/>
<path d="M217.269 38.1173L173.97 160.167L174.845 160.481L218.144 38.4314L217.269 38.1173Z" fill="white"/>
<path d="M168.927 158.353L167.613 157.88L210.283 37.5933C210.407 37.2427 210.665 36.9563 211 36.7965C211.334 36.637 211.718 36.6172 212.067 36.742L168.927 158.353Z" fill="white"/>
<path d="M212.073 36.7527L168.931 158.36L170.246 158.832L213.388 37.2246L212.073 36.7527Z" fill="white"/>
<path d="M213.385 37.222L170.243 158.829L171.559 159.301L214.701 37.6936L213.385 37.222Z" fill="white"/>
<path d="M184.172 157.867C184.56 156.772 183.992 155.569 182.904 155.178C181.815 154.788 180.618 155.359 180.23 156.453C179.841 157.547 180.409 158.751 181.498 159.142C182.586 159.532 183.783 158.961 184.172 157.867Z" fill="white"/>
<path d="M181.259 159.796C180.739 159.61 180.286 159.274 179.956 158.829C179.626 158.384 179.435 157.851 179.406 157.297C179.377 156.744 179.513 156.194 179.795 155.717C180.077 155.24 180.493 154.858 180.991 154.619C181.489 154.38 182.045 154.295 182.591 154.374C183.138 154.454 183.648 154.694 184.058 155.064C184.469 155.435 184.761 155.919 184.897 156.457C185.034 156.994 185.009 157.56 184.826 158.083C184.579 158.786 184.064 159.361 183.395 159.682C182.726 160.003 181.958 160.044 181.259 159.796ZM182.665 155.833C182.405 155.739 182.123 155.726 181.855 155.793C181.587 155.861 181.345 156.007 181.16 156.213C180.975 156.419 180.854 156.676 180.814 156.951C180.774 157.226 180.816 157.506 180.934 157.757C181.053 158.008 181.243 158.218 181.48 158.361C181.717 158.503 181.991 158.572 182.267 158.558C182.543 158.543 182.809 158.447 183.03 158.282C183.252 158.116 183.419 157.888 183.512 157.626C183.636 157.275 183.617 156.889 183.458 156.553C183.299 156.217 183.014 155.958 182.665 155.833Z" fill="#314E5D"/>
<path d="M223.436 45.7884C223.825 44.6941 223.257 43.4905 222.168 43.1001C221.08 42.7096 219.882 43.2804 219.494 44.3749C219.106 45.4694 219.674 46.673 220.762 47.0632C221.851 47.4536 223.048 46.8829 223.436 45.7884Z" fill="white"/>
<path d="M220.52 47.7212C220 47.5356 219.546 47.1992 219.217 46.7544C218.887 46.3099 218.696 45.7769 218.667 45.223C218.638 44.6692 218.773 44.1192 219.055 43.6427C219.337 43.1659 219.754 42.784 220.251 42.545C220.749 42.3062 221.306 42.2209 221.852 42.2999C222.398 42.3791 222.909 42.6191 223.319 42.9897C223.73 43.3604 224.022 43.845 224.158 44.3822C224.295 44.9197 224.27 45.4855 224.087 46.0088C223.839 46.7114 223.325 47.2863 222.656 47.6075C221.987 47.9287 221.218 47.9695 220.52 47.7212ZM221.926 43.7557C221.666 43.6623 221.384 43.6488 221.116 43.7166C220.848 43.7843 220.606 43.9306 220.421 44.1366C220.236 44.3426 220.115 44.5992 220.075 44.8742C220.035 45.1489 220.077 45.4295 220.195 45.6805C220.314 45.9315 220.503 46.1414 220.741 46.2838C220.978 46.4264 221.252 46.4949 221.528 46.4807C221.804 46.4665 222.069 46.3706 222.291 46.2047C222.512 46.0389 222.68 45.8106 222.773 45.5489C222.897 45.1981 222.877 44.8123 222.718 44.4762C222.56 44.1398 222.275 43.8807 221.926 43.7557Z" fill="#314E5D"/>
<path d="M190.07 167.424L169.63 160.085C168.622 159.721 167.798 158.971 167.339 157.998C166.881 157.024 166.824 155.908 167.182 154.893L208.548 38.293C208.91 37.2792 209.656 36.4509 210.624 35.9895C211.592 35.5281 212.702 35.4713 213.711 35.8319L234.151 43.171C235.159 43.5343 235.983 44.2848 236.442 45.2577C236.901 46.2309 236.957 47.3472 236.599 48.3621L195.233 164.963C194.872 165.976 194.125 166.805 193.157 167.266C192.19 167.727 191.079 167.784 190.07 167.424ZM213.242 37.1652C212.581 36.9289 211.854 36.9661 211.22 37.2682C210.587 37.5706 210.098 38.1132 209.862 38.7773L168.496 155.378C168.264 156.042 168.302 156.771 168.603 157.406C168.904 158.042 169.443 158.531 170.102 158.768L190.542 166.108C191.203 166.344 191.93 166.306 192.563 166.004C193.197 165.702 193.686 165.159 193.922 164.495L235.287 47.8949C235.522 47.2305 235.485 46.4995 235.185 45.8622C234.884 45.2252 234.344 44.7342 233.684 44.4969L213.242 37.1652Z" fill="#314E5D"/>
<path opacity="0.1" d="M208.482 80.2626C208.581 78.4066 208.931 76.5725 209.524 74.8121C209.97 73.3685 210.679 72.0206 211.614 70.8368C212.572 69.6295 213.901 68.776 215.393 68.41L215.49 68.8675C214.1 69.2122 212.863 70.0104 211.972 71.1377C211.073 72.2775 210.393 73.5748 209.964 74.9638C209.385 76.6841 209.043 78.4758 208.947 80.2895L208.482 80.2626Z" fill="black"/>
<path opacity="0.1" d="M193.747 85.3786C193.422 85.2619 193.106 85.1196 192.803 84.953L193.027 84.542C196.127 86.2544 200.409 85.0533 202.193 81.988C202.711 81.0975 203.078 80.0089 203.349 78.5631C203.804 76.1167 203.767 73.9297 203.237 72.0509C202.604 69.8125 201.227 67.9704 199.458 66.9967L199.682 66.5858C201.56 67.6181 203.02 69.563 203.684 71.9237C204.234 73.8808 204.276 76.1339 203.806 78.6487C203.526 80.1508 203.142 81.2883 202.589 82.2277C200.864 85.1854 196.934 86.5088 193.747 85.3786Z" fill="black"/>
<path opacity="0.1" d="M194.605 80.0546L194.649 79.5898C196.528 79.7733 198.433 78.303 198.895 76.3142C199.319 74.4843 198.552 72.3437 196.985 70.9836L197.289 70.6288C198.993 72.0967 199.813 74.428 199.35 76.4218C198.837 78.6284 196.71 80.2601 194.605 80.0546Z" fill="black"/>
<path opacity="0.1" d="M176.947 135.462C176.614 135.343 176.3 135.179 176.013 134.973L176.283 134.591C177.164 135.225 178.29 135.388 179.534 135.068C182.247 134.368 185.145 131.518 186.919 127.807C187.719 126.131 188.4 124.157 189.065 121.593C190.179 117.283 190.688 113.521 190.576 110.433C190.444 106.764 189.405 103.96 187.726 102.757L187.997 102.375C189.795 103.664 190.902 106.595 191.041 110.416C191.152 113.557 190.639 117.356 189.515 121.711C188.843 124.304 188.152 126.305 187.34 128.01C185.507 131.839 182.495 134.794 179.65 135.528C178.763 135.78 177.821 135.757 176.947 135.462Z" fill="black"/>
<path opacity="0.1" d="M179.256 126.232L179.22 125.764C181.217 125.603 183.76 122.472 184.77 118.915C185.709 115.617 185.41 112.097 184.025 110.154L184.403 109.88C185.889 111.965 186.208 115.561 185.218 119.042C184.14 122.829 181.466 126.048 179.256 126.232Z" fill="black"/>
<path opacity="0.1" d="M211.278 113.004C209.4 111.972 207.94 110.027 207.276 107.666C206.726 105.709 206.684 103.456 207.154 100.941C207.434 99.4393 207.818 98.3017 208.371 97.3623C210.276 94.0891 214.85 92.8121 218.162 94.6347L217.938 95.0456C214.841 93.3332 210.556 94.5344 208.772 97.5996C208.254 98.4901 207.886 99.5787 207.616 101.025C207.161 103.471 207.198 105.658 207.728 107.537C208.361 109.775 209.738 111.617 211.507 112.591L211.278 113.004Z" fill="black"/>
<path opacity="0.1" d="M213.67 108.949C211.967 107.481 211.147 105.15 211.609 103.156C212.122 100.954 214.249 99.3153 216.354 99.5208L216.31 99.9856C214.431 99.8021 212.526 101.272 212.064 103.261C211.641 105.091 212.407 107.232 213.974 108.592L213.67 108.949Z" fill="black"/>
<path opacity="0.1" d="M194.492 159.133C191.837 157.665 189.773 154.923 188.832 151.586C188.053 148.824 187.995 145.615 188.661 142.045C189.058 139.915 189.603 138.305 190.365 136.977C193.056 132.355 199.514 130.555 204.188 133.126L203.964 133.537C199.504 131.091 193.336 132.803 190.766 137.207C190.022 138.486 189.494 140.047 189.107 142.124C188.455 145.62 188.508 148.758 189.267 151.449C190.175 154.666 192.156 157.32 194.701 158.712L194.492 159.133Z" fill="black"/>
<path opacity="0.1" d="M197.912 153.364C195.525 151.292 194.357 148.014 195.007 145.206C195.737 142.104 198.713 139.824 201.664 140.1L201.62 140.565C198.893 140.298 196.131 142.429 195.462 145.311C194.849 147.953 195.949 151.045 198.216 153.007L197.912 153.364Z" fill="black"/>
<path d="M213.701 39.8173L172.278 156.579L173.594 157.051L215.017 40.2889L213.701 39.8173Z" fill="#314E5D"/>
<path opacity="0.1" d="M195.029 121.359C194.491 119.872 193.812 118.022 193.868 116.149C193.905 114.681 194.355 113.274 194.815 111.914C195.058 111.146 195.328 110.353 195.508 109.563C195.979 107.339 195.852 105.029 195.14 102.871C194.428 100.713 193.157 98.7846 191.457 97.2848L191.759 96.9301C193.522 98.4864 194.84 100.487 195.579 102.726C196.318 104.965 196.45 107.361 195.961 109.668C195.776 110.48 195.513 111.285 195.255 112.063C194.817 113.392 194.367 114.754 194.333 116.163C194.289 117.947 194.941 119.752 195.465 121.203L195.029 121.359Z" fill="black"/>
<path opacity="0.1" d="M212.563 63.5765C212.025 62.0891 211.347 60.2397 211.403 58.3658C211.439 56.8979 211.889 55.4913 212.349 54.1311C212.592 53.363 212.863 52.5704 213.043 51.7802C213.513 49.5564 213.386 47.2466 212.674 45.0884C211.962 42.9305 210.691 41.002 208.991 39.5019L209.293 39.1472C211.056 40.7036 212.375 42.7042 213.113 44.9431C213.852 47.182 213.984 49.5785 213.495 51.8854C213.31 52.6976 213.047 53.5024 212.79 54.2804C212.352 55.6087 211.901 56.9713 211.867 58.3804C211.824 60.1638 212.476 61.9692 212.999 63.4199L212.563 63.5765Z" fill="black"/>
<path opacity="0.1" d="M225.617 72.7286C225.079 71.2412 224.4 69.3918 224.456 67.5179C224.493 66.05 224.943 64.6434 225.403 63.2832C225.646 62.5151 225.916 61.7225 226.096 60.9323C226.567 58.7083 226.44 56.3985 225.728 54.2403C225.016 52.0824 223.745 50.1539 222.045 48.654L222.347 48.2993C224.11 49.8557 225.428 51.8561 226.167 54.095C226.906 56.3339 227.037 58.7303 226.549 61.0375C226.364 61.8497 226.101 62.6545 225.843 63.4325C225.405 64.7608 224.955 66.1234 224.921 67.5325C224.877 69.3159 225.529 71.1213 226.053 72.572L225.617 72.7286Z" fill="black"/>
<path opacity="0.1" d="M177.056 161.971L176.665 161.726C177.548 160.329 177.453 158.546 177.361 156.833C177.336 156.386 177.312 155.938 177.305 155.498C177.311 153.992 177.419 152.488 177.628 150.996C177.971 148.129 178.297 145.419 177.256 142.894C176.504 141.072 175.066 139.565 173.786 138.297L174.112 137.965C175.429 139.264 176.901 140.812 177.687 142.716C178.777 145.355 178.417 148.252 178.093 151.053C177.883 152.521 177.771 154.002 177.76 155.485C177.76 155.918 177.791 156.359 177.813 156.802C177.92 158.595 178.02 160.447 177.056 161.971Z" fill="black"/>
</g>
</g>
<defs>
<clipPath id="clip0_764_2707">
<rect width="237" height="171" fill="white"/>
</clipPath>
</defs>
</svg>
