<svg width="220" height="128" viewBox="0 0 220 128" fill="none" xmlns="http://www.w3.org/2000/svg">
<g clip-path="url(#clip0_764_2653)">
<mask id="mask0_764_2653" style="mask-type:luminance" maskUnits="userSpaceOnUse" x="0" y="0" width="220" height="128">
<path d="M219.836 0H0V127.937H219.836V0Z" fill="white"/>
</mask>
<g mask="url(#mask0_764_2653)">
<path d="M208.236 77.119C200.466 97.3107 185.859 115.001 165.571 122.775C162.932 123.785 160.237 124.641 157.501 125.34C143.025 129.045 127.189 127.756 113.846 121.006C108.183 118.139 103.018 114.351 97.3347 111.525C91.6509 108.699 85.1603 106.849 78.974 108.244C73.6475 109.445 69.1535 112.887 64.6287 115.953C53.962 123.182 41.1364 128.902 28.5056 126.42C22.6937 125.279 16.9706 122.118 14.2715 116.835C8.30564 105.155 19.5569 91.2693 17.2783 78.3527C15.8202 70.0858 9.16034 63.8952 5.02017 56.5995C-2.0653 44.1204 -1.2277 27.5439 7.08 15.8506C15.3877 4.15732 30.7244 -2.04536 44.786 0.60729C61.933 3.84332 74.8971 18.4088 91.5706 23.5632C101.998 26.7838 113.319 25.8229 123.278 21.5814C139.369 14.7268 161.475 4.21394 179.583 5.92632C189.212 6.83742 198.656 11.127 205.012 18.4517C213.046 27.6983 215.454 40.826 214.114 53.0186C213.195 61.2722 211.218 69.3724 208.236 77.119Z" fill="url(#paint0_linear_764_2653)"/>
<path d="M213.405 93.0901C213.048 93.0896 212.693 93.0465 212.346 92.9614C211.248 92.6907 210.296 92.01 209.682 91.0581C209.069 90.1062 208.84 88.9548 209.043 87.8394C209.245 86.7239 209.865 85.7282 210.775 85.0556C211.684 84.3832 212.816 84.0845 213.937 84.2207C215.058 84.357 216.086 84.9177 216.809 85.7885C217.534 86.6592 217.898 87.7745 217.831 88.9064C217.763 90.0384 217.267 91.1017 216.445 91.8791C215.623 92.6567 214.535 93.0898 213.405 93.0901ZM213.405 86.196C212.817 86.1982 212.252 86.4161 211.812 86.8085C211.373 87.2009 211.093 87.7409 211.023 88.3267C210.954 88.9123 211.1 89.5034 211.435 89.9886C211.768 90.4738 212.267 90.8196 212.838 90.9608C213.168 91.0406 213.511 91.0492 213.847 90.986C214.18 90.923 214.496 90.7897 214.775 90.5948C215.053 90.4001 215.289 90.1482 215.464 89.8558C215.638 89.5634 215.751 89.2373 215.79 88.8987C215.831 88.56 215.799 88.2167 215.698 87.8912C215.597 87.5657 215.428 87.2654 215.202 87.0101C214.976 86.7548 214.701 86.5503 214.39 86.4099C214.081 86.2696 213.746 86.1967 213.405 86.196Z" fill="#E7F6FF"/>
<path d="M209.359 97.8099C209.61 96.7665 208.972 95.7154 207.931 95.4624C206.892 95.2094 205.846 95.8502 205.593 96.8936C205.342 97.937 205.979 98.9879 207.018 99.241C208.06 99.4939 209.106 98.8532 209.359 97.8099Z" fill="#E7F6FF"/>
<path d="M9.43465 92.6658C8.26055 92.6401 7.14395 92.1505 6.32727 91.3034C5.51057 90.4563 5.05969 89.3201 5.07253 88.1415C5.08535 86.9628 5.56086 85.8367 6.3958 85.0078C7.23072 84.1787 8.35771 83.7139 9.53209 83.7139C10.7065 83.7139 11.8335 84.1787 12.6684 85.0078C13.5033 85.8367 13.9788 86.9628 13.9917 88.1415C14.0045 89.3201 13.5536 90.4563 12.7369 91.3034C11.9202 92.1505 10.8036 92.6401 9.62952 92.6658H9.43465ZM9.43465 85.7734H9.3338C8.69968 85.7873 8.09657 86.0515 7.6554 86.5089C7.21426 86.9664 6.97067 87.5799 6.97754 88.2167C6.9844 88.8533 7.24116 89.4613 7.69209 89.9092C8.14299 90.3568 8.75166 90.608 9.38593 90.608C10.0202 90.608 10.6289 90.3568 11.0798 89.9092C11.5307 89.4613 11.7875 88.8533 11.7943 88.2167C11.8012 87.5799 11.5576 86.9664 11.1165 86.5089C10.6753 86.0515 10.0722 85.7873 9.43807 85.7734H9.43465Z" fill="#E7F6FF"/>
<path d="M6.25463 100.178C7.32328 100.132 8.15222 99.2247 8.10612 98.152C8.06002 97.0794 7.15634 96.2473 6.08769 96.2936C5.01906 96.3399 4.19012 97.2469 4.23621 98.3196C4.28231 99.3922 5.18599 100.224 6.25463 100.178Z" fill="#E7F6FF"/>
<path d="M121.211 20.2908C120.146 20.2917 119.117 19.9102 118.309 19.2153C117.5 18.5204 116.967 17.558 116.804 16.5023C116.642 15.4466 116.861 14.3674 117.423 13.4599C117.984 12.5525 118.851 11.8769 119.866 11.5553C120.88 11.2337 121.976 11.2875 122.955 11.7068C123.934 12.1261 124.731 12.8833 125.202 13.8413C125.673 14.7994 125.786 15.8949 125.522 16.9297C125.257 17.9645 124.633 18.8701 123.761 19.4826C123.013 20.0077 122.123 20.2898 121.211 20.2908ZM121.197 13.4C120.574 13.3994 119.975 13.64 119.525 14.0717C119.075 14.5033 118.808 15.0928 118.78 15.7172C118.752 16.3416 118.965 16.9527 119.375 17.4233C119.785 17.8938 120.36 18.1874 120.98 18.2428C121.6 18.2982 122.218 18.1114 122.704 17.7208C123.19 17.3305 123.508 16.7668 123.59 16.1473C123.673 15.5278 123.514 14.9002 123.147 14.3954C122.779 13.8907 122.232 13.5476 121.619 13.4378C121.48 13.4128 121.339 13.4002 121.197 13.4Z" fill="#E7F6FF"/>
<path d="M112.117 20.0466C112.993 19.4301 113.205 18.2179 112.591 17.3387C111.977 16.4597 110.769 16.2468 109.893 16.8633C109.017 17.4797 108.805 18.692 109.42 19.5712C110.034 20.4502 111.242 20.6631 112.117 20.0466Z" fill="#E7F6FF"/>
<path d="M219.829 43.3515C219.829 41.465 219.082 39.6554 217.754 38.3214C216.424 36.9872 214.622 36.2377 212.742 36.2377C212.585 36.2377 212.429 36.2377 212.275 36.2532C212.285 36.0987 212.291 35.9426 212.291 35.7847C212.291 34.7738 212.075 33.7743 211.66 32.8533C211.244 31.932 210.639 31.1103 209.882 30.4429C209.125 29.7754 208.236 29.2775 207.272 28.9824C206.309 28.6871 205.294 28.6015 204.296 28.731C203.296 28.8607 202.337 29.2025 201.479 29.7337C200.622 30.2651 199.887 30.9738 199.325 31.8123C198.762 32.651 198.385 33.6003 198.215 34.597C198.048 35.5939 198.092 36.6154 198.349 37.5932C197.492 36.9699 196.508 36.5467 195.467 36.3551C194.426 36.1634 193.356 36.2082 192.335 36.486C191.313 36.7636 190.368 37.2674 189.564 37.9602C188.762 38.6531 188.126 39.5173 187.699 40.4895C187.274 41.4619 187.07 42.5174 187.104 43.579C187.138 44.6406 187.409 45.6809 187.896 46.6241C188.381 47.5671 189.072 48.3888 189.916 49.0288C190.761 49.669 191.737 50.1111 192.774 50.3229C193.198 51.4498 193.899 52.4505 194.814 53.231C195.726 54.0114 196.824 54.5462 197.998 54.7852C199.174 55.0242 200.393 54.9597 201.537 54.5976C202.68 54.2354 203.715 53.5875 204.542 52.7147C205.388 53.3557 206.366 53.7981 207.405 54.0091C208.444 54.2203 209.516 54.1949 210.544 53.9348C211.573 53.6747 212.528 53.1864 213.344 52.5062C214.159 51.8259 214.81 50.9708 215.253 50.0037C216.598 49.4919 217.756 48.5815 218.574 47.3933C219.391 46.2051 219.829 44.7955 219.829 43.3515Z" fill="white"/>
<path d="M32.7265 26.2517C32.7274 25.317 32.5448 24.3914 32.1893 23.5276C31.8335 22.6639 31.3118 21.8789 30.6537 21.2176C29.9958 20.5563 29.2144 20.0316 28.3542 19.6737C27.4942 19.3156 26.5722 19.1312 25.6411 19.131C25.4838 19.131 25.3282 19.131 25.1744 19.1465C25.1847 18.992 25.1898 18.8359 25.1898 18.678C25.1896 17.6671 24.9747 16.6676 24.5594 15.7465C24.1441 14.8253 23.538 14.0036 22.7814 13.3362C22.0248 12.6687 21.1351 12.1708 20.1717 11.8756C19.2082 11.5804 18.1932 11.4948 17.1942 11.6243C16.1953 11.7539 15.2353 12.0958 14.3783 12.6271C13.5213 13.1584 12.787 13.867 12.2243 14.7056C11.6616 15.5442 11.2835 16.4935 11.1151 17.4903C10.9468 18.4872 10.992 19.5087 11.2479 20.4865C10.3914 19.863 9.40659 19.4399 8.36587 19.2484C7.32515 19.0567 6.2549 19.1015 5.23363 19.3791C4.21238 19.6569 3.26604 20.1607 2.46408 20.8535C1.66211 21.5464 1.02486 22.4106 0.599095 23.3828C0.173332 24.3552 -0.030142 25.4107 0.00360628 26.4723C0.0373546 27.5337 0.307469 28.5742 0.794125 29.5172C1.28078 30.4604 1.97163 31.2821 2.81597 31.9221C3.66032 32.5621 4.63673 33.0044 5.67355 33.2162C6.09727 34.3421 6.79867 35.3417 7.71209 36.1214C8.62551 36.9012 9.7211 37.4355 10.8963 37.6745C12.0715 37.9136 13.2879 37.8492 14.4316 37.4879C15.5754 37.1265 16.6091 36.4796 17.4359 35.608C18.2819 36.249 19.2604 36.6914 20.2992 36.9024C21.338 37.1136 22.4108 37.0882 23.4385 36.828C24.4662 36.5678 25.4228 36.0797 26.2376 35.3994C27.0525 34.719 27.705 33.864 28.1471 32.897C29.4917 32.3862 30.6498 31.477 31.4677 30.2902C32.2857 29.1033 32.7247 27.6948 32.7265 26.2517Z" fill="white"/>
<path d="M163.107 127.473H61.1416V125.243H163.107C163.402 125.243 163.685 125.36 163.893 125.569C164.101 125.778 164.219 126.062 164.219 126.358C164.219 126.654 164.101 126.937 163.893 127.147C163.685 127.356 163.402 127.473 163.107 127.473Z" fill="#426572"/>
<path d="M56.5816 127.473H50.3474C50.0527 127.473 49.7702 127.356 49.5618 127.147C49.3534 126.937 49.2363 126.654 49.2363 126.358C49.2363 126.062 49.3534 125.778 49.5618 125.569C49.7702 125.36 50.0527 125.243 50.3474 125.243H56.5816C56.8763 125.243 57.1589 125.36 57.3673 125.569C57.5756 125.778 57.6927 126.062 57.6927 126.358C57.6927 126.654 57.5756 126.937 57.3673 127.147C57.1589 127.356 56.8763 127.473 56.5816 127.473Z" fill="#426572"/>
<path d="M46.3006 127.473H44.3142C44.0195 127.473 43.737 127.356 43.5286 127.147C43.3202 126.937 43.2031 126.654 43.2031 126.358C43.2031 126.062 43.3202 125.778 43.5286 125.569C43.737 125.36 44.0195 125.243 44.3142 125.243H46.3006C46.5953 125.243 46.8778 125.36 47.0862 125.569C47.2946 125.778 47.4117 126.062 47.4117 126.358C47.4117 126.654 47.2946 126.937 47.0862 127.147C46.8778 127.356 46.5953 127.473 46.3006 127.473Z" fill="#426572"/>
<path d="M198.862 127.473H167.521V125.243H198.862C199.156 125.243 199.439 125.36 199.648 125.569C199.857 125.778 199.973 126.062 199.973 126.358C199.973 126.654 199.857 126.937 199.648 127.147C199.439 127.356 199.156 127.473 198.862 127.473Z" fill="#426572"/>
<path d="M38.6329 127.473H7.29102V125.243H38.6329C38.9276 125.243 39.2102 125.36 39.4186 125.569C39.6269 125.778 39.744 126.062 39.744 126.358C39.744 126.654 39.6269 126.937 39.4186 127.147C39.2102 127.356 38.9276 127.473 38.6329 127.473Z" fill="#426572"/>
<path d="M48.5639 40.4177H162.721C164.782 40.4177 166.758 41.2389 168.215 42.701C169.672 44.1632 170.491 46.1462 170.492 48.2144V122.382H40.793V48.2144C40.7938 46.1462 41.613 44.1632 43.0702 42.701C44.5275 41.2389 46.5036 40.4177 48.5639 40.4177Z" fill="#EBF0F9"/>
<path d="M165.985 46.1052H45.8154V115.012H165.985V46.1052Z" fill="#637F91"/>
<path d="M44.9148 114.884H166.496C166.496 115.431 166.28 115.956 165.896 116.344C165.511 116.732 164.99 116.951 164.445 116.954H46.9746C46.4278 116.954 45.9035 116.735 45.5168 116.347C45.1304 115.959 44.9131 115.433 44.9131 114.884H44.9148Z" fill="white"/>
<g opacity="0.5">
<path opacity="0.5" d="M81.7244 45.8479L63.7569 115.4H54.709L72.6765 45.8479H81.7244Z" fill="#A7BCD5"/>
<path opacity="0.5" d="M104.786 45.8479L86.8201 115.4H67.8457L85.8132 45.8479H104.786Z" fill="#A7BCD5"/>
</g>
<path d="M171.518 123.412H39.7676V44.8891C39.7695 43.4306 40.3474 42.0326 41.3748 41.0012C42.4021 39.97 43.7951 39.3899 45.2479 39.3882H166.038C167.491 39.3899 168.883 39.97 169.911 41.0012C170.938 42.0326 171.516 43.4306 171.518 44.8891V123.412ZM41.8189 121.353H169.467V44.8891C169.466 43.9764 169.104 43.1016 168.461 42.4562C167.819 41.8109 166.947 41.448 166.038 41.4472H45.2479C44.3389 41.448 43.4671 41.8109 42.8242 42.4562C42.1814 43.1016 41.8197 43.9764 41.8189 44.8891V121.353Z" fill="#426572"/>
<path d="M24.4355 119.927H190.328V120.474C190.328 122.249 189.625 123.951 188.376 125.206C187.124 126.461 185.429 127.166 183.661 127.166H31.1022C29.3342 127.166 27.6385 126.461 26.3882 125.206C25.1379 123.951 24.4355 122.249 24.4355 120.474V119.927Z" fill="#EBF0F9"/>
<path opacity="0.5" d="M189.479 123.417C189.115 124.369 188.47 125.187 187.633 125.765C186.795 126.342 185.802 126.65 184.787 126.65H28.9438C27.9284 126.65 26.9368 126.341 26.0997 125.764C25.2626 125.187 24.6195 124.368 24.2549 123.417H189.479Z" fill="#A7BCD5"/>
<path d="M182.887 127.936H30.33C28.2905 127.934 26.3353 127.12 24.8933 125.672C23.451 124.225 22.6399 122.262 22.6377 120.215V118.638H190.581V120.215C190.58 122.262 189.768 124.225 188.325 125.673C186.882 127.12 184.927 127.934 182.887 127.936ZM24.7078 120.697C24.8281 122.11 25.4724 123.427 26.5131 124.386C27.5539 125.345 28.9153 125.877 30.3283 125.877H182.887C184.301 125.877 185.662 125.345 186.703 124.386C187.744 123.427 188.388 122.11 188.508 120.697H24.7078Z" fill="#426572"/>
<path d="M166.753 115.654H44.5303V45.0759H166.753V115.654ZM46.5816 113.595H164.701V47.1349H46.5816V113.595Z" fill="#426572"/>
<path d="M147.615 23.9854V114.625H65.6992V23.9854C65.7023 23.5769 65.8654 23.1858 66.1532 22.8969C66.4411 22.6079 66.8307 22.4443 67.2377 22.4412H146.07C146.163 22.4412 146.256 22.4499 146.347 22.4669C146.701 22.5326 147.022 22.7202 147.253 22.9973C147.485 23.2744 147.613 23.6239 147.615 23.9854Z" fill="white"/>
<path d="M66.9878 29.9324H147.873V24.4796L146.326 22.4343H75.4887H68.5331L65.957 24.4796V29.9324H66.9878Z" fill="#E2F2FF"/>
<path d="M148.899 115.655H64.9316V23.9853C64.9344 23.3037 65.2053 22.6506 65.6857 22.1685C66.166 21.6863 66.8166 21.4144 67.4957 21.4116H146.325C147.004 21.4144 147.655 21.6863 148.135 22.1685C148.615 22.6506 148.886 23.3037 148.889 23.9853L148.899 115.655ZM66.9829 113.596H146.848V23.9853C146.844 23.85 146.789 23.7209 146.694 23.6252C146.598 23.5295 146.47 23.474 146.335 23.4706H67.5026C67.3677 23.474 67.2392 23.5295 67.1438 23.6252C67.0484 23.7209 66.9932 23.85 66.9898 23.9853L66.9829 113.596Z" fill="#426572"/>
<path d="M142.834 25.6121H70.7759C70.2067 25.6121 69.7451 26.0752 69.7451 26.6467C69.7451 27.2181 70.2067 27.6813 70.7759 27.6813H142.834C143.403 27.6813 143.865 27.2181 143.865 26.6467C143.865 26.0752 143.403 25.6121 142.834 25.6121Z" fill="#CADCE8"/>
<path d="M92.6689 39.6421H75.8262V58.9056H92.6689V39.6421Z" fill="#E8837E"/>
<path d="M134.195 39.6421H94.2578V58.9056H134.195V39.6421Z" fill="#E8837E"/>
<path d="M134.195 61.0383H115.339V80.3018H134.195V61.0383Z" fill="#DDE4ED"/>
<path d="M113.749 61.0383H76.0381V80.3018H113.749V61.0383Z" fill="#DDE4ED"/>
<path d="M134.301 82.4346H76.0381V101.698H134.301V82.4346Z" fill="#DDE4ED"/>
<path d="M134.815 104.287H119.875V106.346H134.815V104.287Z" fill="#DDE4ED"/>
<path d="M53.1996 109.716H28.7449C28.3421 109.719 27.9454 109.62 27.591 109.428C27.0782 109.146 26.75 108.685 26.75 108.165L26.7637 74.4217C26.764 74.2009 26.823 73.9842 26.9346 73.7937C27.2457 73.2515 27.9483 72.8706 28.7585 72.8706H53.2132C54.0679 72.8706 54.7876 73.2858 55.0748 73.8658C55.1618 74.0375 55.2074 74.2273 55.2081 74.42L55.1961 108.165C55.1961 108.944 54.4457 109.594 53.4765 109.701C53.3845 109.711 53.292 109.716 53.1996 109.716Z" fill="white"/>
<path d="M53.8653 109.457L29.4021 109.452C28.9995 109.455 28.6026 109.356 28.2483 109.164C27.7354 108.883 27.4072 108.421 27.4072 107.901L27.4209 74.1578C27.4212 73.937 27.4802 73.7203 27.5918 73.5298C27.903 72.9876 28.6055 72.6067 29.4158 72.6067H29.7491L29.744 105.832C29.744 106.347 30.0756 106.813 30.585 107.095C30.9394 107.287 31.3363 107.386 31.7389 107.383H55.8619V107.898C55.8619 108.677 55.1115 109.327 54.1423 109.433C54.0505 109.446 53.958 109.455 53.8653 109.457Z" fill="#D6DEE9"/>
<path d="M53.5319 110.486H29.0754C28.4989 110.49 27.9307 110.346 27.4242 110.07C26.5695 109.594 26.0566 108.784 26.0566 107.906L26.0703 74.1626C26.0724 73.7603 26.1802 73.3654 26.3831 73.0182C26.896 72.1345 27.9216 71.5837 29.0925 71.5837H53.5472C54.7438 71.5837 55.8122 72.1757 56.2977 73.0954L56.4344 73.3064V73.4025C56.523 73.6474 56.5681 73.9058 56.5678 74.166L56.5541 107.909C56.5541 109.203 55.4207 110.311 53.9199 110.468C53.791 110.481 53.6614 110.488 53.5319 110.486ZM29.0874 73.6341C28.6276 73.6341 28.2686 73.8383 28.1541 74.0408C28.1317 74.0751 28.1192 74.1149 28.1182 74.1557L28.1045 107.899C28.1045 108.012 28.2293 108.156 28.4156 108.261C28.6189 108.369 28.8455 108.424 29.0754 108.422H53.5301C53.5838 108.423 53.6375 108.42 53.6908 108.414C54.2036 108.359 54.5011 108.071 54.5011 107.899L54.5148 74.1557C54.5148 74.1353 54.5113 74.1151 54.5045 74.0957L54.4088 73.9481C54.1724 73.7342 53.8619 73.6214 53.5438 73.6341H29.0891H29.0874Z" fill="#426572"/>
<path d="M50.7116 87.4719H34.127V89.5309H50.7116V87.4719Z" fill="#426572"/>
<path d="M50.7116 83.1758H34.127V85.2348H50.7116V83.1758Z" fill="#426572"/>
<path d="M50.7116 92.3398H34.127V94.3988H50.7116V92.3398Z" fill="#426572"/>
<path opacity="0.2" d="M183.248 48.7293C184.443 46.4783 185.176 44.0099 185.405 41.4698C185.634 38.9295 185.354 36.3692 184.581 33.9394C183.809 31.5098 182.557 29.2602 180.904 27.3232C179.251 25.3864 177.229 23.8015 174.956 22.662C172.682 21.5226 170.205 20.8517 167.669 20.689C165.133 20.5264 162.591 20.8752 160.191 21.7147C157.792 22.5545 155.584 23.8681 153.699 25.5779C151.814 27.2879 150.289 29.3594 149.214 31.6706C147.73 34.4682 146.962 37.5926 146.981 40.762C146.999 43.9317 147.804 47.0467 149.321 49.8265C150.838 52.6063 153.02 54.9635 155.671 56.6857C158.322 58.4078 161.358 59.4409 164.506 59.6916C163.957 59.822 163.399 59.9277 162.833 60.009C165.812 60.4402 168.852 60.1556 171.701 59.1784C174.549 58.2013 177.127 56.5596 179.221 54.388C180.896 52.7644 182.262 50.8464 183.248 48.7293Z" fill="#606060"/>
<path d="M163.891 55.2317C174.399 55.2317 182.917 46.6816 182.917 36.1347C182.917 25.5877 174.399 17.0376 163.891 17.0376C153.383 17.0376 144.865 25.5877 144.865 36.1347C144.865 46.6816 153.383 55.2317 163.891 55.2317Z" fill="#A8EF9E"/>
<path d="M182.008 37.4994C182.008 40.2375 181.42 42.9433 180.287 45.4337C179.154 47.924 177.499 50.1405 175.438 51.933C173.376 53.7255 170.954 55.052 168.336 55.8226C165.719 56.5932 162.966 56.7898 160.267 56.3991C164.794 55.7423 168.934 53.47 171.928 49.9989C174.923 46.5278 176.571 42.09 176.571 37.4985C176.571 32.907 174.923 28.4692 171.928 24.9981C168.934 21.527 164.794 19.2549 160.267 18.5979C162.967 18.2071 165.719 18.4035 168.337 19.1741C170.955 19.9447 173.378 21.2712 175.439 23.0639C177.501 24.8565 179.155 27.0734 180.289 29.5641C181.424 32.0547 182.01 34.7611 182.01 37.4994H182.008Z" fill="#A7E59C"/>
<path d="M163.438 57.1694C159.472 57.1694 155.596 55.9889 152.298 53.7774C149.001 51.5658 146.431 48.4225 144.913 44.7449C143.395 41.0673 142.998 37.0205 143.772 33.1163C144.546 29.2122 146.455 25.6259 149.26 22.8111C152.064 19.9965 155.637 18.0796 159.526 17.303C163.416 16.5264 167.447 16.925 171.111 18.4483C174.775 19.9716 177.906 22.5514 180.11 25.8612C182.313 29.1708 183.489 33.0621 183.489 37.0428C183.484 42.3788 181.37 47.4947 177.611 51.268C173.852 55.0411 168.754 57.1634 163.438 57.1694ZM163.438 18.977C159.878 18.977 156.398 20.0367 153.438 22.0219C150.478 24.0072 148.171 26.8289 146.808 30.1303C145.446 33.4317 145.089 37.0646 145.784 40.5693C146.478 44.0741 148.193 47.2935 150.71 49.8202C153.227 52.3471 156.435 54.0678 159.926 54.765C163.418 55.4621 167.037 55.1042 170.326 53.7367C173.616 52.3692 176.426 50.0535 178.404 47.0822C180.382 44.1111 181.438 40.6179 181.438 37.0445C181.433 32.2543 179.535 27.6616 176.161 24.2744C172.785 20.887 168.21 18.9819 163.438 18.977Z" fill="#426572"/>
<path d="M173.048 29.2343C172.638 29.004 172.154 28.9422 171.7 29.0618C171.245 29.1814 170.854 29.4733 170.609 29.8758L167.315 35.2806L162.052 43.9078L161.905 44.1497L155.828 39.2699L154.72 38.3813C153.994 37.7979 152.898 37.6143 152.199 38.3813C151.604 39.0316 151.421 40.2874 152.199 40.9119L160.012 47.185L161.12 48.0738C161.58 48.4444 162.017 48.6468 162.617 48.5662C162.886 48.5333 163.143 48.4385 163.368 48.2898C163.594 48.141 163.783 47.9422 163.92 47.7083L167.214 42.3035L172.479 33.678L173.694 31.6844C174.175 30.8849 173.888 29.6838 173.048 29.2343Z" fill="white"/>
</g>
</g>
<defs>
<linearGradient id="paint0_linear_764_2653" x1="0.225291" y1="63.6893" x2="214.461" y2="63.6893" gradientUnits="userSpaceOnUse">
<stop stop-color="#C5E9FA"/>
<stop offset="1" stop-color="#C4F4EA"/>
</linearGradient>
<clipPath id="clip0_764_2653">
<rect width="220" height="128" fill="white"/>
</clipPath>
</defs>
</svg>
